{
.appVersion = "1365";
copyright = "Copyright © 2020 by Deni Anggara. All rights reserved.";
date = "2020-09-16 07:52:00 +0000";
designer = "Deni Anggara";
designerURL = www.lokalcontainer.org;
familyName = "LCT Ciburial";
featurePrefixes = (
{
automatic = 1;
code = "languagesystem DFLT dflt;\012\012languagesystem latn dflt;\012languagesystem latn AZE;\012languagesystem latn CRT;\012languagesystem latn KAZ;\012languagesystem latn TAT;\012languagesystem latn TRK;\012languagesystem latn ROM;\012languagesystem latn MOL;\012languagesystem latn CAT;\012";
name = Languagesystems;
}
);
features = (
{
automatic = 1;
code = "feature locl;\012feature numr;\012feature dnom;\012feature frac;\012feature pnum;\012feature tnum;\012feature case;\012feature salt;\012feature ss01;\012feature ss02;\012";
name = aalt;
},
{
automatic = 1;
code = "lookup ccmp_Other_1 {\012	@CombiningTopAccents = [acutecomb brevecomb caroncomb circumflexcomb commaturnedabovecomb dieresiscomb dotaccentcomb gravecomb hungarumlautcomb macroncomb ringcomb tildecomb];\012	@CombiningNonTopAccents = [cedillacomb ogonekcomb];\012	sub [i]' @CombiningTopAccents by [idotless];\012	sub [i]' @CombiningNonTopAccents @CombiningTopAccents by [idotless];\012} ccmp_Other_1;\012";
name = ccmp;
},
{
automatic = 1;

glyphs = (
{
glyphname = A;
lastChange = "2025-01-08 14:36:25 +0000";
layers = (
{
anchors = (
{
name = bottom;
position = "{340, 0}";
},
{
name = ogonek;
position = "{675, 0}";
},
{
name = top;
position = "{340, 691}";
}
);
layerId = "B62D1C5F-C6EB-4CFF-8AD4-79D05BEF2DD6";
paths = (
{
closed = 1;
nodes = (
"530 205 LINE",
"530 297 LINE",
"150 297 LINE",
"150 205 LINE"
);
},
{
closed = 1;
nodes = (
"109 0 LINE",
"354 613 LINE",
"324 613 LINE",
"569 0 LINE",
"675 0 LINE",
"393 691 LINE",
"285 691 LINE",
"4 0 LINE"
);
}
);
width = 679;
}
);
leftKerningGroup = A;
rightKerningGroup = A;
unicode = 0041;
},
{
glyphname = AE;
lastChange = "2025-01-07 21:15:10 +0000";
layers = (
{
anchors = (
{
name = bottom;
position = "{985, 0}";
},
{
name = ogonek;
position = "{1230, 10}";
},
{
name = top;
position = "{985, 691}";
},
{
name = topleft;
position = "{699, 691}";
}
);
layerId = "B62D1C5F-C6EB-4CFF-8AD4-79D05BEF2DD6";
paths = (
{
closed = 1;
nodes = (
"109 0 LINE",
"193 209 LINE",
"485 209 LINE",
"569 0 LINE",
"911 0 LINE",
"911 88 LINE",
"639 88 LINE",
"552 301 LINE",
"848 301 LINE",
"848 389 LINE",
"516 389 LINE",
"429 603 LINE",
"911 603 LINE",
"911 691 LINE",
"285 691 LINE",
"4 0 LINE"
);
},
{
closed = 1;
nodes = (
"339 575 LINE",
"450 297 LINE",
"228 297 LINE"
);
}
);
width = 950;
}
);
leftKerningGroup = A;
leftMetricsKey = A;
rightKerningGroup = AE;
rightMetricsKey = E;
unicode = 00C6;
},
{
glyphname = B;
lastChange = "2025-01-07 21:15:10 +0000";
layers = (
{
anchors = (
{
name = bottom;
position = "{329, 0}";
},
{
name = top;
position = "{329, 691}";
}
);
background = {
paths = (
{
closed = 1;
nodes = (
"411 0 LINE SMOOTH",
"537 0 OFFCURVE",
"622 81 OFFCURVE",
"622 200 CURVE SMOOTH",
"622 296 OFFCURVE",
"570 358 OFFCURVE",
"477 374 CURVE",
"481 348 LINE",
"554 375 OFFCURVE",
"590 428 OFFCURVE",
"590 511 CURVE SMOOTH",
"590 618 OFFCURVE",
"513 691 OFFCURVE",
"398 691 CURVE SMOOTH",
"58 691 LINE",
"58 0 LINE"
);
},
{
closed = 1;
nodes = (
"156 312 LINE",
"421 312 LINE SMOOTH",
"487 312 OFFCURVE",
"524 260 OFFCURVE",
"524 200 CURVE SMOOTH",
"524 136 OFFCURVE",
"482 89 OFFCURVE",
"421 89 CURVE SMOOTH",
"156 89 LINE"
);
},
{
closed = 1;
nodes = (
"156 602 LINE",
"399 602 LINE SMOOTH",
"455 602 OFFCURVE",
"493 560 OFFCURVE",
"493 501 CURVE SMOOTH",
"493 441 OFFCURVE",
"455 400 OFFCURVE",
"399 400 CURVE SMOOTH",
"156 400 LINE"
);
}
);
};
layerId = "B62D1C5F-C6EB-4CFF-8AD4-79D05BEF2DD6";
paths = (
{
closed = 1;
nodes = (
"411 0 LINE SMOOTH",
"537 0 OFFCURVE",
"622 81 OFFCURVE",
"622 200 CURVE SMOOTH",
"622 294 OFFCURVE",
"564 360 OFFCURVE",
"482 371 CURVE",
"482 355 LINE",
"553 379 OFFCURVE",
"590 429 OFFCURVE",
"590 511 CURVE SMOOTH",
"590 618 OFFCURVE",
"513 691 OFFCURVE",
"398 691 CURVE SMOOTH",
"58 691 LINE",
"58 0 LINE"
);
},
{
closed = 1;
nodes = (
"156 312 LINE",
"421 312 LINE SMOOTH",
"487 312 OFFCURVE",
"524 260 OFFCURVE",
"524 200 CURVE SMOOTH",
"524 136 OFFCURVE",
"482 89 OFFCURVE",
"421 89 CURVE SMOOTH",
"156 89 LINE"
);
},
{
closed = 1;
nodes = (
"156 602 LINE",
"399 602 LINE SMOOTH",
"455 602 OFFCURVE",
"493 560 OFFCURVE",
"493 501 CURVE SMOOTH",
"493 441 OFFCURVE",
"455 400 OFFCURVE",
"399 400 CURVE SMOOTH",
"156 400 LINE"
);
}
);
width = 658;
}
);
leftKerningGroup = H;
leftMetricsKey = H;
rightKerningGroup = B;
unicode = 0042;
},
{
glyphname = C;
lastChange = "2025-01-07 21:15:10 +0000";
layers = (
{
anchors = (
{
name = bottom;
position = "{389, 0}";
},
{
name = top;
position = "{389, 691}";
}
);
background = {
paths = (
{
closed = 1;
nodes = (
"529 -6 OFFCURVE",
"653 78 OFFCURVE",
"697 211 CURVE",
"602 244 LINE",
"570 140 OFFCURVE",
"486 82 OFFCURVE",
"371 82 CURVE SMOOTH",
"223 82 OFFCURVE",
"138 176 OFFCURVE",
"138 342 CURVE SMOOTH",
"138 514 OFFCURVE",
"224 609 OFFCURVE",
"375 609 CURVE SMOOTH",
"496 609 OFFCURVE",
"575 548 OFFCURVE",
"595 440 CURVE",
"691 455 LINE",
"663 606 OFFCURVE",
"544 697 OFFCURVE",
"375 697 CURVE SMOOTH",
"169 697 OFFCURVE",
"40 564 OFFCURVE",
"40 346 CURVE SMOOTH",
"40 128 OFFCURVE",
"167 -6 OFFCURVE",
"370 -6 CURVE SMOOTH"
);
},
{
closed = 1;
nodes = (
"549 -6 OFFCURVE",
"673 78 OFFCURVE",
"717 211 CURVE",
"621 244 LINE",
"588 143 OFFCURVE",
"504 86 OFFCURVE",
"390 86 CURVE SMOOTH",
"248 86 OFFCURVE",
"140 181 OFFCURVE",
"140 345 CURVE SMOOTH",
"140 509 OFFCURVE",
"248 604 OFFCURVE",
"390 604 CURVE SMOOTH",
"514 604 OFFCURVE",
"593 545 OFFCURVE",
"614 439 CURVE",
"714 454 LINE",
"686 606 OFFCURVE",
"566 697 OFFCURVE",
"390 696 CURVE SMOOTH",
"183 696 OFFCURVE",
"40 547 OFFCURVE",
"40 345 CURVE SMOOTH",
"40 143 OFFCURVE",
"183 -6 OFFCURVE",
"390 -6 CURVE SMOOTH"
);
}
);
};
layerId = "B62D1C5F-C6EB-4CFF-8AD4-79D05BEF2DD6";
paths = (
{
closed = 1;
nodes = (
"549 -6 OFFCURVE",
"673 78 OFFCURVE",
"717 211 CURVE",
"621 244 LINE",
"587 143 OFFCURVE",
"504 86 OFFCURVE",
"390 86 CURVE SMOOTH",
"248 86 OFFCURVE",
"140 181 OFFCURVE",
"140 345 CURVE SMOOTH",
"140 509 OFFCURVE",
"248 604 OFFCURVE",
"390 604 CURVE SMOOTH",
"504 604 OFFCURVE",
"591 543 OFFCURVE",
"617 439 CURVE",
"717 455 LINE",
"685 607 OFFCURVE",
"558 697 OFFCURVE",
"390 696 CURVE SMOOTH",
"183 696 OFFCURVE",
"40 547 OFFCURVE",
"40 345 CURVE SMOOTH",
"40 143 OFFCURVE",
"183 -6 OFFCURVE",
"390 -6 CURVE SMOOTH"
);
}
);
width = 757;
}
);
leftKerningGroup = O;
leftMetricsKey = O;
rightKerningGroup = C;
rightMetricsKey = O;
unicode = 0043;
},
{
glyphname = D;
lastChange = "2025-01-07 21:15:10 +0000";
layers = (
{
anchors = (
{
name = bottom;
position = "{342, 0}";
},
{
name = center;
position = "{342, 346}";
},
{
name = top;
position = "{342, 691}";
}
);
background = {
paths = (
{
closed = 1;
nodes = (
"-29 136 OFFCURVE",
"84 -6 OFFCURVE",
"301 -6 CURVE SMOOTH",
"518 -6 OFFCURVE",
"631 136 OFFCURVE",
"631 346 CURVE SMOOTH",
"631 552 OFFCURVE",
"519 697 OFFCURVE",
"301 697 CURVE SMOOTH",
"83 697 OFFCURVE",
"-29 552 OFFCURVE",
"-29 346 CURVE SMOOTH"
);
},
{
closed = 1;
nodes = (
"65 502 OFFCURVE",
"137 612 OFFCURVE",
"301 612 CURVE SMOOTH",
"465 612 OFFCURVE",
"537 502 OFFCURVE",
"537 346 CURVE SMOOTH",
"537 196 OFFCURVE",
"472 79 OFFCURVE",
"301 79 CURVE SMOOTH",
"130 79 OFFCURVE",
"65 196 OFFCURVE",
"65 346 CURVE SMOOTH"
);
}
);
};
layerId = "B62D1C5F-C6EB-4CFF-8AD4-79D05BEF2DD6";
paths = (
{
closed = 1;
nodes = (
"348 0 LINE SMOOTH",
"569 0 OFFCURVE",
"651 169 OFFCURVE",
"651 345 CURVE SMOOTH",
"651 525 OFFCURVE",
"567 691 OFFCURVE",
"348 691 CURVE SMOOTH",
"58 691 LINE",
"58 0 LINE"
);
},
{
closed = 1;
nodes = (
"156 603 LINE",
"348 603 LINE SMOOTH",
"505 603 OFFCURVE",
"553 469 OFFCURVE",
"553 345 CURVE SMOOTH",
"553 222 OFFCURVE",
"505 88 OFFCURVE",
"348 88 CURVE SMOOTH",
"156 88 LINE"
);
}
);
width = 691;
}
);
leftKerningGroup = H;
leftMetricsKey = H;
rightKerningGroup = D;
unicode = 0044;
},
{
glyphname = Eth;
lastChange = "2025-01-07 21:15:10 +0000";
layers = (
{
components = (
{
name = D;
}
);
layerId = "B62D1C5F-C6EB-4CFF-8AD4-79D05BEF2DD6";
paths = (
{
closed = 1;
nodes = (
"3 304 LINE",
"228 304 LINE",
"228 387 LINE",
"3 387 LINE"
);
}
);
width = 698;
}
);
leftKerningGroup = Eth;
rightKerningGroup = Eth;
unicode = 00D0;
},
{
glyphname = E;
lastChange = "2025-01-08 16:48:00 +0000";
layers = (
{
anchors = (
{
name = bottom;
position = "{306, 0}";
},
{
name = ogonek;
position = "{573, 0}";
},
{
name = top;
position = "{306, 691}";
},
{
name = topleft;
position = "{20, 691}";
}
);
layerId = "B62D1C5F-C6EB-4CFF-8AD4-79D05BEF2DD6";
paths = (
{
closed = 1;
nodes = (
"573 0 LINE",
"573 88 LINE",
"156 88 LINE",
"156 603 LINE",
"573 603 LINE",
"573 691 LINE",
"58 691 LINE",
"58 0 LINE"
);
},
{
closed = 1;
nodes = (
"510 301 LINE",
"510 389 LINE",
"104 389 LINE",
"104 301 LINE"
);
}
);
width = 612;
}
);
leftKerningGroup = H;
leftMetricsKey = H;
rightKerningGroup = E;
unicode = 0045;
userData = {
KernOnName = E;
};
},
{
glyphname = F;
lastChange = "2025-01-07 21:15:10 +0000";
layers = (
{
anchors = (
{
name = bottom;
position = "{292, 0}";
},
{
name = top;
position = "{292, 691}";
}
);
background = {
paths = (
{
closed = 1;
nodes = (
"573 0 LINE",
"573 85 LINE",
"154 85 LINE",
"154 606 LINE",
"573 606 LINE",
"573 691 LINE",
"59 691 LINE",
"59 0 LINE"
);
},
{
closed = 1;
nodes = (
"510 303 LINE",
"510 387 LINE",
"106 387 LINE",
"106 303 LINE"
);
}
);
};
layerId = "B62D1C5F-C6EB-4CFF-8AD4-79D05BEF2DD6";
paths = (
{
closed = 1;
nodes = (
"156 0 LINE",
"156 603 LINE",
"555 603 LINE",
"555 691 LINE",
"58 691 LINE",
"58 0 LINE"
);
},
{
closed = 1;
nodes = (
"522 303 LINE",
"522 391 LINE",
"105 391 LINE",
"105 303 LINE"
);
}
);
width = 584;
}
);
leftKerningGroup = H;
leftMetricsKey = E;
rightKerningGroup = F;
unicode = 0046;
},
{
glyphname = G;
lastChange = "2025-02-25 15:41:11 +0000";
layers = (
{
anchors = (
{
name = bottom;
position = "{393, 0}";
},
{
name = top;
position = "{393, 691}";
}
);
background = {
paths = (
{
closed = 1;
nodes = (
"463 -6 OFFCURVE",
"551 31 OFFCURVE",
"593 98 CURVE",
"593 0 LINE",
"691 0 LINE",
"691 352 LINE",
"283 352 LINE",
"283 263 LINE",
"593 263 LINE",
"593 228 LINE",
"566 134 OFFCURVE",
"486 82 OFFCURVE",
"371 82 CURVE SMOOTH",
"223 82 OFFCURVE",
"138 176 OFFCURVE",
"138 342 CURVE SMOOTH",
"138 514 OFFCURVE",
"224 609 OFFCURVE",
"375 609 CURVE SMOOTH",
"496 609 OFFCURVE",
"575 548 OFFCURVE",
"595 440 CURVE",
"691 455 LINE",
"663 606 OFFCURVE",
"544 697 OFFCURVE",
"375 697 CURVE SMOOTH",
"168 697 OFFCURVE",
"40 564 OFFCURVE",
"40 346 CURVE SMOOTH",
"40 128 OFFCURVE",
"166 -6 OFFCURVE",
"368 -6 CURVE SMOOTH"
);
},
{
closed = 1;
nodes = (
"486 -6 OFFCURVE",
"578 35 OFFCURVE",
"615 96 CURVE",
"615 0 LINE",
"713 0 LINE",
"713 349 LINE",
"305 349 LINE",
"305 260 LINE",
"615 260 LINE",
"615 230 LINE",
"588 136 OFFCURVE",
"508 84 OFFCURVE",
"392 84 CURVE SMOOTH",
"248 84 OFFCURVE",
"140 179 OFFCURVE",
"140 345 CURVE SMOOTH",
"140 511 OFFCURVE",
"250 607 OFFCURVE",
"394 605 CURVE SMOOTH",
"507 606 OFFCURVE",
"596 540 OFFCURVE",
"616 440 CURVE",
"717 456 LINE",
"689 601 OFFCURVE",
"562 698 OFFCURVE",
"394 697 CURVE SMOOTH",
"185 699 OFFCURVE",
"40 549 OFFCURVE",
"40 345 CURVE SMOOTH",
"40 141 OFFCURVE",
"180 -6 OFFCURVE",
"385 -6 CURVE SMOOTH"
);
}
);
};
layerId = "B62D1C5F-C6EB-4CFF-8AD4-79D05BEF2DD6";
paths = (
{
closed = 1;
nodes = (
"486 -6 OFFCURVE",
"578 35 OFFCURVE",
"615 96 CURVE",
"615 0 LINE",
"713 0 LINE",
"713 349 LINE",
"343 349 LINE",
"343 260 LINE",
"615 260 LINE",
"615 230 LINE",
"588 136 OFFCURVE",
"508 84 OFFCURVE",
"392 84 CURVE SMOOTH",
"248 84 OFFCURVE",
"140 179 OFFCURVE",
"140 345 CURVE SMOOTH",
"140 511 OFFCURVE",
"250 607 OFFCURVE",
"394 605 CURVE SMOOTH",
"507 606 OFFCURVE",
"596 540 OFFCURVE",
"616 440 CURVE",
"717 456 LINE",
"689 601 OFFCURVE",
"562 698 OFFCURVE",
"394 697 CURVE SMOOTH",
"185 699 OFFCURVE",
"40 549 OFFCURVE",
"40 345 CURVE SMOOTH",
"40 141 OFFCURVE",
"180 -6 OFFCURVE",
"385 -6 CURVE SMOOTH"
);
}
);
width = 763;
}
);
leftKerningGroup = O;
leftMetricsKey = C;
rightKerningGroup = G;
unicode = 0047;
},
{
glyphname = H;
lastChange = "2025-01-08 16:48:00 +0000";
layers = (
{
anchors = (
{
name = bottom;
position = "{353, 0}";
},
{
name = center;
position = "{353, 558}";
},
{
name = top;
position = "{353, 691}";
},
{
name = topleft;
position = "{20, 691}";
}
);
layerId = "B62D1C5F-C6EB-4CFF-8AD4-79D05BEF2DD6";
paths = (
{
closed = 1;
nodes = (
"156 0 LINE",
"156 691 LINE",
"58 691 LINE",
"58 0 LINE"
);
},
{
closed = 1;
nodes = (
"601 312 LINE",
"601 400 LINE",
"105 400 LINE",
"105 312 LINE"
);
},
{
closed = 1;
nodes = (
"648 0 LINE",
"648 691 LINE",
"550 691 LINE",
"550 0 LINE"
);
}
);
width = 706;
}
);
leftKerningGroup = H;
rightKerningGroup = H;
unicode = 0048;
userData = {
KernOnName = H;
};
},
{
glyphname = I;
lastChange = "2025-01-08 14:52:01 +0000";
layers = (
{
anchors = (
{
name = bottom;
position = "{107, 0}";
},
{
name = ogonek;
position = "{156, 0}";
},
{
name = top;
position = "{107, 691}";
},
{
name = topleft;
position = "{-63, 691}";
}
);
layerId = "B62D1C5F-C6EB-4CFF-8AD4-79D05BEF2DD6";
paths = (
{
closed = 1;
nodes = (
"156 0 LINE",
"156 691 LINE",
"58 691 LINE",
"58 0 LINE"
);
}
);
width = 214;
}
);
leftKerningGroup = H;
leftMetricsKey = H;
rightKerningGroup = H;
rightMetricsKey = H;
unicode = 0049;
},
{
glyphname = J;
lastChange = "2025-01-07 21:15:10 +0000";
layers = (
{
anchors = (
{
name = bottom;
position = "{303, 0}";
},
{
name = top;
position = "{447, 691}";
}
);
background = {
paths = (
{
closed = 1;
nodes = (
"41 218 LINE SMOOTH",
"41 74 OFFCURVE",
"144 -6 OFFCURVE",
"290 -6 CURVE SMOOTH",
"455 -6 OFFCURVE",
"548 96 OFFCURVE",
"548 228 CURVE SMOOTH",
"548 691 LINE",
"450 691 LINE",
"450 237 LINE SMOOTH",
"450 145 OFFCURVE",
"400 83 OFFCURVE",
"293 83 CURVE SMOOTH",
"199 83 OFFCURVE",
"136 126 OFFCURVE",
"136 216 CURVE SMOOTH",
"136 313 LINE",
"41 313 LINE"
);
},
{
closed = 1;
nodes = (
"503 602 LINE",
"503 691 LINE",
"303 691 LINE",
"303 602 LINE"
);
}
);
};
layerId = "B62D1C5F-C6EB-4CFF-8AD4-79D05BEF2DD6";
paths = (
{
closed = 1;
nodes = (
"410 -6 OFFCURVE",
"496 89 OFFCURVE",
"496 211 CURVE SMOOTH",
"496 691 LINE",
"398 691 LINE",
"398 217 LINE SMOOTH",
"398 137 OFFCURVE",
"355 83 OFFCURVE",
"261 83 CURVE SMOOTH",
"179 83 OFFCURVE",
"124 120 OFFCURVE",
"124 199 CURVE SMOOTH",
"124 284 LINE",
"27 284 LINE",
"27 202 LINE SMOOTH",
"27 69 OFFCURVE",
"123 -6 OFFCURVE",
"258 -6 CURVE SMOOTH"
);
}
);
width = 542;
}
);
leftKerningGroup = J;
rightKerningGroup = J;
unicode = 004A;
},
{
glyphname = K;
lastChange = "2025-01-08 16:48:00 +0000";
layers = (
{
anchors = (
{
name = bottom;
position = "{319, 0}";
},
{
name = top;
position = "{319, 691}";
}
);
background = {
paths = (
{
closed = 1;
nodes = (
"619 0 LINE",
"327 396 LINE",
"611 691 LINE",
"486 691 LINE",
"145 337 LINE",
"145 206 LINE",
"259 325 LINE",
"501 0 LINE"
);
},
{
closed = 1;
nodes = (
"156 0 LINE",
"156 691 LINE",
"58 691 LINE",
"58 0 LINE"
);
}
);
};
layerId = "B62D1C5F-C6EB-4CFF-8AD4-79D05BEF2DD6";
paths = (
{
closed = 1;
nodes = (
"619 0 LINE",
"363 432 LINE",
"611 691 LINE",
"486 691 LINE",
"145 336 LINE",
"145 205 LINE",
"291 357 LINE",
"501 0 LINE"
);
},
{
closed = 1;
nodes = (
"156 0 LINE",
"156 691 LINE",
"58 691 LINE",
"58 0 LINE"
);
}
);
width = 637;
}
);
leftKerningGroup = H;
leftMetricsKey = H;
rightKerningGroup = K;
unicode = 004B;
userData = {
KernOnName = K;
};
},
{
glyphname = L;
lastChange = "2025-01-08 15:24:40 +0000";
layers = (
{
anchors = (
{
name = bottom;
position = "{307, 0}";
},
{
name = center;
position = "{166, 346}";
},
{
name = top;
position = "{107, 691}";
},
{
name = topright;
position = "{287, 697}";
}
);
layerId = "B62D1C5F-C6EB-4CFF-8AD4-79D05BEF2DD6";
paths = (
{
closed = 1;
nodes = (
"556 0 LINE",
"556 88 LINE",
"156 88 LINE",
"156 691 LINE",
"58 691 LINE",
"58 0 LINE"
);
}
);
width = 575;
}
);
leftKerningGroup = H;
leftMetricsKey = H;
rightKerningGroup = L;
unicode = 004C;
},
{
glyphname = M;
lastChange = "2025-01-07 21:15:10 +0000";
layers = (
{
anchors = (
{
name = bottom;
position = "{421, 0}";
},
{
name = top;
position = "{421, 691}";
}
);
layerId = "B62D1C5F-C6EB-4CFF-8AD4-79D05BEF2DD6";
paths = (
{
closed = 1;
nodes = (
"156 0 LINE",
"156 541 LINE",
"170 499 OFFCURVE",
"185 462 OFFCURVE",
"200 427 CURVE SMOOTH",
"377 0 LINE",
"464 0 LINE",
"644 432 LINE SMOOTH",
"658 466 OFFCURVE",
"672 500 OFFCURVE",
"685 540 CURVE",
"685 0 LINE",
"783 0 LINE",
"783 691 LINE",
"650 691 LINE",
"420 133 LINE",
"190 691 LINE",
"58 691 LINE",
"58 0 LINE"
);
}
);
width = 841;
}
);
leftKerningGroup = H;
leftMetricsKey = H;
rightKerningGroup = H;
rightMetricsKey = H;
unicode = 004D;
},
{
glyphname = N;
lastChange = "2025-01-07 21:15:10 +0000";
layers = (
{
anchors = (
{
name = bottom;
position = "{359, 0}";
},
{
name = top;
position = "{359, 691}";
}
);
layerId = "B62D1C5F-C6EB-4CFF-8AD4-79D05BEF2DD6";
paths = (
{
closed = 1;
nodes = (
"155 0 LINE",
"155 539 LINE",
"555 0 LINE",
"659 0 LINE",
"659 691 LINE",
"562 691 LINE",
"562 152 LINE",
"162 691 LINE",
"58 691 LINE",
"58 0 LINE"
);
}
);
width = 717;
}
);
leftKerningGroup = H;
leftMetricsKey = H;
rightKerningGroup = H;
rightMetricsKey = H;
unicode = 004E;
},
{
glyphname = Eng;
lastChange = "2025-01-08 15:02:25 +0000";
layers = (
{
layerId = "B62D1C5F-C6EB-4CFF-8AD4-79D05BEF2DD6";
paths = (
{
closed = 1;
nodes = (
"575 -180 LINE SMOOTH",
"629 -180 OFFCURVE",
"659 -156 OFFCURVE",
"659 -100 CURVE SMOOTH",
"659 691 LINE",
"562 691 LINE",
"562 152 LINE",
"162 691 LINE",
"58 691 LINE",
"58 0 LINE",
"155 0 LINE",
"155 539 LINE",
"555 0 LINE",
"575 0 LINE",
"575 -96 LINE",
"432 -96 LINE",
"432 -180 LINE"
);
}
);
width = 717;
}
);
leftKerningGroup = H;
leftMetricsKey = H;
rightKerningGroup = H;
rightMetricsKey = H;
unicode = 014A;
},
{
glyphname = O;
lastChange = "2025-01-08 16:48:00 +0000";
layers = (
{
anchors = (
{
name = bottom;
position = "{390, 0}";
},
{
name = center;
position = "{390, 346}";
},
{
name = ogonek;
position = "{687, 10}";
},
{
name = top;
position = "{390, 691}";
},
{
name = topleft;
position = "{39, 691}";
},
{
name = topright;
position = "{741, 691}";
}
);
background = {
paths = (
{
closed = 1;
nodes = (
"59 125 OFFCURVE",
"183 -6 OFFCURVE",
"390 -6 CURVE SMOOTH",
"597 -6 OFFCURVE",
"721 125 OFFCURVE",
"721 346 CURVE SMOOTH",
"721 552 OFFCURVE",
"608 697 OFFCURVE",
"390 697 CURVE SMOOTH",
"172 697 OFFCURVE",
"59 552 OFFCURVE",
"59 346 CURVE SMOOTH"
);
},
{
closed = 1;
nodes = (
"157 514 OFFCURVE",
"240 608 OFFCURVE",
"390 608 CURVE SMOOTH",
"540 608 OFFCURVE",
"623 514 OFFCURVE",
"623 346 CURVE SMOOTH",
"623 198 OFFCURVE",
"559 83 OFFCURVE",
"390 83 CURVE SMOOTH",
"221 83 OFFCURVE",
"157 198 OFFCURVE",
"157 346 CURVE SMOOTH"
);
}
);
};
layerId = "B62D1C5F-C6EB-4CFF-8AD4-79D05BEF2DD6";
paths = (
{
closed = 1;
nodes = (
"597 -5 OFFCURVE",
"740 144 OFFCURVE",
"740 346 CURVE SMOOTH",
"740 548 OFFCURVE",
"597 697 OFFCURVE",
"390 697 CURVE SMOOTH",
"183 697 OFFCURVE",
"40 548 OFFCURVE",
"40 346 CURVE SMOOTH",
"40 144 OFFCURVE",
"183 -5 OFFCURVE",
"390 -5 CURVE SMOOTH"
);
},
{
closed = 1;
nodes = (
"248 87 OFFCURVE",
"140 182 OFFCURVE",
"140 346 CURVE SMOOTH",
"140 510 OFFCURVE",
"248 605 OFFCURVE",
"390 605 CURVE SMOOTH",
"532 605 OFFCURVE",
"640 510 OFFCURVE",
"640 346 CURVE SMOOTH",
"640 182 OFFCURVE",
"532 87 OFFCURVE",
"390 87 CURVE SMOOTH"
);
}
);
width = 780;
}
);
leftKerningGroup = O;
rightKerningGroup = O;
unicode = 004F;
userData = {
KernOnName = O;
};
},
{
glyphname = Oslash;
lastChange = "2025-01-07 21:15:10 +0000";
layers = (
{
components = (
{
name = O;
}
);
layerId = "B62D1C5F-C6EB-4CFF-8AD4-79D05BEF2DD6";
paths = (
{
closed = 1;
nodes = (
"31 41 LINE",
"85 -13 LINE",
"749 651 LINE",
"695 705 LINE"
);
}
);
width = 780;
}
);
leftKerningGroup = Oslash;
rightKerningGroup = H;
unicode = 00D8;
},
{
glyphname = OE;
lastChange = "2025-01-07 21:15:10 +0000";
layers = (
{
anchors = (
{
name = bottom;
position = "{1004, 0}";
},
{
name = center;
position = "{349, 346}";
},
{
name = ogonek;
position = "{1249, 10}";
},
{
name = top;
position = "{1004, 691}";
},
{
name = topleft;
position = "{718, 691}";
}
);
layerId = "B62D1C5F-C6EB-4CFF-8AD4-79D05BEF2DD6";
paths = (
{
closed = 1;
nodes = (
"1050 0 LINE",
"1050 88 LINE",
"633 88 LINE",
"633 301 LINE",
"987 301 LINE",
"987 389 LINE",
"633 389 LINE",
"633 603 LINE",
"1050 603 LINE",
"1050 691 LINE",
"373 691 LINE SMOOTH",
"127 691 OFFCURVE",
"40 525 OFFCURVE",
"40 345 CURVE SMOOTH",
"40 169 OFFCURVE",
"125 0 OFFCURVE",
"373 0 CURVE SMOOTH"
);
},
{
closed = 1;
nodes = (
"188 88 OFFCURVE",
"138 222 OFFCURVE",
"138 345 CURVE SMOOTH",
"138 469 OFFCURVE",
"188 603 OFFCURVE",
"373 603 CURVE SMOOTH",
"535 603 LINE",
"535 88 LINE",
"373 88 LINE SMOOTH"
);
}
);
width = 1089;
}
);
leftKerningGroup = OE;
leftMetricsKey = O;
rightKerningGroup = E;
rightMetricsKey = E;
unicode = 0152;
},
{
glyphname = P;
lastChange = "2025-01-07 21:15:10 +0000";
layers = (
{
anchors = (
{
name = bottom;
position = "{318, 0}";
},
{
name = top;
position = "{318, 691}";
}
);
layerId = "B62D1C5F-C6EB-4CFF-8AD4-79D05BEF2DD6";
paths = (
{
closed = 1;
nodes = (
"156 0 LINE",
"156 275 LINE",
"397 275 LINE SMOOTH",
"519 275 OFFCURVE",
"605 362 OFFCURVE",
"605 483 CURVE SMOOTH",
"605 605 OFFCURVE",
"519 691 OFFCURVE",
"397 691 CURVE SMOOTH",
"58 691 LINE",
"58 0 LINE"
);
},
{
closed = 1;
nodes = (
"156 603 LINE",
"396 603 LINE SMOOTH",
"462 603 OFFCURVE",
"507 554 OFFCURVE",
"507 483 CURVE SMOOTH",
"507 414 OFFCURVE",
"461 364 OFFCURVE",
"396 364 CURVE SMOOTH",
"156 364 LINE"
);
}
);
width = 635;
}
);
leftKerningGroup = H;
leftMetricsKey = H;
rightKerningGroup = P;
unicode = 0050;
},
{
glyphname = Thorn;
lastChange = "2025-01-07 21:15:10 +0000";
layers = (
{
layerId = "B62D1C5F-C6EB-4CFF-8AD4-79D05BEF2DD6";
paths = (
{
closed = 1;
nodes = (
"58 691 LINE",
"58 0 LINE",
"156 0 LINE",
"156 691 LINE"
);
},
{
closed = 1;
nodes = (
"396 466 LINE SMOOTH",
"462 466 OFFCURVE",
"507 417 OFFCURVE",
"507 346 CURVE SMOOTH",
"507 277 OFFCURVE",
"461 227 OFFCURVE",
"396 227 CURVE SMOOTH",
"115 227 LINE",
"115 138 LINE",
"397 138 LINE SMOOTH",
"519 138 OFFCURVE",
"605 225 OFFCURVE",
"605 346 CURVE SMOOTH",
"605 468 OFFCURVE",
"519 554 OFFCURVE",
"397 554 CURVE SMOOTH",
"115 554 LINE",
"115 466 LINE"
);
}
);
width = 635;
}
);
leftKerningGroup = H;
leftMetricsKey = B;
rightMetricsKey = P;
unicode = 00DE;
},
{
glyphname = Q;
lastChange = "2025-01-08 16:43:13 +0000";
layers = (
{
background = {
paths = (
{
closed = 1;
nodes = (
"758 60 LINE",
"330 424 LINE",
"330 312 LINE",
"706 -8 LINE"
);
}
);
};
components = (
{
name = O;
}
);
layerId = "B62D1C5F-C6EB-4CFF-8AD4-79D05BEF2DD6";
paths = (
{
closed = 1;
nodes = (
"760 58 LINE",
"386 376 LINE",
"332 311 LINE",
"706 -8 LINE"
);
}
);
width = 780;
}
);
leftKerningGroup = O;
rightKerningGroup = Q;
unicode = 0051;
},
{
glyphname = R;
lastChange = "2025-01-07 21:15:10 +0000";
layers = (
{
anchors = (
{
name = bottom;
position = "{325, 0}";
},
{
name = top;
position = "{325, 691}";
}
);
background = {
paths = (
{
closed = 1;
nodes = (
"411 0 LINE SMOOTH",
"537 0 OFFCURVE",
"621 80 OFFCURVE",
"621 199 CURVE SMOOTH",
"621 287 OFFCURVE",
"576 354 OFFCURVE",
"480 372 CURVE",
"484 351 LINE",
"561 380 OFFCURVE",
"590 436 OFFCURVE",
"590 511 CURVE SMOOTH",
"590 618 OFFCURVE",
"514 690 OFFCURVE",
"399 690 CURVE SMOOTH",
"59 690 LINE",
"59 0 LINE"
);
},
{
closed = 1;
nodes = (
"153 313 LINE",
"421 313 LINE SMOOTH",
"488 313 OFFCURVE",
"527 260 OFFCURVE",
"527 199 CURVE SMOOTH",
"527 134 OFFCURVE",
"485 85 OFFCURVE",
"421 85 CURVE SMOOTH",
"153 85 LINE"
);
},
{
closed = 1;
nodes = (
"153 605 LINE",
"399 605 LINE SMOOTH",
"458 605 OFFCURVE",
"495 561 OFFCURVE",
"495 501 CURVE SMOOTH",
"495 442 OFFCURVE",
"458 398 OFFCURVE",
"399 398 CURVE SMOOTH",
"153 398 LINE"
);
}
);
};
layerId = "B62D1C5F-C6EB-4CFF-8AD4-79D05BEF2DD6";
paths = (
{
closed = 1;
nodes = (
"156 0 LINE",
"156 309 LINE",
"352 309 LINE",
"507 0 LINE",
"617 0 LINE",
"460 311 LINE",
"557 324 OFFCURVE",
"620 396 OFFCURVE",
"620 500 CURVE SMOOTH",
"620 615 OFFCURVE",
"543 691 OFFCURVE",
"428 691 CURVE SMOOTH",
"58 691 LINE",
"58 0 LINE"
);
},
{
closed = 1;
nodes = (
"156 603 LINE",
"416 603 LINE SMOOTH",
"480 603 OFFCURVE",
"522 565 OFFCURVE",
"522 498 CURVE SMOOTH",
"522 435 OFFCURVE",
"484 393 OFFCURVE",
"416 393 CURVE SMOOTH",
"156 393 LINE"
);
}
);
width = 650;
}
);
leftKerningGroup = H;
leftMetricsKey = H;
rightKerningGroup = R;
unicode = 0052;
},
{
glyphname = S;
lastChange = "2025-01-07 21:15:10 +0000";
layers = (
{
anchors = (
{
name = bottom;
position = "{295, 0}";
},
{
name = top;
position = "{295, 691}";
}
);
layerId = "B62D1C5F-C6EB-4CFF-8AD4-79D05BEF2DD6";
paths = (
{
closed = 1;
nodes = (
"450 -6 OFFCURVE",
"553 79 OFFCURVE",
"553 204 CURVE SMOOTH",
"553 317 OFFCURVE",
"475 374 OFFCURVE",
"386 391 CURVE SMOOTH",
"258 415 LINE SMOOTH",
"203 425 OFFCURVE",
"168 461 OFFCURVE",
"168 511 CURVE SMOOTH",
"170 575 OFFCURVE",
"219 610 OFFCURVE",
"305 610 CURVE SMOOTH",
"396 610 OFFCURVE",
"447 570 OFFCURVE",
"458 496 CURVE",
"552 510 LINE",
"536 628 OFFCURVE",
"448 697 OFFCURVE",
"310 697 CURVE SMOOTH",
"166 697 OFFCURVE",
"70 621 OFFCURVE",
"70 510 CURVE SMOOTH",
"70 509 LINE SMOOTH",
"70 413 OFFCURVE",
"130 347 OFFCURVE",
"241 326 CURVE SMOOTH",
"368 302 LINE SMOOTH",
"421 292 OFFCURVE",
"454 254 OFFCURVE",
"454 200 CURVE SMOOTH",
"454 124 OFFCURVE",
"397 81 OFFCURVE",
"296 81 CURVE SMOOTH",
"197 81 OFFCURVE",
"145 123 OFFCURVE",
"131 215 CURVE",
"34 202 LINE",
"52 70 OFFCURVE",
"145 -6 OFFCURVE",
"294 -6 CURVE SMOOTH"
);
}
);
width = 589;
}
);
leftKerningGroup = S;
rightKerningGroup = S;
unicode = 0053;
},
{
glyphname = Germandbls;
lastChange = "2025-01-07 21:15:10 +0000";
layers = (
{
background = {
paths = (
{
closed = 1;
nodes = (
"451 0 LINE SMOOTH",
"577 0 OFFCURVE",
"662 81 OFFCURVE",
"662 200 CURVE SMOOTH",
"662 290 OFFCURVE",
"609 354 OFFCURVE",
"532 369 CURVE",
"461 312 LINE",
"527 312 OFFCURVE",
"564 260 OFFCURVE",
"564 200 CURVE SMOOTH",
"564 136 OFFCURVE",
"522 89 OFFCURVE",
"461 89 CURVE SMOOTH",
"298 89 LINE",
"298 0 LINE"
);
},
{
closed = 1;
nodes = (
"503 562 LINE",
"611 562 LINE",
"611 646 LINE",
"503 646 LINE"
);
},
{
closed = 1;
nodes = (
"298 329 LINE",
"406 329 LINE",
"611 562 LINE",
"503 562 LINE"
);
},
{
closed = 1;
nodes = (
"281 312 LINE",
"461 312 LINE",
"461 403 LINE",
"281 403 LINE"
);
},
{
closed = 1;
nodes = (
"196 89 LINE",
"196 602 LINE",
"611 602 LINE",
"611 691 LINE",
"98 691 LINE",
"98 0 LINE",
"196 0 LINE",
"196 89 LINE"
);
}
);
};
layerId = "B62D1C5F-C6EB-4CFF-8AD4-79D05BEF2DD6";
paths = (
{
closed = 1;
nodes = (
"156 0 LINE",
"156 602 LINE",
"502 602 LINE",
"323 388 LINE",
"323 311 LINE",
"461 311 LINE SMOOTH",
"522 311 OFFCURVE",
"564 264 OFFCURVE",
"564 200 CURVE SMOOTH",
"564 136 OFFCURVE",
"522 89 OFFCURVE",
"461 89 CURVE SMOOTH",
"258 89 LINE",
"258 0 LINE",
"451 0 LINE SMOOTH",
"577 0 OFFCURVE",
"662 81 OFFCURVE",
"662 200 CURVE SMOOTH",
"662 313 OFFCURVE",
"580 390 OFFCURVE",
"464 390 CURVE SMOOTH",
"440 390 LINE",
"611 592 LINE",
"611 691 LINE",
"58 691 LINE",
"58 0 LINE"
);
}
);
width = 698;
}
);
leftKerningGroup = H;
leftMetricsKey = B;
rightMetricsKey = B;
unicode = 1E9E;
},
{
glyphname = T;
lastChange = "2025-01-08 14:49:56 +0000";
layers = (
{
anchors = (
{
name = bottom;
position = "{309, 0}";
},
{
name = center;
position = "{309, 346}";
},
{
name = top;
position = "{309, 691}";
}
);
layerId = "B62D1C5F-C6EB-4CFF-8AD4-79D05BEF2DD6";
paths = (
{
closed = 1;
nodes = (
"358 0 LINE",
"358 651 LINE",
"260 651 LINE",
"260 0 LINE"
);
},
{
closed = 1;
nodes = (
"595 602 LINE",
"595 691 LINE",
"23 691 LINE",
"23 602 LINE"
);
}
);
width = 618;
}
);
leftKerningGroup = T;
rightKerningGroup = T;
unicode = 0054;
},
{
glyphname = U;
lastChange = "2025-01-08 15:18:52 +0000";
layers = (
{
anchors = (
{
name = bottom;
position = "{344, 0}";
},
{
name = ogonek;
position = "{423, 0}";
},
{
name = top;
position = "{344, 691}";
},
{
name = topright;
position = "{668, 691}";
}
);
layerId = "B62D1C5F-C6EB-4CFF-8AD4-79D05BEF2DD6";
paths = (
{
closed = 1;
nodes = (
"526 -6 OFFCURVE",
"638 93 OFFCURVE",
"638 254 CURVE SMOOTH",
"638 691 LINE",
"540 691 LINE",
"540 254 LINE SMOOTH",
"540 144 OFFCURVE",
"471 82 OFFCURVE",
"344 82 CURVE SMOOTH",
"218 82 OFFCURVE",
"148 144 OFFCURVE",
"148 254 CURVE SMOOTH",
"148 691 LINE",
"50 691 LINE",
"50 254 LINE SMOOTH",
"50 92 OFFCURVE",
"162 -6 OFFCURVE",
"344 -6 CURVE SMOOTH"
);
}
);
width = 688;
}
);
leftKerningGroup = U;
rightKerningGroup = U;
unicode = 0055;
},
{
glyphname = V;
lastChange = "2025-01-07 21:15:10 +0000";
layers = (
{
anchors = (
{
name = bottom;
position = "{340, 0}";
},
{
name = top;
position = "{340, 691}";
}
);
layerId = "B62D1C5F-C6EB-4CFF-8AD4-79D05BEF2DD6";
paths = (
{
closed = 1;
nodes = (
"289 0 LINE",
"389 0 LINE",
"677 691 LINE",
"567 691 LINE",
"339 124 LINE",
"111 691 LINE",
"2 691 LINE"
);
}
);
width = 679;
}
);
leftKerningGroup = V;
rightKerningGroup = V;
unicode = 0056;
},
{
glyphname = W;
lastChange = "2025-01-07 21:15:10 +0000";
layers = (
{
anchors = (
{
name = bottom;
position = "{480, 0}";
},
{
name = top;
position = "{480, 691}";
}
);
layerId = "B62D1C5F-C6EB-4CFF-8AD4-79D05BEF2DD6";
paths = (
{
closed = 1;
nodes = (
"212 0 LINE",
"321 0 LINE",
"480 551 LINE",
"638 0 LINE",
"748 0 LINE",
"947 691 LINE",
"843 691 LINE",
"692 142 LINE",
"532 691 LINE",
"427 691 LINE",
"267 142 LINE",
"117 691 LINE",
"12 691 LINE"
);
}
);
width = 959;
}
);
leftKerningGroup = W;
rightKerningGroup = W;
unicode = 0057;
},
{
glyphname = X;
lastChange = "2025-01-07 21:15:10 +0000";
layers = (
{
anchors = (
{
name = bottom;
position = "{316, 0}";
},
{
name = top;
position = "{316, 691}";
}
);
layerId = "B62D1C5F-C6EB-4CFF-8AD4-79D05BEF2DD6";
paths = (
{
closed = 1;
nodes = (
"119 0 LINE",
"316 283 LINE",
"513 0 LINE",
"633 0 LINE",
"378 363 LINE",
"612 691 LINE",
"495 691 LINE",
"316 432 LINE",
"137 691 LINE",
"20 691 LINE",
"254 363 LINE",
"-1 0 LINE"
);
}
);
width = 632;
}
);
leftKerningGroup = X;
rightKerningGroup = X;
unicode = 0058;
},
{
glyphname = Y;
lastChange = "2025-01-07 21:15:10 +0000";
layers = (
{
anchors = (
{
name = bottom;
position = "{316, 0}";
},
{
name = top;
position = "{316, 691}";
},
{
name = topleft;
position = "{20, 691}";
}
);
layerId = "B62D1C5F-C6EB-4CFF-8AD4-79D05BEF2DD6";
paths = (
{
closed = 1;
nodes = (
"267 286 LINE",
"267 0 LINE",
"365 0 LINE",
"365 286 LINE",
"621 691 LINE",
"508 691 LINE",
"316 381 LINE",
"124 691 LINE",
"11 691 LINE"
);
}
);
width = 632;
}
);
leftKerningGroup = Y;
rightKerningGroup = Y;
unicode = 0059;
},
{
glyphname = Z;
lastChange = "2025-01-07 21:15:10 +0000";
layers = (
{
anchors = (
{
name = bottom;
position = "{315, 0}";
},
{
name = center;
position = "{315, 346}";
},
{
name = top;
position = "{315, 691}";
}
);
layerId = "B62D1C5F-C6EB-4CFF-8AD4-79D05BEF2DD6";
paths = (
{
closed = 1;
nodes = (
"589 0 LINE",
"589 88 LINE",
"173 88 LINE",
"579 616 LINE",
"579 691 LINE",
"53 691 LINE",
"53 603 LINE",
"446 603 LINE",
"40 75 LINE",
"40 0 LINE"
);
}
);
width = 629;
}
);
leftKerningGroup = Z;
rightKerningGroup = Z;
unicode = 005A;
},
{
glyphname = I.ss01;
lastChange = "2025-01-07 21:15:10 +0000";
layers = (
{
anchors = (
{
name = bottom;
position = "{200, 0}";
},
{
name = ogonek;
position = "{352, 10}";
},
{
name = top;
position = "{200, 691}";
},
{
name = topleft;
position = "{30, 691}";
}
);
layerId = "B62D1C5F-C6EB-4CFF-8AD4-79D05BEF2DD6";
paths = (
{
closed = 1;
nodes = (
"362 0 LINE",
"362 89 LINE",
"249 89 LINE",
"249 602 LINE",
"362 602 LINE",
"362 691 LINE",
"38 691 LINE",
"38 602 LINE",
"151 602 LINE",
"151 89 LINE",
"38 89 LINE",
"38 0 LINE"
);
}
);
width = 400;
}
);
leftKerningGroup = I.ss01;
rightKerningGroup = I.ss01;
},
{
glyphname = a;
lastChange = "2025-01-08 16:48:00 +0000";
layers = (
{
anchors = (
{
name = bottom;
position = "{265, 0}";
},
{
name = ogonek;
position = "{505, 0}";
},
{
name = top;
position = "{233, 500}";
}
);
background = {
paths = (
{
closed = 1;
nodes = (
"259 -6 OFFCURVE",
"319 20 OFFCURVE",
"351 66 CURVE",
"359 20 OFFCURVE",
"391 0 OFFCURVE",
"441 0 CURVE SMOOTH",
"505 0 LINE",
"505 85 LINE",
"438 85 LINE",
"438 347 LINE SMOOTH",
"438 441 OFFCURVE",
"368 506 OFFCURVE",
"244 506 CURVE SMOOTH",
"136 506 OFFCURVE",
"58 455 OFFCURVE",
"38 357 CURVE",
"126 338 LINE",
"134 388 OFFCURVE",
"168 422 OFFCURVE",
"240 422 CURVE SMOOTH",
"300 422 OFFCURVE",
"344 397 OFFCURVE",
"344 338 CURVE SMOOTH",
"344 299 LINE",
"207 285 LINE SMOOTH",
"107 275 OFFCURVE",
"40 226 OFFCURVE",
"40 136 CURVE SMOOTH",
"40 51 OFFCURVE",
"102 -6 OFFCURVE",
"194 -6 CURVE SMOOTH"
);
},
{
closed = 1;
nodes = (
"165 69 OFFCURVE",
"134 94 OFFCURVE",
"134 140 CURVE SMOOTH",
"134 178 OFFCURVE",
"157 207 OFFCURVE",
"216 213 CURVE SMOOTH",
"344 227 LINE",
"344 140 LINE",
"320 95 OFFCURVE",
"273 69 OFFCURVE",
"218 69 CURVE SMOOTH"
);
}
);
};
layerId = "B62D1C5F-C6EB-4CFF-8AD4-79D05BEF2DD6";
paths = (
{
closed = 1;
nodes = (
"259 -6 OFFCURVE",
"320 21 OFFCURVE",
"351 66 CURVE",
"359 20 OFFCURVE",
"391 0 OFFCURVE",
"441 0 CURVE SMOOTH",
"505 0 LINE",
"505 85 LINE",
"438 85 LINE",
"438 347 LINE SMOOTH",
"438 443 OFFCURVE",
"361 506 OFFCURVE",
"239 506 CURVE SMOOTH",
"131 506 OFFCURVE",
"47 452 OFFCURVE",
"28 357 CURVE",
"116 338 LINE",
"124 388 OFFCURVE",
"163 422 OFFCURVE",
"233 422 CURVE SMOOTH",
"300 422 OFFCURVE",
"344 394 OFFCURVE",
"344 338 CURVE SMOOTH",
"344 299 LINE",
"198 285 LINE SMOOTH",
"94 275 OFFCURVE",
"30 224 OFFCURVE",
"30 136 CURVE SMOOTH",
"30 50 OFFCURVE",
"92 -6 OFFCURVE",
"191 -6 CURVE SMOOTH"
);
},
{
closed = 1;
nodes = (
"155 69 OFFCURVE",
"124 94 OFFCURVE",
"124 140 CURVE SMOOTH",
"124 178 OFFCURVE",
"147 207 OFFCURVE",
"206 213 CURVE SMOOTH",
"344 227 LINE",
"344 140 LINE",
"320 95 OFFCURVE",
"273 69 OFFCURVE",
"213 69 CURVE SMOOTH"
);
}
);
width = 530;
}
);
leftKerningGroup = a;
rightKerningGroup = a;
unicode = 0061;
userData = {
KernOnName = a;
};
},
{
glyphname = ae;
lastChange = "2025-01-07 21:15:10 +0000";
layers = (
{
background = {
paths = (
{
closed = 1;
nodes = (
"28 51 OFFCURVE",
"90 -6 OFFCURVE",
"182 -6 CURVE SMOOTH",
"276 -6 OFFCURVE",
"356 48 OFFCURVE",
"382 130 CURVE",
"342 129 LINE",
"373 45 OFFCURVE",
"441 -6 OFFCURVE",
"544 -6 CURVE SMOOTH",
"645 -6 OFFCURVE",
"723 54 OFFCURVE",
"746 147 CURVE",
"658 169 LINE",
"642 115 OFFCURVE",
"604 79 OFFCURVE",
"540 79 CURVE SMOOTH",
"451 79 OFFCURVE",
"419 150 OFFCURVE",
"416 230 CURVE",
"748 230 LINE",
"757 396 OFFCURVE",
"679 506 OFFCURVE",
"538 506 CURVE SMOOTH",
"463 506 OFFCURVE",
"398 468 OFFCURVE",
"375 410 CURVE",
"394 420 LINE",
"366 478 OFFCURVE",
"305 506 OFFCURVE",
"232 506 CURVE SMOOTH",
"132 506 OFFCURVE",
"55 457 OFFCURVE",
"36 359 CURVE",
"123 340 LINE",
"131 390 OFFCURVE",
"164 422 OFFCURVE",
"228 422 CURVE SMOOTH",
"284 422 OFFCURVE",
"321 399 OFFCURVE",
"321 340 CURVE SMOOTH",
"321 298 LINE",
"195 285 LINE SMOOTH",
"95 275 OFFCURVE",
"28 226 OFFCURVE",
"28 136 CURVE SMOOTH"
);
},
{
closed = 1;
nodes = (
"122 178 OFFCURVE",
"145 206 OFFCURVE",
"204 213 CURVE SMOOTH",
"322 226 LINE",
"323 197 OFFCURVE",
"328 170 OFFCURVE",
"335 146 CURVE",
"313 99 OFFCURVE",
"263 69 OFFCURVE",
"206 69 CURVE SMOOTH",
"153 69 OFFCURVE",
"122 94 OFFCURVE",
"122 140 CURVE SMOOTH"
);
},
{
closed = 1;
nodes = (
"434 379 OFFCURVE",
"471 422 OFFCURVE",
"535 422 CURVE SMOOTH",
"605 422 OFFCURVE",
"642 370 OFFCURVE",
"650 305 CURVE",
"420 305 LINE"
);
},
{
closed = 1;
nodes = (
"28 51 OFFCURVE",
"90 -6 OFFCURVE",
"182 -6 CURVE SMOOTH",
"276 -6 OFFCURVE",
"356 48 OFFCURVE",
"382 130 CURVE",
"342 129 LINE",
"373 45 OFFCURVE",
"441 -6 OFFCURVE",
"544 -6 CURVE SMOOTH",
"645 -6 OFFCURVE",
"723 54 OFFCURVE",
"746 147 CURVE",
"658 169 LINE",
"642 115 OFFCURVE",
"604 79 OFFCURVE",
"540 79 CURVE SMOOTH",
"451 79 OFFCURVE",
"419 150 OFFCURVE",
"416 230 CURVE",
"748 230 LINE",
"757 396 OFFCURVE",
"679 506 OFFCURVE",
"538 506 CURVE SMOOTH",
"463 506 OFFCURVE",
"398 468 OFFCURVE",
"375 410 CURVE",
"394 420 LINE",
"366 478 OFFCURVE",
"305 506 OFFCURVE",
"232 506 CURVE SMOOTH",
"132 506 OFFCURVE",
"55 457 OFFCURVE",
"36 359 CURVE",
"123 340 LINE",
"131 390 OFFCURVE",
"164 422 OFFCURVE",
"228 422 CURVE SMOOTH",
"284 422 OFFCURVE",
"321 399 OFFCURVE",
"321 340 CURVE SMOOTH",
"321 298 LINE",
"195 285 LINE SMOOTH",
"95 275 OFFCURVE",
"28 226 OFFCURVE",
"28 136 CURVE SMOOTH"
);
},
{
closed = 1;
nodes = (
"122 178 OFFCURVE",
"145 206 OFFCURVE",
"204 213 CURVE SMOOTH",
"322 226 LINE",
"323 197 OFFCURVE",
"328 170 OFFCURVE",
"335 146 CURVE",
"313 99 OFFCURVE",
"263 69 OFFCURVE",
"206 69 CURVE SMOOTH",
"153 69 OFFCURVE",
"122 94 OFFCURVE",
"122 140 CURVE SMOOTH"
);
},
{
closed = 1;
nodes = (
"434 379 OFFCURVE",
"471 422 OFFCURVE",
"535 422 CURVE SMOOTH",
"605 422 OFFCURVE",
"642 370 OFFCURVE",
"650 305 CURVE",
"420 305 LINE"
);
}
);
};
layerId = "B62D1C5F-C6EB-4CFF-8AD4-79D05BEF2DD6";
paths = (
{
closed = 1;
nodes = (
"260 -6 OFFCURVE",
"330 32 OFFCURVE",
"370 93 CURVE",
"414 31 OFFCURVE",
"487 -6 OFFCURVE",
"578 -6 CURVE SMOOTH",
"696 -6 OFFCURVE",
"787 54 OFFCURVE",
"814 147 CURVE",
"726 169 LINE",
"707 114 OFFCURVE",
"658 78 OFFCURVE",
"576 78 CURVE SMOOTH",
"476 78 OFFCURVE",
"425 144 OFFCURVE",
"418 230 CURVE",
"816 230 LINE",
"825 398 OFFCURVE",
"723 506 OFFCURVE",
"575 506 CURVE SMOOTH",
"500 506 OFFCURVE",
"436 480 OFFCURVE",
"392 435 CURVE",
"361 481 OFFCURVE",
"305 506 OFFCURVE",
"232 506 CURVE SMOOTH",
"131 506 OFFCURVE",
"56 453 OFFCURVE",
"36 359 CURVE",
"123 340 LINE",
"131 390 OFFCURVE",
"164 422 OFFCURVE",
"228 422 CURVE SMOOTH",
"284 422 OFFCURVE",
"321 399 OFFCURVE",
"321 340 CURVE SMOOTH",
"321 298 LINE",
"195 285 LINE SMOOTH",
"95 275 OFFCURVE",
"28 226 OFFCURVE",
"28 136 CURVE SMOOTH",
"28 51 OFFCURVE",
"90 -6 OFFCURVE",
"182 -6 CURVE SMOOTH"
);
},
{
closed = 1;
nodes = (
"153 69 OFFCURVE",
"122 94 OFFCURVE",
"122 140 CURVE SMOOTH",
"122 178 OFFCURVE",
"145 206 OFFCURVE",
"204 213 CURVE SMOOTH",
"322 226 LINE",
"323 197 OFFCURVE",
"328 170 OFFCURVE",
"335 146 CURVE",
"313 99 OFFCURVE",
"263 69 OFFCURVE",
"206 69 CURVE SMOOTH"
);
},
{
closed = 1;
nodes = (
"440 373 OFFCURVE",
"489 422 OFFCURVE",
"573 422 CURVE SMOOTH",
"650 422 OFFCURVE",
"706 375 OFFCURVE",
"714 305 CURVE",
"423 305 LINE"
);
}
);
width = 859;
}
);
leftKerningGroup = ae;
leftMetricsKey = a;
rightKerningGroup = e;
rightMetricsKey = e;
unicode = 00E6;
},
{
glyphname = b;
lastChange = "2025-01-08 16:48:00 +0000";
layers = (
{
anchors = (
{
name = bottom;
position = "{294, 0}";
},
{
name = top;
position = "{294, 800}";
}
);
background = {
paths = (
{
closed = 1;
nodes = (
"433 -6 OFFCURVE",
"517 87 OFFCURVE",
"517 250 CURVE SMOOTH",
"517 413 OFFCURVE",
"433 506 OFFCURVE",
"307 506 CURVE SMOOTH",
"252 506 OFFCURVE",
"197 484 OFFCURVE",
"164 445 CURVE",
"164 691 LINE",
"70 691 LINE",
"70 0 LINE",
"164 0 LINE",
"164 55 LINE",
"197 16 OFFCURVE",
"252 -6 OFFCURVE",
"307 -6 CURVE SMOOTH"
);
},
{
closed = 1;
nodes = (
"230 79 OFFCURVE",
"187 103 OFFCURVE",
"164 141 CURVE",
"164 359 LINE",
"187 397 OFFCURVE",
"230 421 OFFCURVE",
"286 421 CURVE SMOOTH",
"398 421 OFFCURVE",
"422 327 OFFCURVE",
"422 250 CURVE SMOOTH",
"422 173 OFFCURVE",
"398 79 OFFCURVE",
"286 79 CURVE SMOOTH"
);
}
);
};
layerId = "B62D1C5F-C6EB-4CFF-8AD4-79D05BEF2DD6";
paths = (
{
closed = 1;
nodes = (
"447 -6 OFFCURVE",
"543 96 OFFCURVE",
"543 250 CURVE SMOOTH",
"543 404 OFFCURVE",
"447 506 OFFCURVE",
"311 506 CURVE SMOOTH",
"248 506 OFFCURVE",
"195 484 OFFCURVE",
"164 448 CURVE",
"164 691 LINE",
"70 691 LINE",
"70 0 LINE",
"164 0 LINE",
"164 52 LINE",
"195 16 OFFCURVE",
"248 -6 OFFCURVE",
"311 -6 CURVE SMOOTH"
);
},
{
closed = 1;
nodes = (
"240 79 OFFCURVE",
"189 106 OFFCURVE",
"164 150 CURVE",
"164 350 LINE",
"189 394 OFFCURVE",
"240 421 OFFCURVE",
"298 421 CURVE SMOOTH",
"391 421 OFFCURVE",
"448 353 OFFCURVE",
"448 250 CURVE SMOOTH",
"448 147 OFFCURVE",
"391 79 OFFCURVE",
"298 79 CURVE SMOOTH"
);
}
);
width = 588;
}
);
leftKerningGroup = l;
rightKerningGroup = p;
unicode = 0062;
userData = {
KernOnName = b;
};
},
{
glyphname = c;
lastChange = "2025-01-07 21:15:10 +0000";
layers = (
{
anchors = (
{
name = bottom;
position = "{303, 0}";
},
{
name = top;
position = "{303, 500}";
}
);
background = {
paths = (
{
closed = 1;
nodes = (
"407 -6 OFFCURVE",
"490 53 OFFCURVE",
"520 149 CURVE",
"427 170 LINE",
"409 113 OFFCURVE",
"366 79 OFFCURVE",
"301 79 CURVE SMOOTH",
"202 79 OFFCURVE",
"167 158 OFFCURVE",
"167 250 CURVE SMOOTH",
"167 344 OFFCURVE",
"204 422 OFFCURVE",
"301 422 CURVE SMOOTH",
"373 422 OFFCURVE",
"412 379 OFFCURVE",
"427 312 CURVE",
"521 327 LINE",
"497 440 OFFCURVE",
"415 506 OFFCURVE",
"301 506 CURVE SMOOTH",
"151 506 OFFCURVE",
"73 398 OFFCURVE",
"73 250 CURVE SMOOTH",
"73 99 OFFCURVE",
"154 -6 OFFCURVE",
"301 -6 CURVE SMOOTH"
);
}
);
};
guideLines = (
{
position = "{286, -6}";
}
);
layerId = "B62D1C5F-C6EB-4CFF-8AD4-79D05BEF2DD6";
paths = (
{
closed = 1;
nodes = (
"417 -6 OFFCURVE",
"507 53 OFFCURVE",
"540 149 CURVE",
"447 170 LINE",
"427 112 OFFCURVE",
"376 78 OFFCURVE",
"301 78 CURVE SMOOTH",
"191 78 OFFCURVE",
"140 155 OFFCURVE",
"140 250 CURVE SMOOTH",
"140 345 OFFCURVE",
"191 422 OFFCURVE",
"301 422 CURVE SMOOTH",
"384 422 OFFCURVE",
"430 379 OFFCURVE",
"447 312 CURVE",
"541 327 LINE",
"515 440 OFFCURVE",
"425 506 OFFCURVE",
"301 506 CURVE SMOOTH",
"146 506 OFFCURVE",
"45 399 OFFCURVE",
"45 250 CURVE SMOOTH",
"45 101 OFFCURVE",
"146 -6 OFFCURVE",
"301 -6 CURVE SMOOTH"
);
}
);
width = 581;
}
);
leftKerningGroup = e;
leftMetricsKey = o;
rightKerningGroup = c;
unicode = 0063;
},
{
glyphname = d;
lastChange = "2025-01-08 16:48:00 +0000";
layers = (
{
anchors = (
{
name = bottom;
position = "{296, 0}";
},
{
name = center;
position = "{424, 590}";
},
{
name = top;
position = "{471, 691}";
},
{
name = topright;
position = "{563, 691}";
}
);
background = {
paths = (
{
closed = 1;
nodes = (
"320 -6 OFFCURVE",
"375 16 OFFCURVE",
"408 55 CURVE",
"408 0 LINE",
"502 0 LINE",
"502 691 LINE",
"408 691 LINE",
"408 445 LINE",
"375 484 OFFCURVE",
"320 506 OFFCURVE",
"265 506 CURVE SMOOTH",
"139 506 OFFCURVE",
"55 413 OFFCURVE",
"55 250 CURVE SMOOTH",
"55 87 OFFCURVE",
"139 -6 OFFCURVE",
"265 -6 CURVE SMOOTH"
);
},
{
closed = 1;
nodes = (
"174 79 OFFCURVE",
"150 173 OFFCURVE",
"150 250 CURVE SMOOTH",
"150 327 OFFCURVE",
"174 421 OFFCURVE",
"286 421 CURVE SMOOTH",
"342 421 OFFCURVE",
"385 397 OFFCURVE",
"408 359 CURVE",
"408 141 LINE",
"385 103 OFFCURVE",
"342 79 OFFCURVE",
"286 79 CURVE SMOOTH"
);
}
);
};
layerId = "B62D1C5F-C6EB-4CFF-8AD4-79D05BEF2DD6";
paths = (
{
closed = 1;
nodes = (
"340 -6 OFFCURVE",
"393 16 OFFCURVE",
"424 52 CURVE",
"424 0 LINE",
"518 0 LINE",
"518 691 LINE",
"424 691 LINE",
"424 448 LINE",
"393 484 OFFCURVE",
"340 506 OFFCURVE",
"277 506 CURVE SMOOTH",
"141 506 OFFCURVE",
"45 404 OFFCURVE",
"45 250 CURVE SMOOTH",
"45 96 OFFCURVE",
"141 -6 OFFCURVE",
"277 -6 CURVE SMOOTH"
);
},
{
closed = 1;
nodes = (
"197 79 OFFCURVE",
"140 147 OFFCURVE",
"140 250 CURVE SMOOTH",
"140 353 OFFCURVE",
"197 421 OFFCURVE",
"290 421 CURVE SMOOTH",
"348 421 OFFCURVE",
"399 394 OFFCURVE",
"424 350 CURVE",
"424 150 LINE",
"399 106 OFFCURVE",
"348 79 OFFCURVE",
"290 79 CURVE SMOOTH"
);
}
);
width = 588;
}
);
leftKerningGroup = d;
rightKerningGroup = l;
unicode = 0064;
userData = {
KernOnName = d;
};
},
{
glyphname = eth;
lastChange = "2025-01-08 15:07:16 +0000";
layers = (
{
background = {
paths = (
{
closed = 1;
nodes = (
"422 -6 OFFCURVE",
"523 85 OFFCURVE",
"523 221 CURVE SMOOTH",
"523 309 OFFCURVE",
"484 368 OFFCURVE",
"442 438 CURVE SMOOTH",
"290 691 LINE",
"177 691 LINE",
"353 410 LINE",
"364 431 LINE",
"348 443 OFFCURVE",
"315 449 OFFCURVE",
"277 449 CURVE SMOOTH",
"151 449 OFFCURVE",
"43 358 OFFCURVE",
"43 222 CURVE SMOOTH",
"43 86 OFFCURVE",
"140 -6 OFFCURVE",
"283 -6 CURVE SMOOTH"
);
},
{
closed = 1;
nodes = (
"196 81 OFFCURVE",
"141 138 OFFCURVE",
"141 223 CURVE SMOOTH",
"141 309 OFFCURVE",
"198 365 OFFCURVE",
"284 365 CURVE SMOOTH",
"369 365 OFFCURVE",
"426 309 OFFCURVE",
"426 224 CURVE SMOOTH",
"426 138 OFFCURVE",
"369 81 OFFCURVE",
"283 81 CURVE SMOOTH"
);
},
{
closed = 1;
nodes = (
"442 592 LINE",
"442 675 LINE",
"157 572 LINE",
"157 489 LINE"
);
}
);
};
layerId = "B62D1C5F-C6EB-4CFF-8AD4-79D05BEF2DD6";
paths = (
{
closed = 1;
nodes = (
"423 -6 OFFCURVE",
"521 86 OFFCURVE",
"521 221 CURVE SMOOTH",
"521 308 OFFCURVE",
"482 367 OFFCURVE",
"440 437 CURVE SMOOTH",
"288 691 LINE",
"178 691 LINE",
"351 414 LINE",
"361 432 LINE",
"343 443 OFFCURVE",
"314 449 OFFCURVE",
"277 449 CURVE SMOOTH",
"152 449 OFFCURVE",
"45 359 OFFCURVE",
"45 223 CURVE SMOOTH",
"45 85 OFFCURVE",
"141 -6 OFFCURVE",
"283 -6 CURVE SMOOTH"
);
},
{
closed = 1;
nodes = (
"196 79 OFFCURVE",
"139 136 OFFCURVE",
"139 223 CURVE SMOOTH",
"139 310 OFFCURVE",
"197 367 OFFCURVE",
"284 367 CURVE SMOOTH",
"370 367 OFFCURVE",
"428 310 OFFCURVE",
"428 224 CURVE SMOOTH",
"428 137 OFFCURVE",
"370 79 OFFCURVE",
"283 79 CURVE SMOOTH"
);
},
{
closed = 1;
nodes = (
"444 592 LINE",
"444 675 LINE",
"159 572 LINE",
"159 489 LINE"
);
}
);
width = 566;
}
);
leftKerningGroup = eth;
leftMetricsKey = o;
rightKerningGroup = eth;
rightMetricsKey = o;
unicode = 00F0;
},
{
glyphname = e;
lastChange = "2025-01-08 16:48:00 +0000";
layers = (
{
anchors = (
{
name = bottom;
position = "{296, 0}";
},
{
name = ogonek;
position = "{483, 0}";
},
{
name = top;
position = "{296, 500}";
}
);
background = {
paths = (
{
closed = 1;
nodes = (
"392 -6 OFFCURVE",
"475 54 OFFCURVE",
"500 147 CURVE",
"412 169 LINE",
"395 115 OFFCURVE",
"353 79 OFFCURVE",
"279 79 CURVE SMOOTH",
"180 79 OFFCURVE",
"144 150 OFFCURVE",
"141 230 CURVE",
"502 230 LINE",
"512 396 OFFCURVE",
"427 506 OFFCURVE",
"277 506 CURVE SMOOTH",
"129 506 OFFCURVE",
"45 398 OFFCURVE",
"45 249 CURVE SMOOTH",
"45 98 OFFCURVE",
"128 -6 OFFCURVE",
"284 -6 CURVE SMOOTH"
);
},
{
closed = 1;
nodes = (
"150 368 OFFCURVE",
"194 422 OFFCURVE",
"274 422 CURVE SMOOTH",
"361 422 OFFCURVE",
"403 358 OFFCURVE",
"404 282 CURVE",
"443 305 LINE",
"99 305 LINE",
"141 276 LINE"
);
},
{
closed = 1;
nodes = (
"419 -6 OFFCURVE",
"510 54 OFFCURVE",
"537 147 CURVE",
"449 169 LINE",
"430 114 OFFCURVE",
"381 78 OFFCURVE",
"299 78 CURVE SMOOTH",
"191 78 OFFCURVE",
"140 155 OFFCURVE",
"140 250 CURVE SMOOTH",
"140 345 OFFCURVE",
"191 422 OFFCURVE",
"296 422 CURVE SMOOTH",
"373 422 OFFCURVE",
"429 375 OFFCURVE",
"437 305 CURVE",
"110 305 LINE",
"110 230 LINE",
"539 230 LINE",
"548 398 OFFCURVE",
"446 506 OFFCURVE",
"298 506 CURVE SMOOTH",
"146 506 OFFCURVE",
"45 399 OFFCURVE",
"45 250 CURVE SMOOTH",
"45 101 OFFCURVE",
"146 -6 OFFCURVE",
"301 -6 CURVE SMOOTH"
);
}
);
};
layerId = "B62D1C5F-C6EB-4CFF-8AD4-79D05BEF2DD6";
paths = (
{
closed = 1;
nodes = (
"419 -6 OFFCURVE",
"510 54 OFFCURVE",
"537 147 CURVE",
"449 169 LINE",
"430 114 OFFCURVE",
"381 78 OFFCURVE",
"299 78 CURVE SMOOTH",
"199 78 OFFCURVE",
"148 144 OFFCURVE",
"141 230 CURVE",
"539 230 LINE",
"548 398 OFFCURVE",
"446 506 OFFCURVE",
"298 506 CURVE SMOOTH",
"146 506 OFFCURVE",
"45 399 OFFCURVE",
"45 250 CURVE SMOOTH",
"45 101 OFFCURVE",
"146 -6 OFFCURVE",
"301 -6 CURVE SMOOTH"
);
},
{
closed = 1;
nodes = (
"163 374 OFFCURVE",
"212 423 OFFCURVE",
"296 423 CURVE SMOOTH",
"373 423 OFFCURVE",
"429 376 OFFCURVE",
"437 305 CURVE",
"146 305 LINE"
);
}
);
width = 582;
}
);
leftKerningGroup = e;
leftMetricsKey = o;
rightKerningGroup = e;
unicode = 0065;
userData = {
KernOnName = e;
};
},
{
glyphname = f;
lastChange = "2025-01-07 21:15:10 +0000";
layers = (
{
anchors = (
{
name = bottom;
position = "{194, 0}";
},
{
name = top;
position = "{194, 800}";
}
);
background = {
paths = (
{
closed = 1;
nodes = (
"125 415 LINE",
"125 0 LINE",
"220 0 LINE",
"220 415 LINE",
"363 415 LINE",
"363 500 LINE",
"220 500 LINE",
"220 606 LINE",
"382 606 LINE",
"382 691 LINE",
"209 691 LINE SMOOTH",
"155 691 OFFCURVE",
"125 666 OFFCURVE",
"125 611 CURVE SMOOTH",
"125 500 LINE",
"0 500 LINE",
"0 415 LINE"
);
}
);
};
layerId = "B62D1C5F-C6EB-4CFF-8AD4-79D05BEF2DD6";
paths = (
{
closed = 1;
nodes = (
"135 415 LINE",
"135 0 LINE",
"230 0 LINE",
"230 415 LINE",
"363 415 LINE",
"363 500 LINE",
"230 500 LINE",
"230 606 LINE",
"382 606 LINE",
"382 691 LINE",
"219 691 LINE SMOOTH",
"165 691 OFFCURVE",
"135 666 OFFCURVE",
"135 611 CURVE SMOOTH",
"135 500 LINE",
"20 500 LINE",
"20 415 LINE"
);
}
);
width = 407;
}
);
leftKerningGroup = t;
rightKerningGroup = f;
unicode = 0066;
},
{
glyphname = g;
lastChange = "2025-01-08 16:48:00 +0000";
layers = (
{
anchors = (
{
name = bottom;
position = "{284, -200}";
},
{
name = top;
position = "{284, 500}";
}
);
background = {
paths = (
{
closed = 1;
nodes = (
"398 -73 OFFCURVE",
"352 -108 OFFCURVE",
"270 -108 CURVE SMOOTH",
"205 -108 OFFCURVE",
"156 -78 OFFCURVE",
"145 -15 CURVE",
"60 -35 LINE",
"81 -139 OFFCURVE",
"166 -186 OFFCURVE",
"268 -186 CURVE SMOOTH",
"391 -186 OFFCURVE",
"487 -128 OFFCURVE",
"487 2 CURVE SMOOTH",
"487 500 LINE",
"398 500 LINE",
"398 1 LINE SMOOTH"
);
},
{
closed = 1;
nodes = (
"379 478 OFFCURVE",
"335 506 OFFCURVE",
"263 506 CURVE SMOOTH",
"133 506 OFFCURVE",
"46 409 OFFCURVE",
"46 264 CURVE SMOOTH",
"46 118 OFFCURVE",
"132 21 OFFCURVE",
"261 21 CURVE SMOOTH",
"329 21 OFFCURVE",
"381 49 OFFCURVE",
"406 92 CURVE",
"404 175 LINE",
"386 138 OFFCURVE",
"343 105 OFFCURVE",
"275 105 CURVE SMOOTH",
"194 105 OFFCURVE",
"140 156 OFFCURVE",
"140 265 CURVE SMOOTH",
"140 360 OFFCURVE",
"183 423 OFFCURVE",
"275 423 CURVE SMOOTH",
"339 423 OFFCURVE",
"383 395 OFFCURVE",
"405 350 CURVE",
"406 437 LINE"
);
}
);
};
layerId = "B62D1C5F-C6EB-4CFF-8AD4-79D05BEF2DD6";
paths = (
{
closed = 1;
nodes = (
"406 -186 OFFCURVE",
"497 -108 OFFCURVE",
"497 10 CURVE SMOOTH",
"497 500 LINE",
"403 500 LINE",
"403 451 LINE",
"374 484 OFFCURVE",
"324 506 OFFCURVE",
"264 506 CURVE SMOOTH",
"136 506 OFFCURVE",
"45 410 OFFCURVE",
"45 264 CURVE SMOOTH",
"45 118 OFFCURVE",
"136 22 OFFCURVE",
"264 22 CURVE SMOOTH",
"324 22 OFFCURVE",
"374 44 OFFCURVE",
"403 77 CURVE",
"403 7 LINE SMOOTH",
"403 -58 OFFCURVE",
"356 -102 OFFCURVE",
"270 -102 CURVE SMOOTH",
"205 -102 OFFCURVE",
"155 -71 OFFCURVE",
"142 -15 CURVE",
"55 -37 LINE",
"73 -126 OFFCURVE",
"157 -186 OFFCURVE",
"268 -186 CURVE SMOOTH"
);
},
{
closed = 1;
nodes = (
"191 106 OFFCURVE",
"139 169 OFFCURVE",
"139 264 CURVE SMOOTH",
"139 359 OFFCURVE",
"191 422 OFFCURVE",
"277 422 CURVE SMOOTH",
"333 422 OFFCURVE",
"383 394 OFFCURVE",
"403 349 CURVE",
"403 182 LINE",
"385 136 OFFCURVE",
"334 106 OFFCURVE",
"277 106 CURVE SMOOTH"
);
}
);
width = 562;
}
);
leftKerningGroup = g;
rightKerningGroup = g;
unicode = 0067;
userData = {
KernOnName = g;
};
},
{
glyphname = h;
lastChange = "2025-01-08 15:10:49 +0000";
layers = (
{
anchors = (
{
name = bottom;
position = "{273, 0}";
},
{
name = center;
position = "{164, 590}";
},
{
name = top;
position = "{273, 800}";
}
);
background = {
paths = (
{
closed = 1;
nodes = (
"165 0 LINE",
"165 359 LINE",
"187 398 OFFCURVE",
"237 424 OFFCURVE",
"283 424 CURVE SMOOTH",
"334 424 OFFCURVE",
"380 392 OFFCURVE",
"380 310 CURVE SMOOTH",
"380 0 LINE",
"475 0 LINE",
"475 310 LINE SMOOTH",
"475 427 OFFCURVE",
"417 506 OFFCURVE",
"304 506 CURVE SMOOTH",
"254 506 OFFCURVE",
"199 486 OFFCURVE",
"165 444 CURVE",
"165 691 LINE",
"70 691 LINE",
"70 0 LINE"
);
}
);
};
layerId = "B62D1C5F-C6EB-4CFF-8AD4-79D05BEF2DD6";
paths = (
{
closed = 1;
nodes = (
"164 0 LINE",
"164 347 LINE",
"189 393 OFFCURVE",
"237 422 OFFCURVE",
"293 422 CURVE SMOOTH",
"357 422 OFFCURVE",
"401 385 OFFCURVE",
"401 305 CURVE SMOOTH",
"401 0 LINE",
"495 0 LINE",
"495 312 LINE SMOOTH",
"495 428 OFFCURVE",
"427 506 OFFCURVE",
"314 506 CURVE SMOOTH",
"254 506 OFFCURVE",
"202 484 OFFCURVE",
"164 445 CURVE",
"164 691 LINE",
"70 691 LINE",
"70 0 LINE"
);
}
);
width = 565;
}
);
leftKerningGroup = l;
leftMetricsKey = b;
rightKerningGroup = n;
rightMetricsKey = n;
unicode = 0068;
},
{
glyphname = i;
lastChange = "2025-01-08 16:48:00 +0000";
layers = (
{
anchors = (
{
name = bottom;
position = "{117, 0}";
}
);
background = {
paths = (
{
closed = 1;
nodes = (
"274 0 LINE",
"274 85 LINE",
"164 85 LINE",
"164 500 LINE",
"-29 500 LINE",
"-29 415 LINE",
"70 415 LINE",
"70 85 LINE",
"-48 85 LINE",
"-48 0 LINE"
);
},
{
closed = 1;
nodes = (
"51 593 OFFCURVE",
"64 567 OFFCURVE",
"117 567 CURVE SMOOTH",
"157 567 OFFCURVE",
"183 580 OFFCURVE",
"183 632 CURVE SMOOTH",
"183 671 OFFCURVE",
"170 697 OFFCURVE",
"117 697 CURVE SMOOTH",
"77 697 OFFCURVE",
"51 684 OFFCURVE",
"51 632 CURVE SMOOTH"
);
}
);
};
layerId = "B62D1C5F-C6EB-4CFF-8AD4-79D05BEF2DD6";
paths = (
{
closed = 1;
nodes = (
"164 0 LINE",
"164 500 LINE",
"70 500 LINE",
"70 0 LINE"
);
},
{
closed = 1;
nodes = (
"155 571 OFFCURVE",
"182 598 OFFCURVE",
"182 634 CURVE SMOOTH",
"182 670 OFFCURVE",
"155 697 OFFCURVE",
"117 697 CURVE SMOOTH",
"79 697 OFFCURVE",
"52 670 OFFCURVE",
"52 634 CURVE SMOOTH",
"52 598 OFFCURVE",
"79 571 OFFCURVE",
"117 571 CURVE SMOOTH"
);
}
);
width = 234;
}
);
leftKerningGroup = i;
rightKerningGroup = i;
unicode = 0069;
userData = {
KernOnName = i;
};
},
{
glyphname = idotless;
lastChange = "2025-01-07 21:15:10 +0000";
layers = (
{
anchors = (
{
name = bottom;
position = "{117, 0}";
},
{
name = ogonek;
position = "{164, 0}";
},
{
name = top;
position = "{117, 500}";
}
);
layerId = "B62D1C5F-C6EB-4CFF-8AD4-79D05BEF2DD6";
paths = (
{
closed = 1;
nodes = (
"164 0 LINE",
"164 500 LINE",
"70 500 LINE",
"70 0 LINE"
);
}
);
width = 234;
}
);
leftKerningGroup = n;
rightKerningGroup = u;
unicode = 0131;
},
{
glyphname = j;
lastChange = "2025-01-07 21:15:10 +0000";
layers = (
{
layerId = "B62D1C5F-C6EB-4CFF-8AD4-79D05BEF2DD6";
paths = (
{
closed = 1;
nodes = (
"80 -180 LINE SMOOTH",
"134 -180 OFFCURVE",
"164 -156 OFFCURVE",
"164 -100 CURVE SMOOTH",
"164 500 LINE",
"70 500 LINE",
"70 -96 LINE",
"-63 -96 LINE",
"-63 -180 LINE"
);
},
{
closed = 1;
nodes = (
"155 571 OFFCURVE",
"182 598 OFFCURVE",
"182 634 CURVE SMOOTH",
"182 670 OFFCURVE",
"155 697 OFFCURVE",
"117 697 CURVE SMOOTH",
"79 697 OFFCURVE",
"52 670 OFFCURVE",
"52 634 CURVE SMOOTH",
"52 598 OFFCURVE",
"79 571 OFFCURVE",
"117 571 CURVE SMOOTH"
);
}
);
width = 234;
}
);
leftKerningGroup = i;
rightKerningGroup = i;
rightMetricsKey = i;
unicode = 006A;
},
{
glyphname = k;
lastChange = "2025-01-07 21:15:10 +0000";
layers = (
{
anchors = (
{
name = bottom;
position = "{263, 0}";
},
{
name = top;
position = "{263, 800}";
}
);
background = {
paths = (
{
closed = 1;
nodes = (
"163 0 LINE",
"163 141 LINE",
"254 237 LINE",
"402 0 LINE",
"511 0 LINE",
"321 303 LINE",
"505 500 LINE",
"393 500 LINE",
"163 249 LINE",
"163 691 LINE",
"70 691 LINE",
"70 0 LINE"
);
}
);
};
layerId = "B62D1C5F-C6EB-4CFF-8AD4-79D05BEF2DD6";
paths = (
{
closed = 1;
nodes = (
"163 0 LINE",
"163 137 LINE",
"253 232 LINE",
"399 0 LINE",
"511 0 LINE",
"320 303 LINE",
"507 500 LINE",
"395 500 LINE",
"163 252 LINE",
"163 691 LINE",
"70 691 LINE",
"70 0 LINE"
);
}
);
width = 525;
}
);
leftKerningGroup = l;
leftMetricsKey = b;
rightKerningGroup = k;
unicode = 006B;
},
{
glyphname = l;
lastChange = "2025-01-08 15:12:55 +0000";
layers = (
{
anchors = (
{
name = bottom;
position = "{117, 0}";
},
{
name = center;
position = "{117, 341}";
},
{
name = top;
position = "{117, 691}";
},
{
name = topright;
position = "{194, 691}";
}
);
background = {
paths = (
{
closed = 1;
nodes = (
"70 691 LINE",
"70 80 LINE SMOOTH",
"70 24 OFFCURVE",
"100 0 OFFCURVE",
"154 0 CURVE SMOOTH",
"253 0 LINE",
"253 84 LINE",
"164 84 LINE",
"164 691 LINE"
);
}
);
};
layerId = "B62D1C5F-C6EB-4CFF-8AD4-79D05BEF2DD6";
paths = (
{
closed = 1;
nodes = (
"164 0 LINE",
"164 691 LINE",
"70 691 LINE",
"70 0 LINE"
);
}
);
width = 234;
}
);
leftKerningGroup = l;
leftMetricsKey = b;
rightKerningGroup = l;
rightMetricsKey = d;
unicode = 006C;
},
{
glyphname = m;
lastChange = "2025-01-07 21:15:10 +0000";
layers = (
{
anchors = (
{
name = bottom;
position = "{408, 0}";
},
{
name = top;
position = "{408, 500}";
}
);
background = {
paths = (
{
closed = 1;
nodes = (
"155 0 LINE",
"155 359 LINE",
"176 398 OFFCURVE",
"224 424 OFFCURVE",
"268 424 CURVE SMOOTH",
"316 424 OFFCURVE",
"360 392 OFFCURVE",
"360 310 CURVE SMOOTH",
"360 0 LINE",
"455 0 LINE",
"455 310 LINE SMOOTH",
"455 324 OFFCURVE",
"454 337 OFFCURVE",
"453 349 CURVE",
"476 395 OFFCURVE",
"518 424 OFFCURVE",
"568 424 CURVE SMOOTH",
"616 424 OFFCURVE",
"660 392 OFFCURVE",
"660 310 CURVE SMOOTH",
"660 0 LINE",
"755 0 LINE",
"755 310 LINE SMOOTH",
"755 427 OFFCURVE",
"699 506 OFFCURVE",
"589 506 CURVE SMOOTH",
"530 506 OFFCURVE",
"472 480 OFFCURVE",
"432 423 CURVE",
"406 475 OFFCURVE",
"358 506 OFFCURVE",
"289 506 CURVE SMOOTH",
"240 506 OFFCURVE",
"187 486 OFFCURVE",
"155 444 CURVE",
"155 500 LINE",
"60 500 LINE",
"60 0 LINE"
);
}
);
};
layerId = "B62D1C5F-C6EB-4CFF-8AD4-79D05BEF2DD6";
paths = (
{
closed = 1;
nodes = (
"165 0 LINE",
"165 359 LINE",
"187 398 OFFCURVE",
"237 424 OFFCURVE",
"283 424 CURVE SMOOTH",
"334 424 OFFCURVE",
"380 392 OFFCURVE",
"380 310 CURVE SMOOTH",
"380 0 LINE",
"475 0 LINE",
"475 359 LINE",
"497 398 OFFCURVE",
"547 424 OFFCURVE",
"593 424 CURVE SMOOTH",
"644 424 OFFCURVE",
"690 392 OFFCURVE",
"690 310 CURVE SMOOTH",
"690 0 LINE",
"785 0 LINE",
"785 310 LINE SMOOTH",
"785 427 OFFCURVE",
"727 506 OFFCURVE",
"609 506 CURVE SMOOTH",
"551 506 OFFCURVE",
"493 479 OFFCURVE",
"448 428 CURVE",
"421 477 OFFCURVE",
"373 506 OFFCURVE",
"304 506 CURVE SMOOTH",
"254 506 OFFCURVE",
"199 486 OFFCURVE",
"165 444 CURVE",
"165 500 LINE",
"70 500 LINE",
"70 0 LINE"
);
}
);
width = 855;
}
);
leftKerningGroup = n;
leftMetricsKey = n;
rightKerningGroup = n;
rightMetricsKey = n;
unicode = 006D;
},
{
glyphname = n;
lastChange = "2025-01-08 16:48:00 +0000";
layers = (
{
anchors = (
{
name = bottom;
position = "{283, 0}";
},
{
name = top;
position = "{283, 500}";
}
);
background = {
paths = (
{
closed = 1;
nodes = (
"175 0 LINE",
"175 359 LINE",
"197 398 OFFCURVE",
"247 424 OFFCURVE",
"293 424 CURVE SMOOTH",
"344 424 OFFCURVE",
"390 392 OFFCURVE",
"390 310 CURVE SMOOTH",
"390 0 LINE",
"485 0 LINE",
"485 310 LINE SMOOTH",
"485 427 OFFCURVE",
"427 506 OFFCURVE",
"314 506 CURVE SMOOTH",
"264 506 OFFCURVE",
"209 486 OFFCURVE",
"175 444 CURVE",
"175 500 LINE",
"80 500 LINE",
"80 0 LINE"
);
},
{
closed = 1;
nodes = (
"164 0 LINE",
"164 345 LINE",
"190 391 OFFCURVE",
"236 422 OFFCURVE",
"295 422 CURVE SMOOTH",
"359 422 OFFCURVE",
"401 383 OFFCURVE",
"401 303 CURVE SMOOTH",
"401 0 LINE",
"495 0 LINE",
"495 310 LINE SMOOTH",
"495 443 OFFCURVE",
"416 506 OFFCURVE",
"312 506 CURVE SMOOTH",
"255 506 OFFCURVE",
"202 484 OFFCURVE",
"164 443 CURVE",
"164 500 LINE",
"70 500 LINE",
"70 0 LINE"
);
}
);
};
layerId = "B62D1C5F-C6EB-4CFF-8AD4-79D05BEF2DD6";
paths = (
{
closed = 1;
nodes = (
"164 0 LINE",
"164 347 LINE",
"189 393 OFFCURVE",
"237 422 OFFCURVE",
"293 422 CURVE SMOOTH",
"357 422 OFFCURVE",
"401 385 OFFCURVE",
"401 305 CURVE SMOOTH",
"401 0 LINE",
"495 0 LINE",
"495 312 LINE SMOOTH",
"495 428 OFFCURVE",
"427 506 OFFCURVE",
"314 506 CURVE SMOOTH",
"254 506 OFFCURVE",
"202 484 OFFCURVE",
"164 445 CURVE",
"164 500 LINE",
"70 500 LINE",
"70 0 LINE"
);
}
);
width = 565;
}
);
leftKerningGroup = n;
rightKerningGroup = n;
unicode = 006E;
userData = {
KernOnName = n;
};
},
{
glyphname = eng;
lastChange = "2025-01-08 15:12:18 +0000";
layers = (
{
layerId = "B62D1C5F-C6EB-4CFF-8AD4-79D05BEF2DD6";
paths = (
{
closed = 1;
nodes = (
"411 -180 LINE SMOOTH",
"465 -180 OFFCURVE",
"495 -156 OFFCURVE",
"495 -100 CURVE SMOOTH",
"495 312 LINE SMOOTH",
"495 428 OFFCURVE",
"427 506 OFFCURVE",
"314 506 CURVE SMOOTH",
"254 506 OFFCURVE",
"202 484 OFFCURVE",
"164 445 CURVE",
"164 500 LINE",
"70 500 LINE",
"70 0 LINE",
"164 0 LINE",
"164 347 LINE",
"189 393 OFFCURVE",
"237 422 OFFCURVE",
"293 422 CURVE SMOOTH",
"357 422 OFFCURVE",
"401 385 OFFCURVE",
"401 305 CURVE SMOOTH",
"401 -96 LINE",
"268 -96 LINE",
"268 -180 LINE"
);
}
);
width = 565;
}
);
leftKerningGroup = n;
leftMetricsKey = n;
rightKerningGroup = n;
rightMetricsKey = n;
unicode = 014B;
},
{
glyphname = o;
lastChange = "2025-01-08 16:48:00 +0000";
layers = (
{
anchors = (
{
name = bottom;
position = "{301, 0}";
},
{
name = center;
position = "{301, 250}";
},
{
name = ogonek;
position = "{522, 10}";
},
{
name = top;
position = "{301, 500}";
},
{
name = topright;
position = "{556, 500}";
}
);
background = {
paths = (
{
closed = 1;
nodes = (
"73 101 OFFCURVE",
"151 -6 OFFCURVE",
"301 -6 CURVE SMOOTH",
"451 -6 OFFCURVE",
"529 101 OFFCURVE",
"529 250 CURVE SMOOTH",
"529 399 OFFCURVE",
"451 506 OFFCURVE",
"301 506 CURVE SMOOTH",
"151 506 OFFCURVE",
"73 399 OFFCURVE",
"73 250 CURVE SMOOTH"
);
},
{
closed = 1;
nodes = (
"168 345 OFFCURVE",
"205 422 OFFCURVE",
"301 422 CURVE SMOOTH",
"397 422 OFFCURVE",
"434 345 OFFCURVE",
"434 250 CURVE SMOOTH",
"434 155 OFFCURVE",
"397 78 OFFCURVE",
"301 78 CURVE SMOOTH",
"205 78 OFFCURVE",
"168 155 OFFCURVE",
"168 250 CURVE SMOOTH"
);
}
);
};
layerId = "B62D1C5F-C6EB-4CFF-8AD4-79D05BEF2DD6";
paths = (
{
closed = 1;
nodes = (
"45 101 OFFCURVE",
"146 -6 OFFCURVE",
"301 -6 CURVE SMOOTH",
"456 -6 OFFCURVE",
"557 101 OFFCURVE",
"557 250 CURVE SMOOTH",
"557 399 OFFCURVE",
"456 506 OFFCURVE",
"301 506 CURVE SMOOTH",
"146 506 OFFCURVE",
"45 399 OFFCURVE",
"45 250 CURVE SMOOTH"
);
},
{
closed = 1;
nodes = (
"140 345 OFFCURVE",
"191 422 OFFCURVE",
"301 422 CURVE SMOOTH",
"411 422 OFFCURVE",
"462 345 OFFCURVE",
"462 250 CURVE SMOOTH",
"462 155 OFFCURVE",
"411 78 OFFCURVE",
"301 78 CURVE SMOOTH",
"191 78 OFFCURVE",
"140 155 OFFCURVE",
"140 250 CURVE SMOOTH"
);
}
);
width = 602;
}
);
leftKerningGroup = e;
rightKerningGroup = o;
unicode = 006F;
userData = {
KernOnName = o;
};
},
{
glyphname = oslash;
lastChange = "2025-01-07 21:15:10 +0000";
layers = (
{
components = (
{
name = o;
}
);
layerId = "B62D1C5F-C6EB-4CFF-8AD4-79D05BEF2DD6";
paths = (
{
closed = 1;
nodes = (
"44 47 LINE",
"96 -6 LINE",
"556 455 LINE",
"504 507 LINE"
);
}
);
width = 602;
}
);
leftKerningGroup = oslash;
unicode = 00F8;
},
{
glyphname = p;
lastChange = "2025-01-08 16:48:00 +0000";
layers = (
{
anchors = (
{
name = bottom;
position = "{294, 0}";
},
{
name = top;
position = "{294, 500}";
}
);
background = {
paths = (
{
closed = 1;
nodes = (
"164 -180 LINE",
"164 55 LINE",
"197 16 OFFCURVE",
"252 -6 OFFCURVE",
"307 -6 CURVE SMOOTH",
"433 -6 OFFCURVE",
"517 87 OFFCURVE",
"517 250 CURVE SMOOTH",
"517 413 OFFCURVE",
"433 506 OFFCURVE",
"307 506 CURVE SMOOTH",
"252 506 OFFCURVE",
"197 484 OFFCURVE",
"164 445 CURVE",
"164 500 LINE",
"70 500 LINE",
"70 -180 LINE"
);
},
{
closed = 1;
nodes = (
"230 79 OFFCURVE",
"187 103 OFFCURVE",
"164 141 CURVE",
"164 359 LINE",
"187 397 OFFCURVE",
"230 421 OFFCURVE",
"286 421 CURVE SMOOTH",
"398 421 OFFCURVE",
"422 327 OFFCURVE",
"422 250 CURVE SMOOTH",
"422 173 OFFCURVE",
"398 79 OFFCURVE",
"286 79 CURVE SMOOTH"
);
}
);
};
layerId = "B62D1C5F-C6EB-4CFF-8AD4-79D05BEF2DD6";
paths = (
{
closed = 1;
nodes = (
"164 -180 LINE",
"164 52 LINE",
"195 16 OFFCURVE",
"248 -6 OFFCURVE",
"311 -6 CURVE SMOOTH",
"447 -6 OFFCURVE",
"543 96 OFFCURVE",
"543 250 CURVE SMOOTH",
"543 404 OFFCURVE",
"447 506 OFFCURVE",
"311 506 CURVE SMOOTH",
"248 506 OFFCURVE",
"195 484 OFFCURVE",
"164 448 CURVE",
"164 500 LINE",
"70 500 LINE",
"70 -180 LINE"
);
},
{
closed = 1;
nodes = (
"240 79 OFFCURVE",
"189 106 OFFCURVE",
"164 150 CURVE",
"164 350 LINE",
"189 394 OFFCURVE",
"240 421 OFFCURVE",
"298 421 CURVE SMOOTH",
"391 421 OFFCURVE",
"448 353 OFFCURVE",
"448 250 CURVE SMOOTH",
"448 147 OFFCURVE",
"391 79 OFFCURVE",
"298 79 CURVE SMOOTH"
);
}
);
width = 588;
}
);
leftKerningGroup = n;
leftMetricsKey = n;
rightKerningGroup = p;
rightMetricsKey = b;
unicode = 0070;
userData = {
KernOnName = p;
};
},
{
glyphname = thorn;
lastChange = "2025-01-08 16:50:15 +0000";
layers = (
{
layerId = "B62D1C5F-C6EB-4CFF-8AD4-79D05BEF2DD6";
paths = (
{
closed = 1;
nodes = (
"164 -180 LINE",
"164 52 LINE",
"195 16 OFFCURVE",
"248 -6 OFFCURVE",
"311 -6 CURVE SMOOTH",
"447 -6 OFFCURVE",
"543 96 OFFCURVE",
"543 250 CURVE SMOOTH",
"543 404 OFFCURVE",
"447 506 OFFCURVE",
"311 506 CURVE SMOOTH",
"248 506 OFFCURVE",
"195 484 OFFCURVE",
"164 448 CURVE",
"164 691 LINE",
"70 691 LINE",
"70 -180 LINE"
);
},
{
closed = 1;
nodes = (
"240 79 OFFCURVE",
"189 106 OFFCURVE",
"164 150 CURVE",
"164 350 LINE",
"189 394 OFFCURVE",
"240 421 OFFCURVE",
"298 421 CURVE SMOOTH",
"391 421 OFFCURVE",
"448 353 OFFCURVE",
"448 250 CURVE SMOOTH",
"448 147 OFFCURVE",
"391 79 OFFCURVE",
"298 79 CURVE SMOOTH"
);
}
);
width = 588;
}
);
leftKerningGroup = l;
leftMetricsKey = b;
rightKerningGroup = p;
rightMetricsKey = p;
unicode = 00FE;
},
{
glyphname = q;
lastChange = "2025-01-07 21:15:10 +0000";
layers = (
{
anchors = (
{
name = bottom;
position = "{294, 0}";
},
{
name = top;
position = "{294, 500}";
}
);
background = {
paths = (
{
closed = 1;
nodes = (
"492 -180 LINE",
"492 500 LINE",
"398 500 LINE",
"398 445 LINE",
"365 484 OFFCURVE",
"310 506 OFFCURVE",
"255 506 CURVE SMOOTH",
"129 506 OFFCURVE",
"45 413 OFFCURVE",
"45 250 CURVE SMOOTH",
"45 87 OFFCURVE",
"129 -6 OFFCURVE",
"255 -6 CURVE SMOOTH",
"310 -6 OFFCURVE",
"365 16 OFFCURVE",
"398 55 CURVE",
"398 -180 LINE"
);
},
{
closed = 1;
nodes = (
"164 79 OFFCURVE",
"140 173 OFFCURVE",
"140 250 CURVE SMOOTH",
"140 327 OFFCURVE",
"164 421 OFFCURVE",
"276 421 CURVE SMOOTH",
"332 421 OFFCURVE",
"375 397 OFFCURVE",
"398 359 CURVE",
"398 141 LINE",
"375 103 OFFCURVE",
"332 79 OFFCURVE",
"276 79 CURVE SMOOTH"
);
}
);
};
layerId = "B62D1C5F-C6EB-4CFF-8AD4-79D05BEF2DD6";
paths = (
{
closed = 1;
nodes = (
"518 -180 LINE",
"518 500 LINE",
"424 500 LINE",
"424 448 LINE",
"393 484 OFFCURVE",
"340 506 OFFCURVE",
"277 506 CURVE SMOOTH",
"141 506 OFFCURVE",
"45 404 OFFCURVE",
"45 250 CURVE SMOOTH",
"45 96 OFFCURVE",
"141 -6 OFFCURVE",
"277 -6 CURVE SMOOTH",
"340 -6 OFFCURVE",
"393 16 OFFCURVE",
"424 52 CURVE",
"424 -180 LINE"
);
},
{
closed = 1;
nodes = (
"197 79 OFFCURVE",
"140 147 OFFCURVE",
"140 250 CURVE SMOOTH",
"140 353 OFFCURVE",
"197 421 OFFCURVE",
"290 421 CURVE SMOOTH",
"348 421 OFFCURVE",
"399 394 OFFCURVE",
"424 350 CURVE",
"424 150 LINE",
"399 106 OFFCURVE",
"348 79 OFFCURVE",
"290 79 CURVE SMOOTH"
);
}
);
width = 588;
}
);
leftKerningGroup = d;
rightKerningGroup = u;
unicode = 0071;
},
{
glyphname = r;
lastChange = "2025-01-08 16:50:46 +0000";
layers = (
{
anchors = (
{
name = bottom;
position = "{117, 0}";
},
{
name = top;
position = "{204, 500}";
}
);
background = {
paths = (
{
closed = 1;
nodes = (
"164 0 LINE",
"164 342 LINE",
"204 392 OFFCURVE",
"246 411 OFFCURVE",
"310 411 CURVE SMOOTH",
"319 411 OFFCURVE",
"328 410 OFFCURVE",
"337 409 CURVE",
"337 502 LINE",
"327 504 OFFCURVE",
"315 505 OFFCURVE",
"305 505 CURVE SMOOTH",
"250 505 OFFCURVE",
"204 483 OFFCURVE",
"164 428 CURVE",
"164 500 LINE",
"70 500 LINE",
"70 0 LINE"
);
}
);
};
layerId = "B62D1C5F-C6EB-4CFF-8AD4-79D05BEF2DD6";
paths = (
{
closed = 1;
nodes = (
"164 0 LINE",
"164 345 LINE",
"186 385 OFFCURVE",
"223 404 OFFCURVE",
"277 404 CURVE SMOOTH",
"338 404 LINE",
"338 500 LINE",
"290 500 LINE SMOOTH",
"220 500 OFFCURVE",
"187 468 OFFCURVE",
"164 431 CURVE",
"164 500 LINE",
"70 500 LINE",
"70 0 LINE"
);
}
);
width = 353;
}
);
leftKerningGroup = n;
leftMetricsKey = n;
rightKerningGroup = r;
unicode = 0072;
},
{
glyphname = s;
lastChange = "2025-01-07 21:15:10 +0000";
layers = (
{
anchors = (
{
name = bottom;
position = "{245, 0}";
},
{
name = top;
position = "{245, 500}";
}
);
background = {
paths = (
{
closed = 1;
nodes = (
"362 -6 OFFCURVE",
"438 52 OFFCURVE",
"438 150 CURVE SMOOTH",
"438 226 OFFCURVE",
"390 271 OFFCURVE",
"324 288 CURVE SMOOTH",
"231 307 LINE SMOOTH",
"202 315 OFFCURVE",
"177 331 OFFCURVE",
"177 366 CURVE SMOOTH",
"177 402 OFFCURVE",
"203 426 OFFCURVE",
"257 426 CURVE SMOOTH",
"314 426 OFFCURVE",
"341 396 OFFCURVE",
"346 354 CURVE",
"434 372 LINE",
"424 452 OFFCURVE",
"358 506 OFFCURVE",
"259 506 CURVE SMOOTH",
"158 506 OFFCURVE",
"85 449 OFFCURVE",
"85 363 CURVE SMOOTH",
"85 288 OFFCURVE",
"133 245 OFFCURVE",
"204 226 CURVE SMOOTH",
"291 208 LINE SMOOTH",
"317 201 OFFCURVE",
"344 181 OFFCURVE",
"344 144 CURVE SMOOTH",
"344 103 OFFCURVE",
"314 75 OFFCURVE",
"251 75 CURVE SMOOTH",
"189 75 OFFCURVE",
"158 105 OFFCURVE",
"151 160 CURVE",
"60 148 LINE",
"69 56 OFFCURVE",
"138 -6 OFFCURVE",
"251 -6 CURVE SMOOTH"
);
}
);
};
layerId = "B62D1C5F-C6EB-4CFF-8AD4-79D05BEF2DD6";
paths = (
{
closed = 1;
nodes = (
"359 -6 OFFCURVE",
"438 50 OFFCURVE",
"438 147 CURVE SMOOTH",
"438 242 OFFCURVE",
"369 282 OFFCURVE",
"294 294 CURVE SMOOTH",
"230 304 LINE SMOOTH",
"181 312 OFFCURVE",
"157 331 OFFCURVE",
"157 365 CURVE SMOOTH",
"157 402 OFFCURVE",
"185 426 OFFCURVE",
"243 426 CURVE SMOOTH",
"296 426 OFFCURVE",
"335 404 OFFCURVE",
"346 354 CURVE",
"432 372 LINE",
"415 455 OFFCURVE",
"347 506 OFFCURVE",
"243 506 CURVE SMOOTH",
"137 506 OFFCURVE",
"65 449 OFFCURVE",
"65 359 CURVE SMOOTH",
"65 279 OFFCURVE",
"121 235 OFFCURVE",
"204 222 CURVE SMOOTH",
"273 211 LINE SMOOTH",
"319 204 OFFCURVE",
"344 181 OFFCURVE",
"344 144 CURVE SMOOTH",
"344 103 OFFCURVE",
"312 75 OFFCURVE",
"246 75 CURVE SMOOTH",
"181 75 OFFCURVE",
"139 102 OFFCURVE",
"131 160 CURVE",
"40 148 LINE",
"50 54 OFFCURVE",
"125 -6 OFFCURVE",
"244 -6 CURVE SMOOTH"
);
}
);
width = 483;
}
);
leftKerningGroup = s;
rightKerningGroup = s;
unicode = 0073;
},
{
glyphname = germandbls;
lastChange = "2025-01-07 21:15:10 +0000";
layers = (
{
layerId = "B62D1C5F-C6EB-4CFF-8AD4-79D05BEF2DD6";
paths = (
{
closed = 1;
nodes = (
"473 -6 OFFCURVE",
"568 70 OFFCURVE",
"568 191 CURVE SMOOTH",
"568 291 OFFCURVE",
"502 361 OFFCURVE",
"418 375 CURVE",
"468 403 OFFCURVE",
"497 455 OFFCURVE",
"497 517 CURVE SMOOTH",
"497 625 OFFCURVE",
"412 697 OFFCURVE",
"294 697 CURVE SMOOTH",
"163 697 OFFCURVE",
"70 604 OFFCURVE",
"70 475 CURVE SMOOTH",
"70 0 LINE",
"164 0 LINE",
"164 479 LINE SMOOTH",
"164 560 OFFCURVE",
"217 614 OFFCURVE",
"292 614 CURVE SMOOTH",
"360 614 OFFCURVE",
"406 569 OFFCURVE",
"406 505 CURVE SMOOTH",
"406 441 OFFCURVE",
"364 399 OFFCURVE",
"301 399 CURVE SMOOTH",
"277 399 LINE",
"277 316 LINE",
"339 316 LINE SMOOTH",
"418 316 OFFCURVE",
"474 276 OFFCURVE",
"474 198 CURVE SMOOTH",
"474 125 OFFCURVE",
"425 78 OFFCURVE",
"351 78 CURVE SMOOTH",
"317 78 OFFCURVE",
"286 88 OFFCURVE",
"265 112 CURVE",
"204 47 LINE",
"236 12 OFFCURVE",
"288 -6 OFFCURVE",
"349 -6 CURVE SMOOTH"
);
}
);
width = 604;
}
);
leftKerningGroup = n;
leftMetricsKey = b;
rightKerningGroup = germandbls;
rightMetricsKey = S;
unicode = 00DF;
},
{
glyphname = t;
lastChange = "2025-01-08 16:48:00 +0000";
layers = (
{
anchors = (
{
name = bottom;
position = "{252, 0}";
},
{
name = center;
position = "{194, 250}";
},
{
name = top;
position = "{194, 500}";
},
{
name = topright;
position = "{267, 800}";
}
);
background = {
paths = (
{
closed = 1;
nodes = (
"342 85 LINE",
"226 85 LINE",
"226 671 LINE",
"132 661 LINE",
"132 80 LINE",
"132 25 OFFCURVE",
"162 0 OFFCURVE",
"216 0 CURVE",
"342 0 LINE"
);
},
{
closed = 1;
nodes = (
"352 415 LINE",
"352 500 LINE",
"20 500 LINE",
"20 415 LINE"
);
}
);
};
layerId = "B62D1C5F-C6EB-4CFF-8AD4-79D05BEF2DD6";
paths = (
{
closed = 1;
nodes = (
"362 0 LINE",
"362 85 LINE",
"226 85 LINE",
"226 671 LINE",
"132 661 LINE",
"132 80 LINE SMOOTH",
"132 25 OFFCURVE",
"162 0 OFFCURVE",
"216 0 CURVE SMOOTH"
);
},
{
closed = 1;
nodes = (
"362 415 LINE",
"362 500 LINE",
"20 500 LINE",
"20 415 LINE"
);
}
);
width = 397;
}
);
leftKerningGroup = t;
rightKerningGroup = t;
unicode = 0074;
userData = {
KernOnName = t;
};
},
{
glyphname = tbar;
lastChange = "2025-01-08 15:16:28 +0000";
layers = (
{
layerId = "B62D1C5F-C6EB-4CFF-8AD4-79D05BEF2DD6";
paths = (
{
closed = 1;
nodes = (
"362 0 LINE",
"362 85 LINE",
"226 85 LINE",
"226 671 LINE",
"132 661 LINE",
"132 80 LINE SMOOTH",
"132 25 OFFCURVE",
"162 0 OFFCURVE",
"216 0 CURVE SMOOTH"
);
},
{
closed = 1;
nodes = (
"362 224 LINE",
"362 309 LINE",
"20 309 LINE",
"20 224 LINE"
);
},
{
closed = 1;
nodes = (
"362 415 LINE",
"362 500 LINE",
"20 500 LINE",
"20 415 LINE"
);
}
);
width = 397;
}
);
leftMetricsKey = t;
rightMetricsKey = t;
unicode = 0167;
},
{
glyphname = u;
lastChange = "2025-01-07 21:15:10 +0000";
layers = (
{
anchors = (
{
name = bottom;
position = "{274, 0}";
},
{
name = ogonek;
position = "{495, 0}";
},
{
name = top;
position = "{274, 500}";
},
{
name = topright;
position = "{495, 500}";
}
);
background = {
paths = (
{
closed = 1;
nodes = (
"295 -6 OFFCURVE",
"353 13 OFFCURVE",
"389 55 CURVE",
"389 141 LINE",
"366 101 OFFCURVE",
"313 75 OFFCURVE",
"264 75 CURVE SMOOTH",
"209 75 OFFCURVE",
"159 107 OFFCURVE",
"159 190 CURVE SMOOTH",
"159 500 LINE",
"65 500 LINE",
"65 190 LINE SMOOTH",
"65 73 OFFCURVE",
"124 -6 OFFCURVE",
"242 -6 CURVE SMOOTH"
);
},
{
closed = 1;
nodes = (
"483 0 LINE",
"483 500 LINE",
"389 500 LINE",
"389 0 LINE"
);
}
);
};
layerId = "B62D1C5F-C6EB-4CFF-8AD4-79D05BEF2DD6";
paths = (
{
closed = 1;
nodes = (
"311 -6 OFFCURVE",
"363 16 OFFCURVE",
"401 55 CURVE",
"401 0 LINE",
"495 0 LINE",
"495 500 LINE",
"401 500 LINE",
"401 153 LINE",
"376 107 OFFCURVE",
"328 78 OFFCURVE",
"272 78 CURVE SMOOTH",
"208 78 OFFCURVE",
"164 115 OFFCURVE",
"164 195 CURVE SMOOTH",
"164 500 LINE",
"70 500 LINE",
"70 188 LINE SMOOTH",
"70 72 OFFCURVE",
"138 -6 OFFCURVE",
"251 -6 CURVE SMOOTH"
);
}
);
width = 565;
}
);
leftKerningGroup = u;
leftMetricsKey = u;
rightKerningGroup = u;
rightMetricsKey = u;
unicode = 0075;
},
{
glyphname = v;
lastChange = "2025-01-08 16:48:00 +0000";
layers = (
{
anchors = (
{
name = bottom;
position = "{279, 0}";
},
{
name = top;
position = "{279, 500}";
}
);
background = {
paths = (
{
closed = 1;
nodes = (
"327 0 LINE",
"508 500 LINE",
"410 500 LINE",
"263 62 LINE",
"295 62 LINE",
"147 500 LINE",
"49 500 LINE",
"230 0 LINE"
);
}
);
};
layerId = "B62D1C5F-C6EB-4CFF-8AD4-79D05BEF2DD6";
paths = (
{
closed = 1;
nodes = (
"327 0 LINE",
"532 500 LINE",
"430 500 LINE",
"260 62 LINE",
"298 62 LINE",
"127 500 LINE",
"25 500 LINE",
"230 0 LINE"
);
}
);
width = 557;
}
);
leftKerningGroup = v;
rightKerningGroup = v;
unicode = 0076;
userData = {
KernOnName = v;
};
},
{
glyphname = w;
lastChange = "2025-01-07 21:15:10 +0000";
layers = (
{
anchors = (
{
name = bottom;
position = "{362, 0}";
},
{
name = top;
position = "{362, 500}";
}
);
background = {
paths = (
{
closed = 1;
nodes = (
"172 0 LINE",
"269 0 LINE",
"313 160 LINE SMOOTH",
"341 260 OFFCURVE",
"364 365 OFFCURVE",
"372 422 CURVE",
"352 422 LINE",
"361 361 OFFCURVE",
"384 256 OFFCURVE",
"411 160 CURVE SMOOTH",
"455 0 LINE",
"552 0 LINE",
"709 500 LINE",
"611 500 LINE",
"526 205 LINE SMOOTH",
"509 146 OFFCURVE",
"495 87 OFFCURVE",
"493 59 CURVE",
"514 54 LINE",
"506 105 OFFCURVE",
"487 190 OFFCURVE",
"466 266 CURVE SMOOTH",
"401 500 LINE",
"321 500 LINE",
"257 266 LINE SMOOTH",
"233 178 OFFCURVE",
"214 93 OFFCURVE",
"208 54 CURVE",
"231 59 LINE",
"229 84 OFFCURVE",
"217 141 OFFCURVE",
"199 202 CURVE SMOOTH",
"113 500 LINE",
"15 500 LINE"
);
}
);
};
layerId = "B62D1C5F-C6EB-4CFF-8AD4-79D05BEF2DD6";
paths = (
{
closed = 1;
nodes = (
"269 0 LINE",
"362 345 LINE",
"455 0 LINE",
"552 0 LINE",
"709 500 LINE",
"611 500 LINE",
"505 122 LINE",
"401 500 LINE",
"321 500 LINE",
"220 121 LINE",
"113 500 LINE",
"15 500 LINE",
"172 0 LINE"
);
}
);
width = 724;
}
);
leftKerningGroup = w;
rightKerningGroup = w;
unicode = 0077;
},
{
glyphname = x;
lastChange = "2025-01-08 16:48:00 +0000";
layers = (
{
anchors = (
{
name = bottom;
position = "{272, 0}";
},
{
name = top;
position = "{272, 500}";
}
);
background = {
paths = (
{
closed = 1;
nodes = (
"152 0 LINE",
"272 179 LINE",
"391 0 LINE",
"501 0 LINE",
"327 251 LINE",
"497 500 LINE",
"387 500 LINE",
"272 317 LINE",
"156 500 LINE",
"46 500 LINE",
"216 251 LINE",
"42 0 LINE"
);
}
);
};
layerId = "B62D1C5F-C6EB-4CFF-8AD4-79D05BEF2DD6";
paths = (
{
closed = 1;
nodes = (
"129 0 LINE",
"270 196 LINE",
"409 0 LINE",
"520 0 LINE",
"330 265 LINE",
"500 500 LINE",
"391 500 LINE",
"272 330 LINE",
"153 500 LINE",
"43 500 LINE",
"215 263 LINE",
"23 0 LINE"
);
}
);
width = 543;
}
);
leftKerningGroup = x;
rightKerningGroup = x;
unicode = 0078;
userData = {
KernOnName = x;
};
},
{
color = 3;
glyphname = y;
lastChange = "2025-01-07 21:15:10 +0000";
layers = (
{
anchors = (
{
name = bottom;
position = "{231, 0}";
},
{
name = top;
position = "{255, 500}";
}
);
background = {
paths = (
{
closed = 1;
nodes = (
"207 -3 LINE",
"173 -96 LINE",
"67 -96 LINE",
"67 -180 LINE",
"160 -180 LINE SMOOTH",
"211 -180 OFFCURVE",
"244 -160 OFFCURVE",
"261 -114 CURVE SMOOTH",
"484 500 LINE",
"386 500 LINE",
"255 110 LINE",
"123 500 LINE",
"25 500 LINE"
);
},
{
closed = 1;
nodes = (
"167 -200 LINE",
"493 500 LINE",
"388 500 LINE",
"253 193 LINE",
"119 500 LINE",
"13 500 LINE",
"201 91 LINE",
"63 -200 LINE"
);
}
);
};
layerId = "B62D1C5F-C6EB-4CFF-8AD4-79D05BEF2DD6";
paths = (
{
closed = 1;
nodes = (
"176 -180 LINE",
"493 500 LINE",
"388 500 LINE",
"253 193 LINE",
"119 500 LINE",
"13 500 LINE",
"201 91 LINE",
"73 -180 LINE"
);
}
);
width = 509;
}
);
leftKerningGroup = y;
rightKerningGroup = y;
unicode = 0079;
},
{
glyphname = z;
lastChange = "2025-01-08 16:48:00 +0000";
layers = (
{
anchors = (
{
name = bottom;
position = "{248, 0}";
},
{
name = center;
position = "{248, 250}";
},
{
name = top;
position = "{248, 500}";
}
);
background = {
paths = (
{
closed = 1;
nodes = (
"446 0 LINE",
"446 85 LINE",
"163 85 LINE",
"439 437 LINE",
"439 500 LINE",
"59 500 LINE",
"59 415 LINE",
"315 415 LINE",
"40 63 LINE",
"40 0 LINE"
);
}
);
};
layerId = "B62D1C5F-C6EB-4CFF-8AD4-79D05BEF2DD6";
paths = (
{
closed = 1;
nodes = (
"456 0 LINE",
"456 85 LINE",
"166 85 LINE",
"449 437 LINE",
"449 500 LINE",
"50 500 LINE",
"50 415 LINE",
"321 415 LINE",
"40 63 LINE",
"40 0 LINE"
);
}
);
width = 496;
}
);
leftKerningGroup = z;
rightKerningGroup = z;
unicode = 007A;
userData = {
KernOnName = z;
};
},
{
glyphname = i.ss01;
lastChange = "2025-01-07 21:15:10 +0000";
layers = (
{
anchors = (
{
name = bottom;
position = "{194, 0}";
}
);
background = {
paths = (
{
closed = 1;
nodes = (
"362 0 LINE",
"362 85 LINE",
"252 85 LINE",
"252 500 LINE",
"59 500 LINE",
"59 415 LINE",
"158 415 LINE",
"158 85 LINE",
"40 85 LINE",
"40 0 LINE"
);
},
{
closed = 1;
nodes = (
"139 593 OFFCURVE",
"152 567 OFFCURVE",
"205 567 CURVE SMOOTH",
"245 567 OFFCURVE",
"271 580 OFFCURVE",
"271 632 CURVE SMOOTH",
"271 671 OFFCURVE",
"258 697 OFFCURVE",
"205 697 CURVE SMOOTH",
"165 697 OFFCURVE",
"139 684 OFFCURVE",
"139 632 CURVE SMOOTH"
);
}
);
};
layerId = "B62D1C5F-C6EB-4CFF-8AD4-79D05BEF2DD6";
paths = (
{
closed = 1;
nodes = (
"362 0 LINE",
"362 85 LINE",
"252 85 LINE",
"252 500 LINE",
"59 500 LINE",
"59 415 LINE",
"158 415 LINE",
"158 85 LINE",
"40 85 LINE",
"40 0 LINE"
);
},
{
closed = 1;
nodes = (
"244 567 OFFCURVE",
"272 595 OFFCURVE",
"272 632 CURVE SMOOTH",
"272 669 OFFCURVE",
"244 697 OFFCURVE",
"205 697 CURVE SMOOTH",
"166 697 OFFCURVE",
"138 669 OFFCURVE",
"138 632 CURVE SMOOTH",
"138 595 OFFCURVE",
"166 567 OFFCURVE",
"205 567 CURVE SMOOTH"
);
}
);
width = 387;
}
);
leftKerningGroup = i.ss01;
rightKerningGroup = i.ss01;
},
{
glyphname = idotless.ss01;
lastChange = "2025-01-07 21:15:10 +0000";
layers = (
{
anchors = (
{
name = bottom;
position = "{203, 0}";
},
{
name = ogonek;
position = "{352, 10}";
},
{
name = top;
position = "{209, 500}";
}
);
layerId = "B62D1C5F-C6EB-4CFF-8AD4-79D05BEF2DD6";
paths = (
{
closed = 1;
nodes = (
"252 50 LINE",
"252 500 LINE",
"158 500 LINE",
"158 50 LINE"
);
},
{
closed = 1;
nodes = (
"362 0 LINE",
"362 85 LINE",
"40 85 LINE",
"40 0 LINE"
);
},
{
closed = 1;
nodes = (
"218 415 LINE",
"218 500 LINE",
"59 500 LINE",
"59 415 LINE"
);
}
);
width = 402;
}
);
leftKerningGroup = i.ss01;
rightKerningGroup = idotless.ss01;
},
{
glyphname = j.ss01;
lastChange = "2025-01-07 21:15:10 +0000";
layers = (
{
layerId = "B62D1C5F-C6EB-4CFF-8AD4-79D05BEF2DD6";
paths = (
{
closed = 1;
nodes = (
"139 -180 LINE SMOOTH",
"193 -180 OFFCURVE",
"223 -156 OFFCURVE",
"223 -100 CURVE SMOOTH",
"223 500 LINE",
"30 500 LINE",
"30 415 LINE",
"129 415 LINE",
"129 -96 LINE",
"-23 -96 LINE",
"-23 -180 LINE"
);
},
{
closed = 1;
nodes = (
"215 567 OFFCURVE",
"243 595 OFFCURVE",
"243 632 CURVE SMOOTH",
"243 669 OFFCURVE",
"215 697 OFFCURVE",
"176 697 CURVE SMOOTH",
"137 697 OFFCURVE",
"109 669 OFFCURVE",
"109 632 CURVE SMOOTH",
"109 595 OFFCURVE",
"137 567 OFFCURVE",
"176 567 CURVE SMOOTH"
);
}
);
width = 293;
}
);
leftKerningGroup = j.ss01;
rightKerningGroup = i;
},
{
glyphname = l.ss01;
lastChange = "2025-01-08 15:29:51 +0000";
layers = (
{
anchors = (
{
name = bottom;
position = "{205, 0}";
},
{
name = center;
position = "{205, 350}";
},
{
name = top;
position = "{205, 691}";
},
{
name = topright;
position = "{277, 691}";
}
);
background = {
paths = (
{
closed = 1;
nodes = (
"158 691 LINE",
"158 80 LINE SMOOTH",
"158 24 OFFCURVE",
"188 0 OFFCURVE",
"242 0 CURVE SMOOTH",
"341 0 LINE",
"341 84 LINE",
"252 84 LINE",
"252 691 LINE"
);
}
);
};
layerId = "B62D1C5F-C6EB-4CFF-8AD4-79D05BEF2DD6";
paths = (
{
closed = 1;
nodes = (
"362 0 LINE",
"362 85 LINE",
"252 85 LINE",
"252 691 LINE",
"59 691 LINE",
"59 606 LINE",
"158 606 LINE",
"158 85 LINE",
"40 85 LINE",
"40 0 LINE"
);
}
);
width = 387;
}
);
leftKerningGroup = l.ss01;
rightKerningGroup = i.ss01;
},
{
glyphname = t.ss02;
lastChange = "2025-01-08 15:28:17 +0000";
layers = (
{
anchors = (
{
name = bottom;
position = "{194, 0}";
},
{
name = center;
position = "{194, 250}";
},
{
name = top;
position = "{194, 691}";
},
{
name = topright;
position = "{277, 800}";
}
);
layerId = "B62D1C5F-C6EB-4CFF-8AD4-79D05BEF2DD6";
paths = (
{
closed = 1;
nodes = (
"372 415 LINE",
"372 500 LINE",
"20 500 LINE",
"20 415 LINE"
);
},
{
closed = 1;
nodes = (
"243 666 LINE",
"149 666 LINE",
"149 0 LINE",
"243 0 LINE"
);
}
);
width = 392;
}
);
leftKerningGroup = t;
rightKerningGroup = t.ss02;
},
{
glyphname = tbar.ss02;
lastChange = "2025-01-08 15:27:59 +0000";
layers = (
{
layerId = "B62D1C5F-C6EB-4CFF-8AD4-79D05BEF2DD6";
paths = (
{
closed = 1;
nodes = (
"243 0 LINE",
"243 666 LINE",
"149 666 LINE",
"149 0 LINE"
);
},
{
closed = 1;
nodes = (
"372 183 LINE",
"372 268 LINE",
"20 268 LINE",
"20 183 LINE"
);
},
{
closed = 1;
nodes = (
"372 415 LINE",
"372 500 LINE",
"20 500 LINE",
"20 415 LINE"
);
}
);
width = 392;
}
);
leftMetricsKey = t.ss02;
rightMetricsKey = t.ss02;
},
{
glyphname = fi;
lastChange = "2025-01-07 21:15:10 +0000";
layers = (
{
anchors = (
{
name = bottom;
position = "{534, 0}";
},
{
name = top;
position = "{204, 800}";
}
);
layerId = "B62D1C5F-C6EB-4CFF-8AD4-79D05BEF2DD6";
paths = (
{
closed = 1;
nodes = (
"230 0 LINE",
"230 415 LINE",
"487 415 LINE",
"487 0 LINE",
"581 0 LINE",
"581 500 LINE",
"230 500 LINE",
"230 606 LINE",
"382 606 LINE",
"382 691 LINE",
"219 691 LINE SMOOTH",
"165 691 OFFCURVE",
"135 666 OFFCURVE",
"135 611 CURVE SMOOTH",
"135 500 LINE",
"20 500 LINE",
"20 415 LINE",
"135 415 LINE",
"135 0 LINE"
);
},
{
closed = 1;
nodes = (
"572 571 OFFCURVE",
"599 598 OFFCURVE",
"599 634 CURVE SMOOTH",
"599 670 OFFCURVE",
"572 697 OFFCURVE",
"534 697 CURVE SMOOTH",
"496 697 OFFCURVE",
"469 670 OFFCURVE",
"469 634 CURVE SMOOTH",
"469 598 OFFCURVE",
"496 571 OFFCURVE",
"534 571 CURVE SMOOTH"
);
}
);
width = 651;
}
);
leftKerningGroup = fi;
leftMetricsKey = f;
rightKerningGroup = fi;
rightMetricsKey = i;
unicode = FB01;
},
{
glyphname = f_exclam.liga;
lastChange = "2025-01-07 21:52:30 +0000";
layers = (
{
layerId = "B62D1C5F-C6EB-4CFF-8AD4-79D05BEF2DD6";
paths = (
{
closed = 1;
nodes = (
"240 0 LINE",
"240 415 LINE",
"383 415 LINE",
"383 500 LINE",
"240 500 LINE",
"240 606 LINE",
"464 606 LINE",
"464 431 LINE",
"482 211 LINE",
"544 211 LINE",
"562 431 LINE",
"562 691 LINE",
"229 691 LINE SMOOTH",
"175 691 OFFCURVE",
"145 666 OFFCURVE",
"145 611 CURVE SMOOTH",
"145 500 LINE",
"20 500 LINE",
"20 415 LINE",
"145 415 LINE",
"145 0 LINE"
);
},
{
closed = 1;
nodes = (
"552 -6 OFFCURVE",
"580 22 OFFCURVE",
"580 59 CURVE SMOOTH",
"580 96 OFFCURVE",
"552 124 OFFCURVE",
"513 124 CURVE SMOOTH",
"474 124 OFFCURVE",
"446 96 OFFCURVE",
"446 59 CURVE SMOOTH",
"446 22 OFFCURVE",
"474 -6 OFFCURVE",
"513 -6 CURVE SMOOTH"
);
}
);
width = 605;
}
);
leftKerningGroup = fl.liga;
leftMetricsKey = f;
rightMetricsKey = f;
},
{
glyphname = f_question.liga;
lastChange = "2025-01-07 21:55:24 +0000";
layers = (
{
background = {
paths = (
{
closed = 1;
nodes = (
"240 0 LINE",
"240 415 LINE",
"383 415 LINE",
"383 500 LINE",
"240 500 LINE",
"240 606 LINE",
"552 606 LINE SMOOTH",
"617 606 OFFCURVE",
"661 573 OFFCURVE",
"661 502 CURVE SMOOTH",
"661 446 OFFCURVE",
"627 414 OFFCURVE",
"585 394 CURVE SMOOTH",
"466 336 LINE",
"466 203 LINE",
"556 203 LINE",
"556 293 LINE",
"625 326 LINE SMOOTH",
"706 365 OFFCURVE",
"757 417 OFFCURVE",
"757 511 CURVE SMOOTH",
"757 619 OFFCURVE",
"681 691 OFFCURVE",
"567 691 CURVE SMOOTH",
"229 691 LINE SMOOTH",
"175 691 OFFCURVE",
"145 666 OFFCURVE",
"145 611 CURVE SMOOTH",
"145 500 LINE",
"20 500 LINE",
"20 415 LINE",
"145 415 LINE",
"145 0 LINE"
);
},
{
closed = 1;
nodes = (
"551 -6 OFFCURVE",
"579 22 OFFCURVE",
"579 59 CURVE SMOOTH",
"579 96 OFFCURVE",
"551 124 OFFCURVE",
"512 124 CURVE SMOOTH",
"473 124 OFFCURVE",
"445 96 OFFCURVE",
"445 59 CURVE SMOOTH",
"445 22 OFFCURVE",
"473 -6 OFFCURVE",
"512 -6 CURVE SMOOTH"
);
}
);
};
layerId = "B62D1C5F-C6EB-4CFF-8AD4-79D05BEF2DD6";
paths = (
{
closed = 1;
nodes = (
"240 0 LINE",
"240 415 LINE",
"383 415 LINE",
"383 500 LINE",
"240 500 LINE",
"240 606 LINE",
"481 606 LINE SMOOTH",
"561 606 OFFCURVE",
"613 562 OFFCURVE",
"613 484 CURVE SMOOTH",
"613 407 OFFCURVE",
"558 353 OFFCURVE",
"435 346 CURVE",
"435 219 LINE",
"525 219 LINE",
"525 288 LINE",
"642 309 OFFCURVE",
"709 385 OFFCURVE",
"709 489 CURVE SMOOTH",
"709 611 OFFCURVE",
"616 691 OFFCURVE",
"486 691 CURVE SMOOTH",
"229 691 LINE SMOOTH",
"175 691 OFFCURVE",
"145 666 OFFCURVE",
"145 611 CURVE SMOOTH",
"145 500 LINE",
"20 500 LINE",
"20 415 LINE",
"145 415 LINE",
"145 0 LINE"
);
},
{
closed = 1;
nodes = (
"520 -6 OFFCURVE",
"548 22 OFFCURVE",
"548 59 CURVE SMOOTH",
"548 96 OFFCURVE",
"520 124 OFFCURVE",
"481 124 CURVE SMOOTH",
"442 124 OFFCURVE",
"414 96 OFFCURVE",
"414 59 CURVE SMOOTH",
"414 22 OFFCURVE",
"442 -6 OFFCURVE",
"481 -6 CURVE SMOOTH"
);
}
);
width = 771;
}
);
leftKerningGroup = fl.liga;
leftMetricsKey = f;
rightKerningGroup = f_question.liga;
rightMetricsKey = question;
},
{
glyphname = f_f.liga;
lastChange = "2025-01-07 21:15:10 +0000";
layers = (
{
layerId = "B62D1C5F-C6EB-4CFF-8AD4-79D05BEF2DD6";
paths = (
{
closed = 1;
nodes = (
"230 0 LINE",
"230 415 LINE",
"478 415 LINE",
"478 0 LINE",
"573 0 LINE",
"573 415 LINE",
"706 415 LINE",
"706 500 LINE",
"573 500 LINE",
"573 606 LINE",
"725 606 LINE",
"725 691 LINE",
"562 691 LINE SMOOTH",
"508 691 OFFCURVE",
"478 666 OFFCURVE",
"478 611 CURVE SMOOTH",
"478 500 LINE",
"230 500 LINE",
"230 606 LINE",
"382 606 LINE",
"382 691 LINE",
"219 691 LINE SMOOTH",
"165 691 OFFCURVE",
"135 666 OFFCURVE",
"135 611 CURVE SMOOTH",
"135 500 LINE",
"20 500 LINE",
"20 415 LINE",
"135 415 LINE",
"135 0 LINE"
);
}
);
width = 750;
}
);
leftKerningGroup = fi;
leftMetricsKey = f;
rightKerningGroup = f_f.liga;
rightMetricsKey = f;
},
{
glyphname = f_f_i.liga;
lastChange = "2025-01-07 21:15:10 +0000";
layers = (
{
layerId = "B62D1C5F-C6EB-4CFF-8AD4-79D05BEF2DD6";
paths = (
{
closed = 1;
nodes = (
"230 0 LINE",
"230 415 LINE",
"478 415 LINE",
"478 0 LINE",
"573 0 LINE",
"573 415 LINE",
"830 415 LINE",
"830 0 LINE",
"924 0 LINE",
"924 500 LINE",
"573 500 LINE",
"573 606 LINE",
"725 606 LINE",
"725 691 LINE",
"562 691 LINE SMOOTH",
"508 691 OFFCURVE",
"478 666 OFFCURVE",
"478 611 CURVE SMOOTH",
"478 500 LINE",
"230 500 LINE",
"230 606 LINE",
"382 606 LINE",
"382 691 LINE",
"219 691 LINE SMOOTH",
"165 691 OFFCURVE",
"135 666 OFFCURVE",
"135 611 CURVE SMOOTH",
"135 500 LINE",
"20 500 LINE",
"20 415 LINE",
"135 415 LINE",
"135 0 LINE"
);
},
{
closed = 1;
nodes = (
"915 571 OFFCURVE",
"942 598 OFFCURVE",
"942 634 CURVE SMOOTH",
"942 670 OFFCURVE",
"915 697 OFFCURVE",
"877 697 CURVE SMOOTH",
"839 697 OFFCURVE",
"812 670 OFFCURVE",
"812 634 CURVE SMOOTH",
"812 598 OFFCURVE",
"839 571 OFFCURVE",
"877 571 CURVE SMOOTH"
);
}
);
width = 994;
}
);
leftKerningGroup = fi;
leftMetricsKey = f;
rightKerningGroup = fi;
rightMetricsKey = i;
},
{
glyphname = f_t.liga;
lastChange = "2025-01-07 21:15:10 +0000";
layers = (
{
layerId = "B62D1C5F-C6EB-4CFF-8AD4-79D05BEF2DD6";
paths = (
{
closed = 1;
nodes = (
"230 0 LINE",
"230 415 LINE",
"485 415 LINE",
"485 80 LINE SMOOTH",
"485 25 OFFCURVE",
"515 0 OFFCURVE",
"569 0 CURVE SMOOTH",
"715 0 LINE",
"715 85 LINE",
"579 85 LINE",
"579 415 LINE",
"715 415 LINE",
"715 500 LINE",
"579 500 LINE",
"579 671 LINE",
"485 661 LINE",
"485 500 LINE",
"230 500 LINE",
"230 606 LINE",
"382 606 LINE",
"382 691 LINE",
"219 691 LINE SMOOTH",
"165 691 OFFCURVE",
"135 666 OFFCURVE",
"135 611 CURVE SMOOTH",
"135 500 LINE",
"20 500 LINE",
"20 415 LINE",
"135 415 LINE",
"135 0 LINE"
);
}
);
width = 750;
}
);
leftKerningGroup = fi;
leftMetricsKey = f;
rightKerningGroup = f_t.liga;
rightMetricsKey = t;
},
{
glyphname = f_y.liga;
lastChange = "2025-01-07 21:15:10 +0000";
layers = (
{
background = {
paths = (
{
closed = 1;
nodes = (
"145 415 LINE",
"145 0 LINE",
"240 0 LINE",
"240 415 LINE",
"383 415 LINE",
"534 -3 LINE",
"500 -96 LINE",
"394 -96 LINE",
"394 -180 LINE",
"487 -180 LINE SMOOTH",
"538 -180 OFFCURVE",
"571 -160 OFFCURVE",
"588 -114 CURVE SMOOTH",
"811 500 LINE",
"713 500 LINE",
"582 110 LINE",
"450 500 LINE",
"240 500 LINE",
"240 606 LINE",
"402 606 LINE",
"402 691 LINE",
"229 691 LINE SMOOTH",
"175 691 OFFCURVE",
"145 666 OFFCURVE",
"145 611 CURVE SMOOTH",
"145 500 LINE",
"20 500 LINE",
"20 415 LINE"
);
}
);
};
layerId = "B62D1C5F-C6EB-4CFF-8AD4-79D05BEF2DD6";
paths = (
{
closed = 1;
nodes = (
"498 -200 LINE",
"824 500 LINE",
"719 500 LINE",
"584 193 LINE",
"450 500 LINE",
"240 500 LINE",
"240 606 LINE",
"402 606 LINE",
"402 691 LINE",
"229 691 LINE SMOOTH",
"175 691 OFFCURVE",
"145 666 OFFCURVE",
"145 611 CURVE SMOOTH",
"145 500 LINE",
"20 500 LINE",
"20 415 LINE",
"145 415 LINE",
"145 0 LINE",
"240 0 LINE",
"240 415 LINE",
"383 415 LINE",
"532 91 LINE",
"394 -200 LINE"
);
}
);
width = 840;
}
);
leftKerningGroup = fl.liga;
leftMetricsKey = f;
rightKerningGroup = f_y.liga;
rightMetricsKey = y;
},
{
glyphname = fl.liga;
lastChange = "2025-01-07 21:15:10 +0000";
layers = (
{
anchors = (
{
name = bottom;
position = "{544, 0}";
},
{
name = center;
position = "{544, 400}";
},
{
name = top;
position = "{544, 691}";
},
{
name = topright;
position = "{641, 800}";
}
);
layerId = "B62D1C5F-C6EB-4CFF-8AD4-79D05BEF2DD6";
paths = (
{
closed = 1;
nodes = (
"145 415 LINE",
"145 0 LINE",
"240 0 LINE",
"240 415 LINE",
"383 415 LINE",
"383 500 LINE",
"240 500 LINE",
"240 606 LINE",
"497 606 LINE",
"497 0 LINE",
"591 0 LINE",
"591 691 LINE",
"229 691 LINE SMOOTH",
"175 691 OFFCURVE",
"145 666 OFFCURVE",
"145 611 CURVE SMOOTH",
"145 500 LINE",
"20 500 LINE",
"20 415 LINE"
);
}
);
width = 661;
}
);
leftKerningGroup = fl.liga;
leftMetricsKey = f;
rightKerningGroup = fi;
rightMetricsKey = l;
},
{
glyphname = t_f.liga;
lastChange = "2025-01-07 21:15:10 +0000";
layers = (
{
layerId = "B62D1C5F-C6EB-4CFF-8AD4-79D05BEF2DD6";
paths = (
{
closed = 1;
nodes = (
"362 0 LINE",
"362 85 LINE",
"226 85 LINE",
"226 415 LINE",
"480 415 LINE",
"480 0 LINE",
"575 0 LINE",
"575 415 LINE",
"708 415 LINE",
"708 500 LINE",
"575 500 LINE",
"575 606 LINE",
"727 606 LINE",
"727 691 LINE",
"564 691 LINE SMOOTH",
"510 691 OFFCURVE",
"480 666 OFFCURVE",
"480 611 CURVE SMOOTH",
"480 500 LINE",
"226 500 LINE",
"226 671 LINE",
"132 661 LINE",
"132 500 LINE",
"20 500 LINE",
"20 415 LINE",
"132 415 LINE",
"132 80 LINE SMOOTH",
"132 25 OFFCURVE",
"162 0 OFFCURVE",
"216 0 CURVE SMOOTH"
);
}
);
width = 752;
}
);
leftKerningGroup = t_f.liga;
leftMetricsKey = t;
rightKerningGroup = f_f.liga;
rightMetricsKey = f;
},
{
glyphname = t_t.liga;
lastChange = "2025-01-07 21:15:10 +0000";
layers = (
{
layerId = "B62D1C5F-C6EB-4CFF-8AD4-79D05BEF2DD6";
paths = (
{
closed = 1;
nodes = (
"362 0 LINE",
"362 85 LINE",
"226 85 LINE",
"226 415 LINE",
"474 415 LINE",
"474 80 LINE SMOOTH",
"474 25 OFFCURVE",
"504 0 OFFCURVE",
"558 0 CURVE SMOOTH",
"704 0 LINE",
"704 85 LINE",
"568 85 LINE",
"568 415 LINE",
"704 415 LINE",
"704 500 LINE",
"568 500 LINE",
"568 671 LINE",
"474 661 LINE",
"474 500 LINE",
"226 500 LINE",
"226 671 LINE",
"132 661 LINE",
"132 500 LINE",
"20 500 LINE",
"20 415 LINE",
"132 415 LINE",
"132 80 LINE SMOOTH",
"132 25 OFFCURVE",
"162 0 OFFCURVE",
"216 0 CURVE SMOOTH"
);
}
);
width = 739;
}
);
leftKerningGroup = t_f.liga;
leftMetricsKey = t;
rightKerningGroup = f_t.liga;
rightMetricsKey = t;
},
{
glyphname = zero;
lastChange = "2025-01-07 21:15:10 +0000";
layers = (
{
layerId = "B62D1C5F-C6EB-4CFF-8AD4-79D05BEF2DD6";
paths = (
{
closed = 1;
nodes = (
"433 -6 OFFCURVE",
"529 88 OFFCURVE",
"529 218 CURVE SMOOTH",
"529 473 LINE SMOOTH",
"529 608 OFFCURVE",
"427 697 OFFCURVE",
"300 697 CURVE SMOOTH",
"167 697 OFFCURVE",
"71 603 OFFCURVE",
"71 473 CURVE SMOOTH",
"71 218 LINE SMOOTH",
"71 88 OFFCURVE",
"167 -6 OFFCURVE",
"300 -6 CURVE SMOOTH"
);
},
{
closed = 1;
nodes = (
"221 83 OFFCURVE",
"168 137 OFFCURVE",
"168 218 CURVE SMOOTH",
"168 473 LINE SMOOTH",
"168 555 OFFCURVE",
"222 608 OFFCURVE",
"300 608 CURVE SMOOTH",
"378 608 OFFCURVE",
"431 554 OFFCURVE",
"431 473 CURVE SMOOTH",
"431 218 LINE SMOOTH",
"431 137 OFFCURVE",
"377 83 OFFCURVE",
"300 83 CURVE SMOOTH"
);
}
);
width = 600;
}
);
unicode = 0030;
userData = {
KernOnSpecialSpacing = {
L = NoKerning;
R = NoKerning;
};
};
},
{
glyphname = one;
lastChange = "2025-01-07 21:15:10 +0000";
layers = (
{
background = {
paths = (
{
closed = 1;
nodes = (
"346 30 LINE",
"346 691 LINE",
"281 691 LINE",
"44 534 LINE",
"93 460 LINE",
"248 560 LINE",
"248 30 LINE"
);
},
{
closed = 1;
nodes = (
"531 0 LINE",
"531 88 LINE",
"44 88 LINE",
"44 0 LINE"
);
}
);
};
layerId = "B62D1C5F-C6EB-4CFF-8AD4-79D05BEF2DD6";
paths = (
{
closed = 1;
nodes = (
"316 0 LINE",
"316 691 LINE",
"251 691 LINE",
"55 560 LINE",
"55 455 LINE",
"218 560 LINE",
"218 0 LINE"
);
}
);
width = 435;
}
);
unicode = 0031;
userData = {
KernOnSpecialSpacing = {
L = NoKerning;
R = NoKerning;
};
};
},
{
glyphname = two;
lastChange = "2025-01-07 21:15:10 +0000";
layers = (
{
background = {
paths = (
{
closed = 1;
nodes = (
"519 0 LINE",
"519 88 LINE",
"174 88 LINE",
"174 121 LINE SMOOTH",
"174 182 OFFCURVE",
"208 208 OFFCURVE",
"248 229 CURVE SMOOTH",
"359 287 LINE SMOOTH",
"461 340 OFFCURVE",
"508 408 OFFCURVE",
"508 498 CURVE SMOOTH",
"508 615 OFFCURVE",
"418 697 OFFCURVE",
"291 697 CURVE SMOOTH",
"169 697 OFFCURVE",
"84 626 OFFCURVE",
"70 512 CURVE",
"165 500 LINE",
"172 567 OFFCURVE",
"220 609 OFFCURVE",
"291 609 CURVE SMOOTH",
"361 609 OFFCURVE",
"409 565 OFFCURVE",
"409 500 CURVE SMOOTH",
"409 433 OFFCURVE",
"375 399 OFFCURVE",
"309 364 CURVE SMOOTH",
"203 307 LINE SMOOTH",
"130 268 OFFCURVE",
"76 222 OFFCURVE",
"76 117 CURVE SMOOTH",
"76 0 LINE"
);
}
);
};
layerId = "B62D1C5F-C6EB-4CFF-8AD4-79D05BEF2DD6";
paths = (
{
closed = 1;
nodes = (
"519 0 LINE",
"519 88 LINE",
"174 88 LINE",
"174 111 LINE SMOOTH",
"174 172 OFFCURVE",
"208 197 OFFCURVE",
"248 219 CURVE SMOOTH",
"351 275 LINE SMOOTH",
"461 335 OFFCURVE",
"508 400 OFFCURVE",
"508 500 CURVE SMOOTH",
"508 618 OFFCURVE",
"419 697 OFFCURVE",
"291 697 CURVE SMOOTH",
"172 697 OFFCURVE",
"84 623 OFFCURVE",
"70 512 CURVE",
"165 500 LINE",
"172 567 OFFCURVE",
"220 609 OFFCURVE",
"291 609 CURVE SMOOTH",
"361 609 OFFCURVE",
"409 565 OFFCURVE",
"409 499 CURVE SMOOTH",
"409 425 OFFCURVE",
"375 389 OFFCURVE",
"309 354 CURVE SMOOTH",
"203 297 LINE SMOOTH",
"130 258 OFFCURVE",
"76 212 OFFCURVE",
"76 107 CURVE SMOOTH",
"76 0 LINE"
);
}
);
width = 589;
}
);
unicode = 0032;
userData = {
KernOnSpecialSpacing = {
L = NoKerning;
R = NoKerning;
};
};
},
{
glyphname = three;
lastChange = "2025-01-07 21:15:10 +0000";
layers = (
{
background = {
paths = (
{
closed = 1;
nodes = (
"416 -6 OFFCURVE",
"516 81 OFFCURVE",
"516 200 CURVE SMOOTH",
"516 280 OFFCURVE",
"470 349 OFFCURVE",
"403 367 CURVE",
"398 357 LINE",
"459 384 OFFCURVE",
"498 445 OFFCURVE",
"498 511 CURVE SMOOTH",
"498 614 OFFCURVE",
"416 697 OFFCURVE",
"286 697 CURVE SMOOTH",
"170 697 OFFCURVE",
"82 628 OFFCURVE",
"68 526 CURVE",
"162 512 LINE",
"171 573 OFFCURVE",
"217 608 OFFCURVE",
"284 608 CURVE SMOOTH",
"355 608 OFFCURVE",
"399 569 OFFCURVE",
"399 506 CURVE SMOOTH",
"399 441 OFFCURVE",
"352 398 OFFCURVE",
"283 398 CURVE SMOOTH",
"201 398 LINE",
"201 313 LINE",
"301 313 LINE SMOOTH",
"371 313 OFFCURVE",
"417 271 OFFCURVE",
"417 205 CURVE SMOOTH",
"417 131 OFFCURVE",
"361 83 OFFCURVE",
"279 83 CURVE SMOOTH",
"205 83 OFFCURVE",
"152 123 OFFCURVE",
"142 188 CURVE",
"45 174 LINE",
"56 69 OFFCURVE",
"152 -6 OFFCURVE",
"278 -6 CURVE SMOOTH"
);
}
);
};
layerId = "B62D1C5F-C6EB-4CFF-8AD4-79D05BEF2DD6";
paths = (
{
closed = 1;
nodes = (
"416 -6 OFFCURVE",
"516 81 OFFCURVE",
"516 200 CURVE SMOOTH",
"516 275 OFFCURVE",
"475 341 OFFCURVE",
"407 363 CURVE",
"464 389 OFFCURVE",
"498 446 OFFCURVE",
"498 511 CURVE SMOOTH",
"498 625 OFFCURVE",
"411 697 OFFCURVE",
"286 697 CURVE SMOOTH",
"170 697 OFFCURVE",
"82 628 OFFCURVE",
"68 526 CURVE",
"162 512 LINE",
"171 573 OFFCURVE",
"217 608 OFFCURVE",
"284 608 CURVE SMOOTH",
"355 608 OFFCURVE",
"399 569 OFFCURVE",
"399 506 CURVE SMOOTH",
"399 441 OFFCURVE",
"352 398 OFFCURVE",
"293 398 CURVE SMOOTH",
"201 398 LINE",
"201 313 LINE",
"301 313 LINE SMOOTH",
"371 313 OFFCURVE",
"417 271 OFFCURVE",
"417 205 CURVE SMOOTH",
"417 131 OFFCURVE",
"361 83 OFFCURVE",
"279 83 CURVE SMOOTH",
"205 83 OFFCURVE",
"152 123 OFFCURVE",
"142 188 CURVE",
"45 174 LINE",
"55 67 OFFCURVE",
"152 -6 OFFCURVE",
"278 -6 CURVE SMOOTH"
);
}
);
width = 586;
}
);
unicode = 0033;
userData = {
KernOnSpecialSpacing = {
L = NoKerning;
R = NoKerning;
};
};
},
{
glyphname = four;
lastChange = "2025-01-07 21:15:10 +0000";
layers = (
{
background = {
paths = (
{
closed = 1;
nodes = (
"509 0 LINE",
"509 245 LINE",
"611 245 LINE",
"611 333 LINE",
"509 333 LINE",
"509 687 LINE",
"508 687 LINE",
"508 691 LINE",
"381 691 LINE",
"59 316 LINE",
"59 245 LINE",
"411 245 LINE",
"411 0 LINE"
);
},
{
closed = 1;
nodes = (
"434 617 LINE",
"411 627 LINE",
"411 333 LINE",
"188 333 LINE"
);
}
);
};
layerId = "B62D1C5F-C6EB-4CFF-8AD4-79D05BEF2DD6";
paths = (
{
closed = 1;
nodes = (
"462 0 LINE",
"462 172 LINE",
"595 172 LINE",
"595 260 LINE",
"462 260 LINE",
"462 418 LINE",
"364 418 LINE",
"364 260 LINE",
"156 260 LINE",
"446 691 LINE",
"336 691 LINE",
"35 243 LINE",
"35 172 LINE",
"364 172 LINE",
"364 0 LINE"
);
}
);
width = 630;
}
);
unicode = 0034;
userData = {
KernOnSpecialSpacing = {
L = NoKerning;
R = NoKerning;
};
};
},
{
glyphname = five;
lastChange = "2025-01-07 21:15:10 +0000";
layers = (
{
background = {
paths = (
{
closed = 1;
nodes = (
"421 -6 OFFCURVE",
"518 85 OFFCURVE",
"518 216 CURVE SMOOTH",
"518 348 OFFCURVE",
"426 433 OFFCURVE",
"295 433 CURVE SMOOTH",
"235 433 OFFCURVE",
"177 411 OFFCURVE",
"150 379 CURVE",
"165 361 LINE",
"186 603 LINE",
"516 603 LINE",
"516 691 LINE",
"101 691 LINE",
"69 322 LINE",
"151 287 LINE",
"182 323 OFFCURVE",
"231 345 OFFCURVE",
"288 345 CURVE SMOOTH",
"367 345 OFFCURVE",
"419 293 OFFCURVE",
"419 215 CURVE SMOOTH",
"419 135 OFFCURVE",
"367 82 OFFCURVE",
"286 82 CURVE SMOOTH",
"207 82 OFFCURVE",
"154 122 OFFCURVE",
"142 191 CURVE",
"45 178 LINE",
"63 64 OFFCURVE",
"155 -6 OFFCURVE",
"286 -6 CURVE SMOOTH"
);
}
);
};
layerId = "B62D1C5F-C6EB-4CFF-8AD4-79D05BEF2DD6";
paths = (
{
closed = 1;
nodes = (
"421 -6 OFFCURVE",
"518 85 OFFCURVE",
"518 216 CURVE SMOOTH",
"518 348 OFFCURVE",
"426 433 OFFCURVE",
"295 433 CURVE SMOOTH",
"246 433 OFFCURVE",
"199 418 OFFCURVE",
"168 396 CURVE",
"186 603 LINE",
"516 603 LINE",
"516 691 LINE",
"101 691 LINE",
"67 303 LINE",
"151 287 LINE",
"182 323 OFFCURVE",
"231 345 OFFCURVE",
"288 345 CURVE SMOOTH",
"367 345 OFFCURVE",
"419 293 OFFCURVE",
"419 215 CURVE SMOOTH",
"419 135 OFFCURVE",
"367 82 OFFCURVE",
"286 82 CURVE SMOOTH",
"207 82 OFFCURVE",
"154 122 OFFCURVE",
"142 191 CURVE",
"45 178 LINE",
"63 64 OFFCURVE",
"155 -6 OFFCURVE",
"286 -6 CURVE SMOOTH"
);
}
);
width = 588;
}
);
unicode = 0035;
userData = {
KernOnSpecialSpacing = {
L = NoKerning;
R = NoKerning;
};
};
},
{
glyphname = six;
lastChange = "2025-01-08 14:30:39 +0000";
layers = (
{
layerId = "B62D1C5F-C6EB-4CFF-8AD4-79D05BEF2DD6";
paths = (
{
closed = 1;
nodes = (
"163 311 OFFCURVE",
"217 365 OFFCURVE",
"305 365 CURVE SMOOTH",
"394 365 OFFCURVE",
"448 311 OFFCURVE",
"448 224 CURVE SMOOTH",
"448 135 OFFCURVE",
"394 81 OFFCURVE",
"305 81 CURVE SMOOTH",
"217 81 OFFCURVE",
"163 135 OFFCURVE",
"163 224 CURVE SMOOTH"
);
},
{
closed = 1;
nodes = (
"102 357 OFFCURVE",
"65 309 OFFCURVE",
"65 217 CURVE SMOOTH",
"65 85 OFFCURVE",
"165 -6 OFFCURVE",
"305 -6 CURVE SMOOTH",
"436 -6 OFFCURVE",
"547 83 OFFCURVE",
"547 224 CURVE SMOOTH",
"547 358 OFFCURVE",
"453 449 OFFCURVE",
"319 449 CURVE SMOOTH",
"286 449 OFFCURVE",
"252 442 OFFCURVE",
"235 431 CURVE",
"236 410 LINE",
"412 691 LINE",
"299 691 LINE",
"143 427 LINE SMOOTH"
);
}
);
width = 612;
}
);
unicode = 0036;
userData = {
KernOnSpecialSpacing = {
L = NoKerning;
R = NoKerning;
};
};
},
{
glyphname = seven;
lastChange = "2025-01-07 21:15:10 +0000";
layers = (
{
layerId = "B62D1C5F-C6EB-4CFF-8AD4-79D05BEF2DD6";
paths = (
{
closed = 1;
nodes = (
"205 0 LINE",
"516 614 LINE",
"516 691 LINE",
"35 691 LINE",
"35 603 LINE",
"403 603 LINE",
"95 0 LINE"
);
}
);
width = 551;
}
);
leftKerningGroup = seven;
rightKerningGroup = seven;
unicode = 0037;
userData = {
KernOnSpecialSpacing = {
};
};
},
{
glyphname = eight;
lastChange = "2025-01-07 21:15:10 +0000";
layers = (
{
background = {
paths = (
{
closed = 1;
nodes = (
"448 -6 OFFCURVE",
"543 76 OFFCURVE",
"543 201 CURVE SMOOTH",
"543 285 OFFCURVE",
"495 354 OFFCURVE",
"421 379 CURVE",
"476 404 OFFCURVE",
"513 458 OFFCURVE",
"513 521 CURVE SMOOTH",
"513 627 OFFCURVE",
"429 697 OFFCURVE",
"304 697 CURVE SMOOTH",
"179 697 OFFCURVE",
"95 627 OFFCURVE",
"95 521 CURVE SMOOTH",
"95 458 OFFCURVE",
"132 404 OFFCURVE",
"187 379 CURVE",
"113 354 OFFCURVE",
"65 285 OFFCURVE",
"65 201 CURVE SMOOTH",
"65 76 OFFCURVE",
"160 -6 OFFCURVE",
"304 -6 CURVE SMOOTH"
);
},
{
closed = 1;
nodes = (
"217 79 OFFCURVE",
"163 126 OFFCURVE",
"163 201 CURVE SMOOTH",
"163 276 OFFCURVE",
"217 322 OFFCURVE",
"304 322 CURVE SMOOTH",
"391 322 OFFCURVE",
"445 276 OFFCURVE",
"445 201 CURVE SMOOTH",
"445 126 OFFCURVE",
"391 79 OFFCURVE",
"304 79 CURVE SMOOTH"
);
},
{
closed = 1;
nodes = (
"235 423 OFFCURVE",
"193 458 OFFCURVE",
"193 517 CURVE SMOOTH",
"193 576 OFFCURVE",
"235 612 OFFCURVE",
"304 612 CURVE SMOOTH",
"373 612 OFFCURVE",
"415 576 OFFCURVE",
"415 517 CURVE SMOOTH",
"415 458 OFFCURVE",
"373 423 OFFCURVE",
"304 423 CURVE SMOOTH"
);
}
);
};
layerId = "B62D1C5F-C6EB-4CFF-8AD4-79D05BEF2DD6";
paths = (
{
closed = 1;
nodes = (
"448 -6 OFFCURVE",
"543 76 OFFCURVE",
"543 201 CURVE SMOOTH",
"543 285 OFFCURVE",
"495 354 OFFCURVE",
"421 379 CURVE",
"476 404 OFFCURVE",
"513 458 OFFCURVE",
"513 521 CURVE SMOOTH",
"513 627 OFFCURVE",
"429 697 OFFCURVE",
"304 697 CURVE SMOOTH",
"179 697 OFFCURVE",
"95 627 OFFCURVE",
"95 521 CURVE SMOOTH",
"95 458 OFFCURVE",
"132 404 OFFCURVE",
"187 379 CURVE",
"113 354 OFFCURVE",
"65 285 OFFCURVE",
"65 201 CURVE SMOOTH",
"65 76 OFFCURVE",
"160 -6 OFFCURVE",
"304 -6 CURVE SMOOTH"
);
},
{
closed = 1;
nodes = (
"217 79 OFFCURVE",
"163 128 OFFCURVE",
"163 205 CURVE SMOOTH",
"163 283 OFFCURVE",
"217 331 OFFCURVE",
"304 331 CURVE SMOOTH",
"391 331 OFFCURVE",
"445 283 OFFCURVE",
"445 205 CURVE SMOOTH",
"445 128 OFFCURVE",
"391 79 OFFCURVE",
"304 79 CURVE SMOOTH"
);
},
{
closed = 1;
nodes = (
"235 418 OFFCURVE",
"193 454 OFFCURVE",
"193 514 CURVE SMOOTH",
"193 575 OFFCURVE",
"235 612 OFFCURVE",
"304 612 CURVE SMOOTH",
"373 612 OFFCURVE",
"415 575 OFFCURVE",
"415 514 CURVE SMOOTH",
"415 454 OFFCURVE",
"373 418 OFFCURVE",
"304 418 CURVE SMOOTH"
);
}
);
width = 608;
}
);
unicode = 0038;
userData = {
KernOnSpecialSpacing = {
L = NoKerning;
R = NoKerning;
};
};
},
{
color = 1;
glyphname = zero.tf;
lastChange = "2025-01-07 21:15:10 +0000";
layers = (
{
layerId = "B62D1C5F-C6EB-4CFF-8AD4-79D05BEF2DD6";
paths = (
{
closed = 1;
nodes = (
"433 -6 OFFCURVE",
"529 88 OFFCURVE",
"529 218 CURVE SMOOTH",
"529 473 LINE SMOOTH",
"529 608 OFFCURVE",
"427 697 OFFCURVE",
"300 697 CURVE SMOOTH",
"167 697 OFFCURVE",
"71 603 OFFCURVE",
"71 473 CURVE SMOOTH",
"71 218 LINE SMOOTH",
"71 88 OFFCURVE",
"167 -6 OFFCURVE",
"300 -6 CURVE SMOOTH"
);
},
{
closed = 1;
nodes = (
"221 83 OFFCURVE",
"168 137 OFFCURVE",
"168 218 CURVE SMOOTH",
"168 473 LINE SMOOTH",
"168 555 OFFCURVE",
"222 608 OFFCURVE",
"300 608 CURVE SMOOTH",
"378 608 OFFCURVE",
"431 554 OFFCURVE",
"431 473 CURVE SMOOTH",
"431 218 LINE SMOOTH",
"431 137 OFFCURVE",
"377 83 OFFCURVE",
"300 83 CURVE SMOOTH"
);
}
);
width = 600;
}
);
userData = {
RMXScaler = {
source = zero;
};
};
},
{
color = 1;
glyphname = one.tf;
lastChange = "2025-01-07 21:15:10 +0000";
layers = (
{
layerId = "B62D1C5F-C6EB-4CFF-8AD4-79D05BEF2DD6";
paths = (
{
closed = 1;
nodes = (
"361 30 LINE",
"361 691 LINE",
"296 691 LINE",
"100 560 LINE",
"100 455 LINE",
"263 560 LINE",
"263 30 LINE"
);
},
{
closed = 1;
nodes = (
"546 0 LINE",
"546 88 LINE",
"59 88 LINE",
"59 0 LINE"
);
}
);
width = 600;
}
);
userData = {
RMXScaler = {
source = one;
};
};
},
{
color = 1;
glyphname = two.tf;
lastChange = "2025-01-07 21:15:10 +0000";
layers = (
{
layerId = "B62D1C5F-C6EB-4CFF-8AD4-79D05BEF2DD6";
paths = (
{
closed = 1;
nodes = (
"530 0 LINE",
"530 88 LINE",
"185 88 LINE",
"185 121 LINE SMOOTH",
"185 182 OFFCURVE",
"219 208 OFFCURVE",
"259 229 CURVE SMOOTH",
"370 287 LINE SMOOTH",
"472 340 OFFCURVE",
"519 408 OFFCURVE",
"519 498 CURVE SMOOTH",
"519 615 OFFCURVE",
"429 697 OFFCURVE",
"302 697 CURVE SMOOTH",
"180 697 OFFCURVE",
"95 626 OFFCURVE",
"81 512 CURVE",
"176 500 LINE",
"183 567 OFFCURVE",
"231 609 OFFCURVE",
"302 609 CURVE SMOOTH",
"372 609 OFFCURVE",
"420 565 OFFCURVE",
"420 500 CURVE SMOOTH",
"420 433 OFFCURVE",
"386 399 OFFCURVE",
"320 364 CURVE SMOOTH",
"214 307 LINE SMOOTH",
"141 268 OFFCURVE",
"87 222 OFFCURVE",
"87 117 CURVE SMOOTH",
"87 0 LINE"
);
}
);
width = 600;
}
);
userData = {
RMXScaler = {
source = two;
};
};
},
{
color = 1;
glyphname = three.tf;
lastChange = "2025-01-07 21:15:10 +0000";
layers = (
{
layerId = "B62D1C5F-C6EB-4CFF-8AD4-79D05BEF2DD6";
paths = (
{
closed = 1;
nodes = (
"426 -6 OFFCURVE",
"526 81 OFFCURVE",
"526 200 CURVE SMOOTH",
"526 275 OFFCURVE",
"485 341 OFFCURVE",
"417 363 CURVE",
"474 389 OFFCURVE",
"508 446 OFFCURVE",
"508 511 CURVE SMOOTH",
"508 625 OFFCURVE",
"421 697 OFFCURVE",
"296 697 CURVE SMOOTH",
"180 697 OFFCURVE",
"92 628 OFFCURVE",
"78 526 CURVE",
"172 512 LINE",
"181 573 OFFCURVE",
"227 608 OFFCURVE",
"294 608 CURVE SMOOTH",
"365 608 OFFCURVE",
"409 569 OFFCURVE",
"409 506 CURVE SMOOTH",
"409 441 OFFCURVE",
"362 398 OFFCURVE",
"303 398 CURVE SMOOTH",
"211 398 LINE",
"211 313 LINE",
"311 313 LINE SMOOTH",
"381 313 OFFCURVE",
"427 271 OFFCURVE",
"427 205 CURVE SMOOTH",
"427 131 OFFCURVE",
"371 83 OFFCURVE",
"289 83 CURVE SMOOTH",
"215 83 OFFCURVE",
"162 123 OFFCURVE",
"152 188 CURVE",
"55 174 LINE",
"65 67 OFFCURVE",
"162 -6 OFFCURVE",
"288 -6 CURVE SMOOTH"
);
}
);
width = 600;
}
);
userData = {
RMXScaler = {
source = three;
};
};
},
{
color = 1;
glyphname = four.tf;
lastChange = "2025-01-07 21:15:10 +0000";
layers = (
{
background = {
paths = (
{
closed = 1;
nodes = (
"447 0 LINE",
"447 172 LINE",
"580 172 LINE",
"580 260 LINE",
"447 260 LINE",
"447 418 LINE",
"349 418 LINE",
"349 260 LINE",
"139 260 LINE",
"429 691 LINE",
"321 691 LINE",
"20 243 LINE",
"20 172 LINE",
"349 172 LINE",
"349 0 LINE"
);
}
);
};
layerId = "B62D1C5F-C6EB-4CFF-8AD4-79D05BEF2DD6";
paths = (
{
closed = 1;
nodes = (
"449 0 LINE",
"449 172 LINE",
"572 172 LINE",
"572 260 LINE",
"449 260 LINE",
"449 418 LINE",
"351 418 LINE",
"351 260 LINE",
"149 260 LINE",
"439 691 LINE",
"329 691 LINE",
"28 243 LINE",
"28 172 LINE",
"351 172 LINE",
"351 0 LINE"
);
}
);
width = 600;
}
);
userData = {
RMXScaler = {
source = four;
};
};
},
{
color = 1;
glyphname = five.tf;
lastChange = "2025-01-07 21:15:10 +0000";
layers = (
{
background = {
paths = (
{
closed = 1;
nodes = (
"439 -6 OFFCURVE",
"536 85 OFFCURVE",
"536 216 CURVE SMOOTH",
"536 348 OFFCURVE",
"444 433 OFFCURVE",
"313 433 CURVE SMOOTH",
"253 433 OFFCURVE",
"195 411 OFFCURVE",
"168 379 CURVE",
"183 361 LINE",
"204 603 LINE",
"534 603 LINE",
"534 691 LINE",
"119 691 LINE",
"87 322 LINE",
"169 287 LINE",
"200 323 OFFCURVE",
"249 345 OFFCURVE",
"306 345 CURVE SMOOTH",
"385 345 OFFCURVE",
"437 293 OFFCURVE",
"437 215 CURVE SMOOTH",
"437 135 OFFCURVE",
"385 82 OFFCURVE",
"304 82 CURVE SMOOTH",
"225 82 OFFCURVE",
"172 122 OFFCURVE",
"160 191 CURVE",
"63 178 LINE",
"81 64 OFFCURVE",
"173 -6 OFFCURVE",
"304 -6 CURVE SMOOTH"
);
}
);
};
layerId = "B62D1C5F-C6EB-4CFF-8AD4-79D05BEF2DD6";
paths = (
{
closed = 1;
nodes = (
"439 -6 OFFCURVE",
"536 85 OFFCURVE",
"536 216 CURVE SMOOTH",
"536 348 OFFCURVE",
"444 433 OFFCURVE",
"313 433 CURVE SMOOTH",
"264 433 OFFCURVE",
"217 418 OFFCURVE",
"186 396 CURVE",
"204 603 LINE",
"534 603 LINE",
"534 691 LINE",
"119 691 LINE",
"85 303 LINE",
"169 287 LINE",
"200 323 OFFCURVE",
"249 345 OFFCURVE",
"306 345 CURVE SMOOTH",
"385 345 OFFCURVE",
"437 293 OFFCURVE",
"437 215 CURVE SMOOTH",
"437 135 OFFCURVE",
"385 82 OFFCURVE",
"304 82 CURVE SMOOTH",
"225 82 OFFCURVE",
"172 122 OFFCURVE",
"160 191 CURVE",
"63 178 LINE",
"81 64 OFFCURVE",
"173 -6 OFFCURVE",
"304 -6 CURVE SMOOTH"
);
}
);
width = 600;
}
);
userData = {
RMXScaler = {
source = five;
};
};
},
{
color = 1;
glyphname = six.tf;
lastChange = "2025-01-07 21:15:10 +0000";
layers = (
{
layerId = "B62D1C5F-C6EB-4CFF-8AD4-79D05BEF2DD6";
paths = (
{
closed = 1;
nodes = (
"157 311 OFFCURVE",
"211 365 OFFCURVE",
"299 365 CURVE SMOOTH",
"388 365 OFFCURVE",
"442 311 OFFCURVE",
"442 224 CURVE SMOOTH",
"442 135 OFFCURVE",
"388 81 OFFCURVE",
"299 81 CURVE SMOOTH",
"211 81 OFFCURVE",
"157 135 OFFCURVE",
"157 224 CURVE SMOOTH"
);
},
{
closed = 1;
nodes = (
"96 357 OFFCURVE",
"59 309 OFFCURVE",
"59 217 CURVE SMOOTH",
"59 85 OFFCURVE",
"159 -6 OFFCURVE",
"299 -6 CURVE SMOOTH",
"430 -6 OFFCURVE",
"541 83 OFFCURVE",
"541 224 CURVE SMOOTH",
"541 358 OFFCURVE",
"447 449 OFFCURVE",
"313 449 CURVE SMOOTH",
"280 449 OFFCURVE",
"246 442 OFFCURVE",
"229 431 CURVE",
"230 410 LINE",
"406 691 LINE",
"293 691 LINE",
"137 427 LINE SMOOTH"
);
}
);
width = 600;
}
);
userData = {
RMXScaler = {
source = six;
};
};
},
{
color = 1;
glyphname = seven.tf;
lastChange = "2025-01-07 21:15:10 +0000";
layers = (
{
layerId = "B62D1C5F-C6EB-4CFF-8AD4-79D05BEF2DD6";
paths = (
{
closed = 1;
nodes = (
"239 0 LINE",
"550 614 LINE",
"550 691 LINE",
"50 691 LINE",
"50 603 LINE",
"437 603 LINE",
"129 0 LINE"
);
}
);
width = 600;
}
);
userData = {
RMXScaler = {
source = seven;
};
};
},
{
color = 1;
glyphname = eight.tf;
lastChange = "2025-01-07 21:15:10 +0000";
layers = (
{
layerId = "B62D1C5F-C6EB-4CFF-8AD4-79D05BEF2DD6";
paths = (
{
closed = 1;
nodes = (
"444 -6 OFFCURVE",
"539 76 OFFCURVE",
"539 201 CURVE SMOOTH",
"539 285 OFFCURVE",
"491 354 OFFCURVE",
"417 379 CURVE",
"472 404 OFFCURVE",
"509 458 OFFCURVE",
"509 521 CURVE SMOOTH",
"509 627 OFFCURVE",
"425 697 OFFCURVE",
"300 697 CURVE SMOOTH",
"175 697 OFFCURVE",
"91 627 OFFCURVE",
"91 521 CURVE SMOOTH",
"91 458 OFFCURVE",
"128 404 OFFCURVE",
"183 379 CURVE",
"109 354 OFFCURVE",
"61 285 OFFCURVE",
"61 201 CURVE SMOOTH",
"61 76 OFFCURVE",
"156 -6 OFFCURVE",
"300 -6 CURVE SMOOTH"
);
},
{
closed = 1;
nodes = (
"213 79 OFFCURVE",
"159 128 OFFCURVE",
"159 205 CURVE SMOOTH",
"159 283 OFFCURVE",
"213 331 OFFCURVE",
"300 331 CURVE SMOOTH",
"387 331 OFFCURVE",
"441 283 OFFCURVE",
"441 205 CURVE SMOOTH",
"441 128 OFFCURVE",
"387 79 OFFCURVE",
"300 79 CURVE SMOOTH"
);
},
{
closed = 1;
nodes = (
"231 418 OFFCURVE",
"189 454 OFFCURVE",
"189 514 CURVE SMOOTH",
"189 575 OFFCURVE",
"231 612 OFFCURVE",
"300 612 CURVE SMOOTH",
"369 612 OFFCURVE",
"411 575 OFFCURVE",
"411 514 CURVE SMOOTH",
"411 454 OFFCURVE",
"369 418 OFFCURVE",
"300 418 CURVE SMOOTH"
);
}
);
width = 600;
}
);
userData = {
RMXScaler = {
source = eight;
};
};
},
{
color = 1;
glyphname = nine.tf;
lastChange = "2025-01-07 21:15:10 +0000";
layers = (
{
layerId = "B62D1C5F-C6EB-4CFF-8AD4-79D05BEF2DD6";
paths = (
{
closed = 1;
nodes = (
"449 380 OFFCURVE",
"395 326 OFFCURVE",
"307 326 CURVE SMOOTH",
"218 326 OFFCURVE",
"164 380 OFFCURVE",
"164 467 CURVE SMOOTH",
"164 556 OFFCURVE",
"218 610 OFFCURVE",
"307 610 CURVE SMOOTH",
"395 610 OFFCURVE",
"449 556 OFFCURVE",
"449 467 CURVE SMOOTH"
);
},
{
closed = 1;
nodes = (
"510 334 OFFCURVE",
"547 382 OFFCURVE",
"547 474 CURVE SMOOTH",
"547 606 OFFCURVE",
"447 697 OFFCURVE",
"307 697 CURVE SMOOTH",
"176 697 OFFCURVE",
"65 608 OFFCURVE",
"65 467 CURVE SMOOTH",
"65 333 OFFCURVE",
"159 242 OFFCURVE",
"293 242 CURVE SMOOTH",
"326 242 OFFCURVE",
"360 249 OFFCURVE",
"377 260 CURVE",
"376 281 LINE",
"200 0 LINE",
"313 0 LINE",
"469 264 LINE SMOOTH"
);
}
);
width = 600;
}
);
userData = {
RMXScaler = {
source = nine;
};
};
},
{
glyphname = zero.dnom;
lastChange = "2025-01-07 21:16:44 +0000";
layers = (
{
layerId = "B62D1C5F-C6EB-4CFF-8AD4-79D05BEF2DD6";
paths = (
{
closed = 1;
nodes = (
"260 -4 OFFCURVE",
"318 53 OFFCURVE",
"318 131 CURVE SMOOTH",
"318 284 LINE SMOOTH",
"318 365 OFFCURVE",
"256 418 OFFCURVE",
"180 418 CURVE SMOOTH",
"101 418 OFFCURVE",
"43 362 OFFCURVE",
"43 284 CURVE SMOOTH",
"43 131 LINE SMOOTH",
"43 53 OFFCURVE",
"101 -4 OFFCURVE",
"180 -4 CURVE SMOOTH"
);
},
{
closed = 1;
nodes = (
"133 50 OFFCURVE",
"101 82 OFFCURVE",
"101 131 CURVE SMOOTH",
"101 284 LINE SMOOTH",
"101 333 OFFCURVE",
"134 365 OFFCURVE",
"180 365 CURVE SMOOTH",
"227 365 OFFCURVE",
"259 332 OFFCURVE",
"259 284 CURVE SMOOTH",
"259 131 LINE SMOOTH",
"259 82 OFFCURVE",
"226 50 OFFCURVE",
"180 50 CURVE SMOOTH"
);
}
);
userData = {
RMXScaler = {
height = 60;
weight = 100;
width = 60;
};
};
width = 361;
}
);
rightKerningGroup = zero.dnom;
userData = {
RMXScaler = {
source = zero;
};
};
},
{
glyphname = one.dnom;
lastChange = "2025-01-07 21:16:44 +0000";
layers = (
{
layerId = "B62D1C5F-C6EB-4CFF-8AD4-79D05BEF2DD6";
paths = (
{
closed = 1;
nodes = (
"190 0 LINE",
"190 415 LINE",
"151 415 LINE",
"33 336 LINE",
"33 273 LINE",
"131 336 LINE",
"131 0 LINE"
);
}
);
userData = {
RMXScaler = {
height = 60;
weight = 100;
width = 60;
};
};
width = 261;
}
);
rightKerningGroup = one.dnom;
userData = {
RMXScaler = {
source = one;
};
};
},
{
glyphname = two.dnom;
lastChange = "2025-01-07 21:21:44 +0000";
layers = (
{
layerId = "B62D1C5F-C6EB-4CFF-8AD4-79D05BEF2DD6";
paths = (
{
closed = 1;
nodes = (
"311 0 LINE",
"311 53 LINE",
"104 53 LINE",
"104 67 LINE SMOOTH",
"104 103 OFFCURVE",
"124 118 OFFCURVE",
"148 131 CURVE SMOOTH",
"211 165 LINE SMOOTH",
"274 199 OFFCURVE",
"305 237 OFFCURVE",
"305 300 CURVE SMOOTH",
"305 371 OFFCURVE",
"251 418 OFFCURVE",
"175 418 CURVE SMOOTH",
"102 418 OFFCURVE",
"50 372 OFFCURVE",
"42 307 CURVE",
"99 300 LINE",
"103 340 OFFCURVE",
"132 365 OFFCURVE",
"175 365 CURVE SMOOTH",
"216 365 OFFCURVE",
"245 339 OFFCURVE",
"245 299 CURVE SMOOTH",
"245 257 OFFCURVE",
"228 235 OFFCURVE",
"185 212 CURVE SMOOTH",
"121 178 LINE SMOOTH",
"76 154 OFFCURVE",
"46 126 OFFCURVE",
"46 64 CURVE SMOOTH",
"46 0 LINE"
);
}
);
userData = {
RMXScaler = {
height = 60;
weight = 100;
width = 60;
};
};
width = 353;
}
);
rightKerningGroup = onehalf;
userData = {
RMXScaler = {
source = two;
};
};
},
{
glyphname = three.dnom;
lastChange = "2025-01-07 21:16:44 +0000";
layers = (
{
layerId = "B62D1C5F-C6EB-4CFF-8AD4-79D05BEF2DD6";
paths = (
{
closed = 1;
nodes = (
"250 -4 OFFCURVE",
"310 49 OFFCURVE",
"310 120 CURVE SMOOTH",
"310 165 OFFCURVE",
"285 205 OFFCURVE",
"244 218 CURVE",
"277 233 OFFCURVE",
"299 266 OFFCURVE",
"299 307 CURVE SMOOTH",
"299 375 OFFCURVE",
"246 418 OFFCURVE",
"172 418 CURVE SMOOTH",
"100 418 OFFCURVE",
"49 375 OFFCURVE",
"41 316 CURVE",
"97 307 LINE",
"102 342 OFFCURVE",
"128 365 OFFCURVE",
"170 365 CURVE SMOOTH",
"213 365 OFFCURVE",
"239 341 OFFCURVE",
"239 304 CURVE SMOOTH",
"239 265 OFFCURVE",
"211 239 OFFCURVE",
"176 239 CURVE SMOOTH",
"121 239 LINE",
"121 188 LINE",
"181 188 LINE SMOOTH",
"222 188 OFFCURVE",
"250 163 OFFCURVE",
"250 123 CURVE SMOOTH",
"250 79 OFFCURVE",
"217 50 OFFCURVE",
"167 50 CURVE SMOOTH",
"124 50 OFFCURVE",
"91 73 OFFCURVE",
"85 113 CURVE",
"27 104 LINE",
"33 40 OFFCURVE",
"91 -4 OFFCURVE",
"167 -4 CURVE SMOOTH"
);
}
);
userData = {
RMXScaler = {
height = 60;
weight = 100;
width = 60;
};
};
width = 352;
}
);
rightKerningGroup = three.dnom;
userData = {
RMXScaler = {
source = three;
};
};
},
{
glyphname = four.dnom;
lastChange = "2025-01-07 21:16:44 +0000";
layers = (
{
layerId = "B62D1C5F-C6EB-4CFF-8AD4-79D05BEF2DD6";
paths = (
{
closed = 1;
nodes = (
"277 0 LINE",
"277 103 LINE",
"357 103 LINE",
"357 156 LINE",
"277 156 LINE",
"277 251 LINE",
"218 251 LINE",
"218 156 LINE",
"94 156 LINE",
"268 415 LINE",
"202 415 LINE",
"21 146 LINE",
"21 103 LINE",
"218 103 LINE",
"218 0 LINE"
);
}
);
userData = {
RMXScaler = {
height = 60;
weight = 100;
width = 60;
};
};
width = 378;
}
);
rightKerningGroup = four.dnom;
userData = {
RMXScaler = {
source = four;
};
};
},
{
glyphname = five.dnom;
lastChange = "2025-01-07 21:16:44 +0000";
layers = (
{
layerId = "B62D1C5F-C6EB-4CFF-8AD4-79D05BEF2DD6";
paths = (
{
closed = 1;
nodes = (
"253 -4 OFFCURVE",
"311 51 OFFCURVE",
"311 130 CURVE SMOOTH",
"311 209 OFFCURVE",
"255 260 OFFCURVE",
"177 260 CURVE SMOOTH",
"149 260 OFFCURVE",
"121 252 OFFCURVE",
"101 238 CURVE",
"112 362 LINE",
"310 362 LINE",
"310 415 LINE",
"61 415 LINE",
"40 182 LINE",
"91 172 LINE",
"109 193 OFFCURVE",
"138 207 OFFCURVE",
"173 207 CURVE SMOOTH",
"220 207 OFFCURVE",
"251 176 OFFCURVE",
"251 129 CURVE SMOOTH",
"251 81 OFFCURVE",
"220 49 OFFCURVE",
"172 49 CURVE SMOOTH",
"122 49 OFFCURVE",
"92 75 OFFCURVE",
"85 115 CURVE",
"27 107 LINE",
"38 39 OFFCURVE",
"92 -4 OFFCURVE",
"172 -4 CURVE SMOOTH"
);
}
);
userData = {
RMXScaler = {
height = 60;
weight = 100;
width = 60;
};
};
width = 353;
}
);
rightKerningGroup = five.dnom;
userData = {
RMXScaler = {
source = five;
};
};
},
{
glyphname = six.dnom;
lastChange = "2025-01-07 21:16:44 +0000";
layers = (
{
layerId = "B62D1C5F-C6EB-4CFF-8AD4-79D05BEF2DD6";
paths = (
{
closed = 1;
nodes = (
"98 186 OFFCURVE",
"130 219 OFFCURVE",
"183 219 CURVE SMOOTH",
"236 219 OFFCURVE",
"269 187 OFFCURVE",
"269 134 CURVE SMOOTH",
"269 81 OFFCURVE",
"236 49 OFFCURVE",
"183 49 CURVE SMOOTH",
"131 49 OFFCURVE",
"98 81 OFFCURVE",
"98 134 CURVE SMOOTH"
);
},
{
closed = 1;
nodes = (
"61 214 OFFCURVE",
"39 186 OFFCURVE",
"39 130 CURVE SMOOTH",
"39 51 OFFCURVE",
"99 -4 OFFCURVE",
"183 -4 CURVE SMOOTH",
"262 -4 OFFCURVE",
"328 50 OFFCURVE",
"328 134 CURVE SMOOTH",
"328 214 OFFCURVE",
"272 269 OFFCURVE",
"191 269 CURVE SMOOTH",
"171 269 OFFCURVE",
"151 265 OFFCURVE",
"141 259 CURVE",
"142 246 LINE",
"247 415 LINE",
"179 415 LINE",
"85 255 LINE SMOOTH"
);
}
);
userData = {
RMXScaler = {
height = 60;
weight = 100;
width = 60;
};
};
width = 367;
}
);
rightKerningGroup = six.dnom;
userData = {
RMXScaler = {
source = six;
};
};
},
{
glyphname = seven.dnom;
lastChange = "2025-01-07 21:16:44 +0000";
layers = (
{
layerId = "B62D1C5F-C6EB-4CFF-8AD4-79D05BEF2DD6";
paths = (
{
closed = 1;
nodes = (
"123 0 LINE",
"310 368 LINE",
"310 415 LINE",
"21 415 LINE",
"21 362 LINE",
"242 362 LINE",
"57 0 LINE"
);
}
);
userData = {
RMXScaler = {
height = 60;
weight = 100;
width = 60;
};
};
width = 331;
}
);
userData = {
RMXScaler = {
source = seven;
};
};
},
{
glyphname = eight.dnom;
lastChange = "2025-01-08 16:48:00 +0000";
layers = (
{
layerId = "B62D1C5F-C6EB-4CFF-8AD4-79D05BEF2DD6";
paths = (
{
closed = 1;
nodes = (
"269 -4 OFFCURVE",
"326 46 OFFCURVE",
"326 121 CURVE SMOOTH",
"326 171 OFFCURVE",
"297 212 OFFCURVE",
"253 227 CURVE",
"286 242 OFFCURVE",
"308 275 OFFCURVE",
"308 313 CURVE SMOOTH",
"308 376 OFFCURVE",
"257 418 OFFCURVE",
"182 418 CURVE SMOOTH",
"108 418 OFFCURVE",
"57 376 OFFCURVE",
"57 313 CURVE SMOOTH",
"57 275 OFFCURVE",
"79 242 OFFCURVE",
"112 227 CURVE",
"68 212 OFFCURVE",
"39 171 OFFCURVE",
"39 121 CURVE SMOOTH",
"39 46 OFFCURVE",
"96 -4 OFFCURVE",
"182 -4 CURVE SMOOTH"
);
},
{
closed = 1;
nodes = (
"130 47 OFFCURVE",
"98 77 OFFCURVE",
"98 123 CURVE SMOOTH",
"98 170 OFFCURVE",
"131 199 OFFCURVE",
"182 199 CURVE SMOOTH",
"234 199 OFFCURVE",
"267 170 OFFCURVE",
"267 123 CURVE SMOOTH",
"267 77 OFFCURVE",
"235 47 OFFCURVE",
"182 47 CURVE SMOOTH"
);
},
{
closed = 1;
nodes = (
"141 251 OFFCURVE",
"116 273 OFFCURVE",
"116 308 CURVE SMOOTH",
"116 345 OFFCURVE",
"142 367 OFFCURVE",
"182 367 CURVE SMOOTH",
"223 367 OFFCURVE",
"249 345 OFFCURVE",
"249 308 CURVE SMOOTH",
"249 273 OFFCURVE",
"224 251 OFFCURVE",
"182 251 CURVE SMOOTH"
);
}
);
userData = {
RMXScaler = {
height = 60;
weight = 100;
width = 60;
};
};
width = 365;
}
);
rightKerningGroup = three.dnom;
userData = {
KernOnName = eight.dnom;
RMXScaler = {
source = eight;
};
};
},
{
glyphname = nine.dnom;
lastChange = "2025-01-07 21:16:44 +0000";
layers = (
{
layerId = "B62D1C5F-C6EB-4CFF-8AD4-79D05BEF2DD6";
paths = (
{
closed = 1;
nodes = (
"265 228 OFFCURVE",
"232 196 OFFCURVE",
"180 196 CURVE SMOOTH",
"127 196 OFFCURVE",
"94 228 OFFCURVE",
"94 280 CURVE SMOOTH",
"94 334 OFFCURVE",
"127 366 OFFCURVE",
"180 366 CURVE SMOOTH",
"233 366 OFFCURVE",
"265 333 OFFCURVE",
"265 280 CURVE SMOOTH"
);
},
{
closed = 1;
nodes = (
"303 202 OFFCURVE",
"324 230 OFFCURVE",
"324 284 CURVE SMOOTH",
"324 363 OFFCURVE",
"264 418 OFFCURVE",
"180 418 CURVE SMOOTH",
"102 418 OFFCURVE",
"35 365 OFFCURVE",
"35 280 CURVE SMOOTH",
"35 200 OFFCURVE",
"91 145 OFFCURVE",
"172 145 CURVE SMOOTH",
"191 145 OFFCURVE",
"211 149 OFFCURVE",
"222 156 CURVE",
"222 169 LINE",
"116 0 LINE",
"184 0 LINE",
"277 158 LINE SMOOTH"
);
}
);
userData = {
RMXScaler = {
height = 60;
weight = 100;
width = 60;
};
};
width = 363;
}
);
rightKerningGroup = nine.dnom;
userData = {
RMXScaler = {
source = nine;
};
};
},
{
glyphname = zero.numr;
lastChange = "2025-01-07 21:17:49 +0000";
layers = (
{
layerId = "B62D1C5F-C6EB-4CFF-8AD4-79D05BEF2DD6";
paths = (
{
closed = 1;
nodes = (
"260 272 OFFCURVE",
"318 329 OFFCURVE",
"318 407 CURVE SMOOTH",
"318 560 LINE SMOOTH",
"318 641 OFFCURVE",
"256 694 OFFCURVE",
"180 694 CURVE SMOOTH",
"101 694 OFFCURVE",
"43 638 OFFCURVE",
"43 560 CURVE SMOOTH",
"43 407 LINE SMOOTH",
"43 329 OFFCURVE",
"101 272 OFFCURVE",
"180 272 CURVE SMOOTH"
);
},
{
closed = 1;
nodes = (
"133 326 OFFCURVE",
"101 358 OFFCURVE",
"101 407 CURVE SMOOTH",
"101 560 LINE SMOOTH",
"101 609 OFFCURVE",
"134 641 OFFCURVE",
"180 641 CURVE SMOOTH",
"227 641 OFFCURVE",
"259 608 OFFCURVE",
"259 560 CURVE SMOOTH",
"259 407 LINE SMOOTH",
"259 358 OFFCURVE",
"226 326 OFFCURVE",
"180 326 CURVE SMOOTH"
);
}
);
userData = {
RMXScaler = {
height = 60;
weight = 100;
width = 60;
};
};
width = 361;
}
);
userData = {
RMXScaler = {
source = zero;
};
};
},
{
glyphname = one.numr;
lastChange = "2025-01-07 21:17:49 +0000";
layers = (
{
layerId = "B62D1C5F-C6EB-4CFF-8AD4-79D05BEF2DD6";
paths = (
{
closed = 1;
nodes = (
"190 276 LINE",
"190 691 LINE",
"151 691 LINE",
"33 612 LINE",
"33 549 LINE",
"131 612 LINE",
"131 276 LINE"
);
}
);
userData = {
RMXScaler = {
height = 60;
weight = 100;
width = 60;
};
};
width = 261;
}
);
leftKerningGroup = one.numr;
userData = {
RMXScaler = {
source = one;
};
};
},
{
glyphname = two.numr;
lastChange = "2025-01-07 21:17:49 +0000";
layers = (
{
layerId = "B62D1C5F-C6EB-4CFF-8AD4-79D05BEF2DD6";
paths = (
{
closed = 1;
nodes = (
"311 276 LINE",
"311 329 LINE",
"104 329 LINE",
"104 343 LINE SMOOTH",
"104 379 OFFCURVE",
"124 394 OFFCURVE",
"148 407 CURVE SMOOTH",
"211 441 LINE SMOOTH",
"274 475 OFFCURVE",
"305 513 OFFCURVE",
"305 576 CURVE SMOOTH",
"305 647 OFFCURVE",
"251 694 OFFCURVE",
"175 694 CURVE SMOOTH",
"102 694 OFFCURVE",
"50 648 OFFCURVE",
"42 583 CURVE",
"99 576 LINE",
"103 616 OFFCURVE",
"132 641 OFFCURVE",
"175 641 CURVE SMOOTH",
"216 641 OFFCURVE",
"245 615 OFFCURVE",
"245 575 CURVE SMOOTH",
"245 533 OFFCURVE",
"228 511 OFFCURVE",
"185 488 CURVE SMOOTH",
"121 454 LINE SMOOTH",
"76 430 OFFCURVE",
"46 402 OFFCURVE",
"46 340 CURVE SMOOTH",
"46 276 LINE"
);
}
);
userData = {
RMXScaler = {
height = 60;
weight = 100;
width = 60;
};
};
width = 353;
}
);
userData = {
RMXScaler = {
source = two;
};
};
},
{
glyphname = three.numr;
lastChange = "2025-01-08 16:44:30 +0000";
layers = (
{
layerId = "B62D1C5F-C6EB-4CFF-8AD4-79D05BEF2DD6";
paths = (
{
closed = 1;
nodes = (
"250 272 OFFCURVE",
"310 325 OFFCURVE",
"310 396 CURVE SMOOTH",
"310 441 OFFCURVE",
"285 481 OFFCURVE",
"244 494 CURVE",
"277 509 OFFCURVE",
"299 542 OFFCURVE",
"299 583 CURVE SMOOTH",
"299 651 OFFCURVE",
"246 694 OFFCURVE",
"172 694 CURVE SMOOTH",
"100 694 OFFCURVE",
"49 651 OFFCURVE",
"41 592 CURVE",
"97 583 LINE",
"102 618 OFFCURVE",
"128 641 OFFCURVE",
"170 641 CURVE SMOOTH",
"213 641 OFFCURVE",
"239 617 OFFCURVE",
"239 580 CURVE SMOOTH",
"239 541 OFFCURVE",
"211 515 OFFCURVE",
"176 515 CURVE SMOOTH",
"121 515 LINE",
"121 464 LINE",
"181 464 LINE SMOOTH",
"222 464 OFFCURVE",
"250 439 OFFCURVE",
"250 399 CURVE SMOOTH",
"250 355 OFFCURVE",
"217 326 OFFCURVE",
"167 326 CURVE SMOOTH",
"124 326 OFFCURVE",
"91 349 OFFCURVE",
"85 389 CURVE",
"27 380 LINE",
"33 316 OFFCURVE",
"91 272 OFFCURVE",
"167 272 CURVE SMOOTH"
);
}
);
userData = {
RMXScaler = {
height = 60;
weight = 100;
width = 60;
};
};
width = 352;
}
);
leftKerningGroup = three.numr;
userData = {
RMXScaler = {
source = three;
};
};
},
{
glyphname = four.numr;
lastChange = "2025-01-07 21:17:49 +0000";
layers = (
{
layerId = "B62D1C5F-C6EB-4CFF-8AD4-79D05BEF2DD6";
paths = (
{
closed = 1;
nodes = (
"277 276 LINE",
"277 379 LINE",
"357 379 LINE",
"357 432 LINE",
"277 432 LINE",
"277 527 LINE",
"218 527 LINE",
"218 432 LINE",
"94 432 LINE",
"268 691 LINE",
"202 691 LINE",
"21 422 LINE",
"21 379 LINE",
"218 379 LINE",
"218 276 LINE"
);
}
);
userData = {
RMXScaler = {
height = 60;
weight = 100;
width = 60;
};
};
width = 378;
}
);
userData = {
RMXScaler = {
source = four;
};
};
},
{
glyphname = five.numr;
lastChange = "2025-01-07 21:17:49 +0000";
layers = (
{
layerId = "B62D1C5F-C6EB-4CFF-8AD4-79D05BEF2DD6";
paths = (
{
closed = 1;
nodes = (
"253 272 OFFCURVE",
"311 327 OFFCURVE",
"311 406 CURVE SMOOTH",
"311 485 OFFCURVE",
"255 536 OFFCURVE",
"177 536 CURVE SMOOTH",
"149 536 OFFCURVE",
"121 528 OFFCURVE",
"101 514 CURVE",
"112 638 LINE",
"310 638 LINE",
"310 691 LINE",
"61 691 LINE",
"40 458 LINE",
"91 448 LINE",
"109 469 OFFCURVE",
"138 483 OFFCURVE",
"173 483 CURVE SMOOTH",
"220 483 OFFCURVE",
"251 452 OFFCURVE",
"251 405 CURVE SMOOTH",
"251 357 OFFCURVE",
"220 325 OFFCURVE",
"172 325 CURVE SMOOTH",
"122 325 OFFCURVE",
"92 351 OFFCURVE",
"85 391 CURVE",
"27 383 LINE",
"38 315 OFFCURVE",
"92 272 OFFCURVE",
"172 272 CURVE SMOOTH"
);
}
);
userData = {
RMXScaler = {
height = 60;
weight = 100;
width = 60;
};
};
width = 353;
}
);
userData = {
RMXScaler = {
source = five;
};
};
},
{
glyphname = six.numr;
lastChange = "2025-01-07 21:17:49 +0000";
layers = (
{
layerId = "B62D1C5F-C6EB-4CFF-8AD4-79D05BEF2DD6";
paths = (
{
closed = 1;
nodes = (
"98 462 OFFCURVE",
"130 495 OFFCURVE",
"183 495 CURVE SMOOTH",
"236 495 OFFCURVE",
"269 463 OFFCURVE",
"269 410 CURVE SMOOTH",
"269 357 OFFCURVE",
"236 325 OFFCURVE",
"183 325 CURVE SMOOTH",
"131 325 OFFCURVE",
"98 357 OFFCURVE",
"98 410 CURVE SMOOTH"
);
},
{
closed = 1;
nodes = (
"61 490 OFFCURVE",
"39 462 OFFCURVE",
"39 406 CURVE SMOOTH",
"39 327 OFFCURVE",
"99 272 OFFCURVE",
"183 272 CURVE SMOOTH",
"262 272 OFFCURVE",
"328 326 OFFCURVE",
"328 410 CURVE SMOOTH",
"328 490 OFFCURVE",
"272 545 OFFCURVE",
"191 545 CURVE SMOOTH",
"171 545 OFFCURVE",
"151 541 OFFCURVE",
"141 535 CURVE",
"142 522 LINE",
"247 691 LINE",
"179 691 LINE",
"85 531 LINE SMOOTH"
);
}
);
userData = {
RMXScaler = {
height = 60;
weight = 100;
width = 60;
};
};
width = 367;
}
);
userData = {
RMXScaler = {
source = six;
};
};
},
{
glyphname = seven.numr;
lastChange = "2025-01-08 16:44:30 +0000";
layers = (
{
layerId = "B62D1C5F-C6EB-4CFF-8AD4-79D05BEF2DD6";
paths = (
{
closed = 1;
nodes = (
"123 276 LINE",
"310 644 LINE",
"310 691 LINE",
"21 691 LINE",
"21 638 LINE",
"242 638 LINE",
"57 276 LINE"
);
}
);
userData = {
RMXScaler = {
height = 60;
weight = 100;
width = 60;
};
};
width = 331;
}
);
userData = {
RMXScaler = {
source = seven;
};
};
},
{
glyphname = eight.numr;
lastChange = "2025-01-07 21:17:49 +0000";
layers = (
{
layerId = "B62D1C5F-C6EB-4CFF-8AD4-79D05BEF2DD6";
paths = (
{
closed = 1;
nodes = (
"269 272 OFFCURVE",
"326 322 OFFCURVE",
"326 397 CURVE SMOOTH",
"326 447 OFFCURVE",
"297 488 OFFCURVE",
"253 503 CURVE",
"286 518 OFFCURVE",
"308 551 OFFCURVE",
"308 589 CURVE SMOOTH",
"308 652 OFFCURVE",
"257 694 OFFCURVE",
"182 694 CURVE SMOOTH",
"108 694 OFFCURVE",
"57 652 OFFCURVE",
"57 589 CURVE SMOOTH",
"57 551 OFFCURVE",
"79 518 OFFCURVE",
"112 503 CURVE",
"68 488 OFFCURVE",
"39 447 OFFCURVE",
"39 397 CURVE SMOOTH",
"39 322 OFFCURVE",
"96 272 OFFCURVE",
"182 272 CURVE SMOOTH"
);
},
{
closed = 1;
nodes = (
"130 323 OFFCURVE",
"98 353 OFFCURVE",
"98 399 CURVE SMOOTH",
"98 446 OFFCURVE",
"131 475 OFFCURVE",
"182 475 CURVE SMOOTH",
"234 475 OFFCURVE",
"267 446 OFFCURVE",
"267 399 CURVE SMOOTH",
"267 353 OFFCURVE",
"235 323 OFFCURVE",
"182 323 CURVE SMOOTH"
);
},
{
closed = 1;
nodes = (
"141 527 OFFCURVE",
"116 549 OFFCURVE",
"116 584 CURVE SMOOTH",
"116 621 OFFCURVE",
"142 643 OFFCURVE",
"182 643 CURVE SMOOTH",
"223 643 OFFCURVE",
"249 621 OFFCURVE",
"249 584 CURVE SMOOTH",
"249 549 OFFCURVE",
"224 527 OFFCURVE",
"182 527 CURVE SMOOTH"
);
}
);
userData = {
RMXScaler = {
height = 60;
weight = 100;
width = 60;
};
};
width = 365;
}
);
userData = {
RMXScaler = {
source = eight;
};
};
},
{
glyphname = nine.numr;
lastChange = "2025-01-07 21:17:49 +0000";
layers = (
{
layerId = "B62D1C5F-C6EB-4CFF-8AD4-79D05BEF2DD6";
paths = (
{
closed = 1;
nodes = (
"265 504 OFFCURVE",
"232 472 OFFCURVE",
"180 472 CURVE SMOOTH",
"127 472 OFFCURVE",
"94 504 OFFCURVE",
"94 556 CURVE SMOOTH",
"94 610 OFFCURVE",
"127 642 OFFCURVE",
"180 642 CURVE SMOOTH",
"233 642 OFFCURVE",
"265 609 OFFCURVE",
"265 556 CURVE SMOOTH"
);
},
{
closed = 1;
nodes = (
"303 478 OFFCURVE",
"324 506 OFFCURVE",
"324 560 CURVE SMOOTH",
"324 639 OFFCURVE",
"264 694 OFFCURVE",
"180 694 CURVE SMOOTH",
"102 694 OFFCURVE",
"35 641 OFFCURVE",
"35 556 CURVE SMOOTH",
"35 476 OFFCURVE",
"91 421 OFFCURVE",
"172 421 CURVE SMOOTH",
"191 421 OFFCURVE",
"211 425 OFFCURVE",
"222 432 CURVE",
"222 445 LINE",
"116 276 LINE",
"184 276 LINE",
"277 434 LINE SMOOTH"
);
}
);
userData = {
RMXScaler = {
height = 60;
weight = 100;
width = 60;
};
};
width = 363;
}
);
userData = {
RMXScaler = {
source = nine;
};
};
},
{
glyphname = fraction;
lastChange = "2025-01-08 16:48:00 +0000";
layers = (
{
layerId = "B62D1C5F-C6EB-4CFF-8AD4-79D05BEF2DD6";
paths = (
{
closed = 1;
nodes = (
"-103 0 LINE",
"394 691 LINE",
"318 691 LINE",
"-180 0 LINE"
);
}
);
width = 214;
}
);
unicode = 2044;
userData = {
KernOnName = fraction;
KernOnSpecialSpacing = {
L = fraction;
R = fraction;
};
};
},
{
glyphname = period;
lastChange = "2025-01-08 15:24:30 +0000";
layers = (
{
anchors = (
{
name = _center;
position = "{-73, 59}";
}
);
background = {
paths = (
{
closed = 1;
nodes = (
"46 20 OFFCURVE",
"59 -6 OFFCURVE",
"112 -6 CURVE SMOOTH",
"152 -6 OFFCURVE",
"178 7 OFFCURVE",
"178 59 CURVE SMOOTH",
"178 98 OFFCURVE",
"165 124 OFFCURVE",
"112 124 CURVE SMOOTH",
"72 124 OFFCURVE",
"46 111 OFFCURVE",
"46 59 CURVE SMOOTH"
);
}
);
};
layerId = "B62D1C5F-C6EB-4CFF-8AD4-79D05BEF2DD6";
paths = (
{
closed = 1;
nodes = (
"151 -6 OFFCURVE",
"179 22 OFFCURVE",
"179 59 CURVE SMOOTH",
"179 96 OFFCURVE",
"151 124 OFFCURVE",
"112 124 CURVE SMOOTH",
"73 124 OFFCURVE",
"45 96 OFFCURVE",
"45 59 CURVE SMOOTH",
"45 22 OFFCURVE",
"73 -6 OFFCURVE",
"112 -6 CURVE SMOOTH"
);
}
);
width = 224;
}
);
leftKerningGroup = period;
rightKerningGroup = period;
unicode = 002E;
userData = {
KernOnSpecialSpacing = {
L = period;
R = period;
};
};
},
{
glyphname = comma;
lastChange = "2025-01-08 15:08:34 +0000";
layers = (
{
anchors = (
{
name = _topright;
position = "{4, 122}";
}
);
background = {
paths = (
{
closed = 1;
nodes = (
"97 -126 LINE SMOOTH",
"146 -126 OFFCURVE",
"179 -100 OFFCURVE",
"179 -44 CURVE SMOOTH",
"179 52 LINE SMOOTH",
"179 102 OFFCURVE",
"148 124 OFFCURVE",
"114 124 CURVE SMOOTH",
"75 124 OFFCURVE",
"45 96 OFFCURVE",
"45 58 CURVE SMOOTH",
"45 20 OFFCURVE",
"70 -6 OFFCURVE",
"112 -6 CURVE SMOOTH",
"117 -6 OFFCURVE",
"122 -6 OFFCURVE",
"126 -5 CURVE",
"126 -61 LINE",
"25 -61 LINE",
"25 -126 LINE"
);
}
);
};
layerId = "B62D1C5F-C6EB-4CFF-8AD4-79D05BEF2DD6";
paths = (
{
closed = 1;
nodes = (
"59 -126 LINE SMOOTH",
"141 -126 OFFCURVE",
"179 -86 OFFCURVE",
"179 -16 CURVE SMOOTH",
"179 47 LINE SMOOTH",
"179 95 OFFCURVE",
"151 122 OFFCURVE",
"112 122 CURVE SMOOTH",
"73 122 OFFCURVE",
"44 96 OFFCURVE",
"44 57 CURVE SMOOTH",
"44 21 OFFCURVE",
"68 -3 OFFCURVE",
"104 -3 CURVE SMOOTH",
"111 -3 OFFCURVE",
"118 -2 OFFCURVE",
"126 1 CURVE",
"126 -12 LINE SMOOTH",
"126 -41 OFFCURVE",
"110 -61 OFFCURVE",
"59 -61 CURVE SMOOTH",
"25 -61 LINE",
"25 -126 LINE"
);
}
);
width = 224;
}
);
leftKerningGroup = comma;
rightKerningGroup = quotedblbase;
unicode = 002C;
userData = {
KernOnSpecialSpacing = {
L = period;
R = period;
};
};
},
{
glyphname = colon;
lastChange = "2025-01-07 21:15:10 +0000";
layers = (
{
layerId = "B62D1C5F-C6EB-4CFF-8AD4-79D05BEF2DD6";
paths = (
{
closed = 1;
nodes = (
"165 376 OFFCURVE",
"193 404 OFFCURVE",
"193 441 CURVE SMOOTH",
"193 478 OFFCURVE",
"165 506 OFFCURVE",
"126 506 CURVE SMOOTH",
"87 506 OFFCURVE",
"59 478 OFFCURVE",
"59 441 CURVE SMOOTH",
"59 404 OFFCURVE",
"87 376 OFFCURVE",
"126 376 CURVE SMOOTH"
);
},
{
closed = 1;
nodes = (
"165 -6 OFFCURVE",
"193 22 OFFCURVE",
"193 59 CURVE SMOOTH",
"193 96 OFFCURVE",
"165 124 OFFCURVE",
"126 124 CURVE SMOOTH",
"87 124 OFFCURVE",
"59 96 OFFCURVE",
"59 59 CURVE SMOOTH",
"59 22 OFFCURVE",
"87 -6 OFFCURVE",
"126 -6 CURVE SMOOTH"
);
}
);
width = 252;
}
);
leftKerningGroup = colon;
rightKerningGroup = colon;
unicode = 003A;
userData = {
KernOnSpecialSpacing = {
L = "spaced-off";
R = "spaced-off";
};
};
},
{
glyphname = semicolon;
lastChange = "2025-01-07 21:15:10 +0000";
layers = (
{
background = {
paths = (
{
closed = 1;
nodes = (
"111 -126 LINE SMOOTH",
"160 -126 OFFCURVE",
"193 -100 OFFCURVE",
"193 -44 CURVE SMOOTH",
"193 52 LINE SMOOTH",
"193 102 OFFCURVE",
"162 124 OFFCURVE",
"128 124 CURVE SMOOTH",
"89 124 OFFCURVE",
"59 96 OFFCURVE",
"59 58 CURVE SMOOTH",
"59 20 OFFCURVE",
"84 -6 OFFCURVE",
"126 -6 CURVE SMOOTH",
"131 -6 OFFCURVE",
"136 -6 OFFCURVE",
"140 -5 CURVE",
"140 -61 LINE",
"39 -61 LINE",
"39 -126 LINE"
);
},
{
closed = 1;
nodes = (
"165 376 OFFCURVE",
"193 404 OFFCURVE",
"193 441 CURVE SMOOTH",
"193 478 OFFCURVE",
"165 506 OFFCURVE",
"126 506 CURVE SMOOTH",
"87 506 OFFCURVE",
"59 478 OFFCURVE",
"59 441 CURVE SMOOTH",
"59 404 OFFCURVE",
"87 376 OFFCURVE",
"126 376 CURVE SMOOTH"
);
}
);
};
layerId = "B62D1C5F-C6EB-4CFF-8AD4-79D05BEF2DD6";
paths = (
{
closed = 1;
nodes = (
"75 -126 LINE SMOOTH",
"146 -126 OFFCURVE",
"193 -95 OFFCURVE",
"193 -17 CURVE SMOOTH",
"193 49 LINE SMOOTH",
"193 94 OFFCURVE",
"164 122 OFFCURVE",
"126 122 CURVE SMOOTH",
"87 122 OFFCURVE",
"58 96 OFFCURVE",
"58 57 CURVE SMOOTH",
"58 21 OFFCURVE",
"82 -3 OFFCURVE",
"118 -3 CURVE SMOOTH",
"125 -3 OFFCURVE",
"132 -2 OFFCURVE",
"140 1 CURVE",
"140 -12 LINE SMOOTH",
"140 -41 OFFCURVE",
"124 -61 OFFCURVE",
"73 -61 CURVE SMOOTH",
"39 -61 LINE",
"39 -126 LINE"
);
},
{
closed = 1;
nodes = (
"165 376 OFFCURVE",
"193 404 OFFCURVE",
"193 441 CURVE SMOOTH",
"193 478 OFFCURVE",
"165 506 OFFCURVE",
"126 506 CURVE SMOOTH",
"87 506 OFFCURVE",
"59 478 OFFCURVE",
"59 441 CURVE SMOOTH",
"59 404 OFFCURVE",
"87 376 OFFCURVE",
"126 376 CURVE SMOOTH"
);
}
);
width = 238;
}
);
leftKerningGroup = semicolon;
rightMetricsKey = period;
unicode = 003B;
userData = {
KernOnSpecialSpacing = {
L = "spaced-off";
R = "spaced-off";
};
};
},
{
glyphname = exclam;
lastChange = "2025-01-07 21:52:04 +0000";
layers = (
{
background = {
paths = (
{
closed = 1;
nodes = (
"64 211 LINE",
"148 211 LINE",
"155 691 LINE",
"57 691 LINE"
);
},
{
closed = 1;
nodes = (
"145 -6 OFFCURVE",
"173 22 OFFCURVE",
"173 59 CURVE SMOOTH",
"173 96 OFFCURVE",
"145 124 OFFCURVE",
"106 124 CURVE SMOOTH",
"67 124 OFFCURVE",
"39 96 OFFCURVE",
"39 59 CURVE SMOOTH",
"39 22 OFFCURVE",
"67 -6 OFFCURVE",
"106 -6 CURVE SMOOTH"
);
}
);
};
layerId = "B62D1C5F-C6EB-4CFF-8AD4-79D05BEF2DD6";
paths = (
{
closed = 1;
nodes = (
"137 211 LINE",
"155 431 LINE",
"155 691 LINE",
"57 691 LINE",
"57 431 LINE",
"75 211 LINE"
);
},
{
closed = 1;
nodes = (
"145 -6 OFFCURVE",
"173 22 OFFCURVE",
"173 59 CURVE SMOOTH",
"173 96 OFFCURVE",
"145 124 OFFCURVE",
"106 124 CURVE SMOOTH",
"67 124 OFFCURVE",
"39 96 OFFCURVE",
"39 59 CURVE SMOOTH",
"39 22 OFFCURVE",
"67 -6 OFFCURVE",
"106 -6 CURVE SMOOTH"
);
}
);
width = 212;
}
);
leftKerningGroup = exclam;
rightKerningGroup = exclam;
unicode = 0021;
userData = {
KernOnSpecialSpacing = {
L = "spaced-off";
};
};
},
{
glyphname = question;
lastChange = "2025-01-08 15:22:12 +0000";
layers = (
{
background = {
paths = (
{
closed = 1;
nodes = (
"132 499 LINE",
"140 565 OFFCURVE",
"191 609 OFFCURVE",
"260 609 CURVE SMOOTH",
"323 609 OFFCURVE",
"368 566 OFFCURVE",
"368 507 CURVE SMOOTH",
"368 391 OFFCURVE",
"206 356 OFFCURVE",
"206 219 CURVE",
"296 219 LINE",
"296 317 OFFCURVE",
"462 364 OFFCURVE",
"462 517 CURVE SMOOTH",
"462 625 OFFCURVE",
"382 697 OFFCURVE",
"264 697 CURVE SMOOTH",
"143 697 OFFCURVE",
"55 623 OFFCURVE",
"44 511 CURVE"
);
},
{
closed = 1;
nodes = (
"188 19 OFFCURVE",
"201 -6 OFFCURVE",
"256 -6 CURVE SMOOTH",
"295 -6 OFFCURVE",
"320 7 OFFCURVE",
"320 60 CURVE SMOOTH",
"320 99 OFFCURVE",
"307 124 OFFCURVE",
"252 124 CURVE SMOOTH",
"213 124 OFFCURVE",
"188 111 OFFCURVE",
"188 58 CURVE SMOOTH"
);
}
);
};
layerId = "B62D1C5F-C6EB-4CFF-8AD4-79D05BEF2DD6";
paths = (
{
closed = 1;
nodes = (
"312 199 LINE",
"312 294 LINE",
"429 315 OFFCURVE",
"496 391 OFFCURVE",
"496 494 CURVE SMOOTH",
"496 614 OFFCURVE",
"402 697 OFFCURVE",
"275 697 CURVE SMOOTH",
"148 697 OFFCURVE",
"51 616 OFFCURVE",
"42 492 CURVE",
"133 480 LINE",
"139 557 OFFCURVE",
"192 608 OFFCURVE",
"273 608 CURVE SMOOTH",
"347 608 OFFCURVE",
"400 564 OFFCURVE",
"400 486 CURVE SMOOTH",
"400 409 OFFCURVE",
"345 355 OFFCURVE",
"222 348 CURVE",
"222 199 LINE"
);
},
{
closed = 1;
nodes = (
"307 -6 OFFCURVE",
"335 22 OFFCURVE",
"335 59 CURVE SMOOTH",
"335 96 OFFCURVE",
"307 124 OFFCURVE",
"268 124 CURVE SMOOTH",
"229 124 OFFCURVE",
"201 96 OFFCURVE",
"201 59 CURVE SMOOTH",
"201 22 OFFCURVE",
"229 -6 OFFCURVE",
"268 -6 CURVE SMOOTH"
);
}
);
width = 558;
}
);
leftKerningGroup = question;
rightKerningGroup = question;
unicode = 003F;
userData = {
KernOnSpecialSpacing = {
L = "spaced-off";
};
};
},
{
glyphname = periodcentered;
lastChange = "2025-01-07 21:15:10 +0000";
layers = (
{
layerId = "B62D1C5F-C6EB-4CFF-8AD4-79D05BEF2DD6";
paths = (
{
closed = 1;
nodes = (
"87 217 OFFCURVE",
"131 176 OFFCURVE",
"185 176 CURVE SMOOTH",
"235 176 OFFCURVE",
"283 213 OFFCURVE",
"283 273 CURVE SMOOTH",
"283 329 OFFCURVE",
"239 370 OFFCURVE",
"185 370 CURVE SMOOTH",
"135 370 OFFCURVE",
"87 333 OFFCURVE",
"87 273 CURVE SMOOTH"
);
}
);
width = 370;
}
);
unicode = 00B7;
userData = {
KernOnSpecialSpacing = {
L = NoKerning;
R = NoKerning;
};
};
},
{
glyphname = bullet;
lastChange = "2025-01-07 21:15:10 +0000";
layers = (
{
background = {
paths = (
{
closed = 1;
nodes = (
"87 245 OFFCURVE",
"157 176 OFFCURVE",
"251 176 CURVE SMOOTH",
"337 176 OFFCURVE",
"414 238 OFFCURVE",
"414 338 CURVE SMOOTH",
"414 431 OFFCURVE",
"344 500 OFFCURVE",
"251 500 CURVE SMOOTH",
"163 500 OFFCURVE",
"87 438 OFFCURVE",
"87 338 CURVE SMOOTH"
);
}
);
};
layerId = "B62D1C5F-C6EB-4CFF-8AD4-79D05BEF2DD6";
paths = (
{
closed = 1;
nodes = (
"339 177 OFFCURVE",
"415 238 OFFCURVE",
"415 338 CURVE SMOOTH",
"415 438 OFFCURVE",
"339 499 OFFCURVE",
"251 499 CURVE SMOOTH",
"163 499 OFFCURVE",
"87 438 OFFCURVE",
"87 338 CURVE SMOOTH",
"87 238 OFFCURVE",
"163 177 OFFCURVE",
"251 177 CURVE SMOOTH"
);
}
);
width = 501;
}
);
unicode = 2022;
userData = {
KernOnSpecialSpacing = {
L = NoKerning;
R = NoKerning;
};
};
},
{
glyphname = asterisk;
lastChange = "2025-01-07 21:15:10 +0000";
layers = (
{
layerId = "B62D1C5F-C6EB-4CFF-8AD4-79D05BEF2DD6";
paths = (
{
closed = 1;
nodes = (
"217 577 LINE",
"294 474 LINE",
"347 512 LINE",
"270 617 LINE",
"382 662 LINE",
"359 723 LINE",
"250 680 LINE",
"250 798 LINE",
"184 798 LINE",
"184 680 LINE",
"76 723 LINE",
"53 662 LINE",
"165 617 LINE",
"87 512 LINE",
"140 474 LINE"
);
}
);
width = 435;
}
);
leftKerningGroup = asterisk;
rightKerningGroup = asterisk;
unicode = 002A;
userData = {
KernOnSpecialSpacing = {
L = quotes;
R = quotes;
};
};
},
{
glyphname = interrobang;
lastChange = "2025-01-08 15:22:09 +0000";
layers = (
{
layerId = "B62D1C5F-C6EB-4CFF-8AD4-79D05BEF2DD6";
paths = (
{
closed = 1;
nodes = (
"425 310 OFFCURVE",
"496 387 OFFCURVE",
"496 494 CURVE SMOOTH",
"496 614 OFFCURVE",
"402 697 OFFCURVE",
"275 697 CURVE SMOOTH",
"148 697 OFFCURVE",
"51 616 OFFCURVE",
"42 492 CURVE",
"133 480 LINE",
"139 557 OFFCURVE",
"192 608 OFFCURVE",
"273 608 CURVE SMOOTH",
"347 608 OFFCURVE",
"400 564 OFFCURVE",
"400 486 CURVE SMOOTH",
"400 428 OFFCURVE",
"368 382 OFFCURVE",
"300 361 CURVE",
"300 292 LINE"
);
},
{
closed = 1;
nodes = (
"307 -6 OFFCURVE",
"335 22 OFFCURVE",
"335 59 CURVE SMOOTH",
"335 96 OFFCURVE",
"307 124 OFFCURVE",
"268 124 CURVE SMOOTH",
"229 124 OFFCURVE",
"201 96 OFFCURVE",
"201 59 CURVE SMOOTH",
"201 22 OFFCURVE",
"229 -6 OFFCURVE",
"268 -6 CURVE SMOOTH"
);
},
{
closed = 1;
nodes = (
"312 199 LINE",
"312 511 LINE",
"221 511 LINE",
"221 199 LINE"
);
}
);
width = 558;
}
);
leftKerningGroup = interrobang;
leftMetricsKey = question;
rightKerningGroup = question;
rightMetricsKey = question;
unicode = 203D;
},
{
glyphname = numbersign;
lastChange = "2025-01-07 21:15:10 +0000";
layers = (
{
layerId = "B62D1C5F-C6EB-4CFF-8AD4-79D05BEF2DD6";
paths = (
{
closed = 1;
nodes = (
"242 0 LINE",
"343 691 LINE",
"252 691 LINE",
"152 0 LINE"
);
},
{
closed = 1;
nodes = (
"685 429 LINE",
"685 510 LINE",
"77 510 LINE",
"77 429 LINE"
);
},
{
closed = 1;
nodes = (
"653 181 LINE",
"653 262 LINE",
"45 262 LINE",
"45 181 LINE"
);
},
{
closed = 1;
nodes = (
"478 0 LINE",
"578 691 LINE",
"488 691 LINE",
"387 0 LINE"
);
}
);
width = 730;
}
);
leftKerningGroup = numbersign;
rightKerningGroup = numbersign;
unicode = 0023;
},
{
glyphname = slash;
lastChange = "2025-01-07 21:15:10 +0000";
layers = (
{
background = {
paths = (
{
closed = 1;
nodes = (
"38 -180 LINE",
"408 711 LINE",
"318 711 LINE",
"-53 -180 LINE"
);
}
);
};
layerId = "B62D1C5F-C6EB-4CFF-8AD4-79D05BEF2DD6";
paths = (
{
closed = 1;
nodes = (
"128 0 LINE",
"425 691 LINE",
"328 691 LINE",
"30 0 LINE"
);
}
);
width = 455;
}
);
leftKerningGroup = slash;
rightKerningGroup = slash;
unicode = 002F;
userData = {
KernOnSpecialSpacing = {
L = slash;
R = slash;
};
};
},
{
glyphname = parenleft;
lastChange = "2025-01-07 21:15:10 +0000";
layers = (
{
background = {
paths = (
{
closed = 1;
nodes = (
"225 -32 OFFCURVE",
"205 116 OFFCURVE",
"202 266 CURVE SMOOTH",
"205 415 OFFCURVE",
"225 563 OFFCURVE",
"282 711 CURVE",
"194 711 LINE",
"131 574 OFFCURVE",
"94 430 OFFCURVE",
"94 266 CURVE SMOOTH",
"94 101 OFFCURVE",
"131 -43 OFFCURVE",
"194 -180 CURVE",
"282 -180 LINE"
);
}
);
};
layerId = "B62D1C5F-C6EB-4CFF-8AD4-79D05BEF2DD6";
paths = (
{
closed = 1;
nodes = (
"295 -102 LINE",
"201 34 OFFCURVE",
"162 170 OFFCURVE",
"162 306 CURVE SMOOTH",
"162 442 OFFCURVE",
"201 578 OFFCURVE",
"295 714 CURVE",
"234 751 LINE",
"121 614 OFFCURVE",
"54 470 OFFCURVE",
"54 306 CURVE SMOOTH",
"54 142 OFFCURVE",
"121 -2 OFFCURVE",
"234 -139 CURVE"
);
}
);
width = 312;
}
);
leftKerningGroup = parenleft;
rightKerningGroup = parenleft;
unicode = 0028;
userData = {
KernOnSpecialSpacing = {
R = parenthesis;
};
};
},
{
glyphname = parenright;
lastChange = "2025-01-07 21:15:10 +0000";
layers = (
{
layerId = "B62D1C5F-C6EB-4CFF-8AD4-79D05BEF2DD6";
paths = (
{
closed = 1;
nodes = (
"191 -2 OFFCURVE",
"258 142 OFFCURVE",
"258 306 CURVE SMOOTH",
"258 470 OFFCURVE",
"191 614 OFFCURVE",
"78 751 CURVE",
"17 714 LINE",
"111 578 OFFCURVE",
"150 442 OFFCURVE",
"150 306 CURVE SMOOTH",
"150 170 OFFCURVE",
"111 34 OFFCURVE",
"17 -102 CURVE",
"78 -139 LINE"
);
}
);
width = 312;
}
);
leftKerningGroup = parenright;
rightKerningGroup = parenright;
unicode = 0029;
userData = {
KernOnSpecialSpacing = {
L = parenthesis;
};
};
},
{
glyphname = braceleft;
lastChange = "2025-01-07 21:15:10 +0000";
layers = (
{
layerId = "B62D1C5F-C6EB-4CFF-8AD4-79D05BEF2DD6";
paths = (
{
closed = 1;
nodes = (
"382 -129 LINE",
"382 -37 LINE",
"231 -37 LINE",
"231 209 LINE SMOOTH",
"231 263 OFFCURVE",
"212 288 OFFCURVE",
"165 306 CURVE",
"212 324 OFFCURVE",
"231 349 OFFCURVE",
"231 403 CURVE SMOOTH",
"231 649 LINE",
"382 649 LINE",
"382 741 LINE",
"219 741 LINE SMOOTH",
"165 741 OFFCURVE",
"135 716 OFFCURVE",
"135 661 CURVE SMOOTH",
"135 358 LINE",
"43 358 LINE",
"43 254 LINE",
"135 254 LINE",
"135 -49 LINE SMOOTH",
"135 -104 OFFCURVE",
"165 -129 OFFCURVE",
"219 -129 CURVE SMOOTH"
);
}
);
width = 405;
}
);
rightKerningGroup = braceleft;
rightMetricsKey = T;
unicode = 007B;
},
{
glyphname = braceright;
lastChange = "2025-01-07 21:15:10 +0000";
layers = (
{
layerId = "B62D1C5F-C6EB-4CFF-8AD4-79D05BEF2DD6";
paths = (
{
closed = 1;
nodes = (
"186 -129 LINE SMOOTH",
"240 -129 OFFCURVE",
"270 -104 OFFCURVE",
"270 -49 CURVE SMOOTH",
"270 254 LINE",
"362 254 LINE",
"362 358 LINE",
"270 358 LINE",
"270 661 LINE SMOOTH",
"270 716 OFFCURVE",
"240 741 OFFCURVE",
"186 741 CURVE SMOOTH",
"23 741 LINE",
"23 649 LINE",
"174 649 LINE",
"174 403 LINE SMOOTH",
"174 349 OFFCURVE",
"193 324 OFFCURVE",
"240 306 CURVE",
"193 288 OFFCURVE",
"174 263 OFFCURVE",
"174 209 CURVE SMOOTH",
"174 -37 LINE",
"23 -37 LINE",
"23 -129 LINE"
);
}
);
width = 405;
}
);
leftMetricsKey = T;
unicode = 007D;
},
{
glyphname = bracketleft;
lastChange = "2025-01-07 21:15:10 +0000";
layers = (
{
layerId = "B62D1C5F-C6EB-4CFF-8AD4-79D05BEF2DD6";
paths = (
{
closed = 1;
nodes = (
"370 -129 LINE",
"370 -37 LINE",
"154 -37 LINE",
"154 649 LINE",
"370 649 LINE",
"370 741 LINE",
"58 741 LINE",
"58 -129 LINE"
);
}
);
width = 393;
}
);
leftKerningGroup = bracketleft;
leftMetricsKey = H;
rightKerningGroup = bracketleft;
rightMetricsKey = T;
unicode = 005B;
},
{
glyphname = bracketright;
lastChange = "2025-01-07 21:15:10 +0000";
layers = (
{
layerId = "B62D1C5F-C6EB-4CFF-8AD4-79D05BEF2DD6";
paths = (
{
closed = 1;
nodes = (
"335 -129 LINE",
"335 741 LINE",
"23 741 LINE",
"23 649 LINE",
"239 649 LINE",
"239 -37 LINE",
"23 -37 LINE",
"23 -129 LINE"
);
}
);
width = 393;
}
);
leftKerningGroup = bracketright;
leftMetricsKey = T;
rightKerningGroup = exclam;
rightMetricsKey = H;
unicode = 005D;
},
{
color = 9;
glyphname = parenleft.case;
lastChange = "2025-01-07 21:15:10 +0000";
layers = (
{
background = {
paths = (
{
closed = 1;
nodes = (
"225 -32 OFFCURVE",
"205 116 OFFCURVE",
"202 266 CURVE SMOOTH",
"205 415 OFFCURVE",
"225 563 OFFCURVE",
"282 711 CURVE",
"194 711 LINE",
"131 574 OFFCURVE",
"94 430 OFFCURVE",
"94 266 CURVE SMOOTH",
"94 101 OFFCURVE",
"131 -43 OFFCURVE",
"194 -180 CURVE",
"282 -180 LINE"
);
}
);
};
layerId = "B62D1C5F-C6EB-4CFF-8AD4-79D05BEF2DD6";
paths = (
{
closed = 1;
nodes = (
"295 -62 LINE",
"201 74 OFFCURVE",
"162 210 OFFCURVE",
"162 346 CURVE SMOOTH",
"162 482 OFFCURVE",
"201 618 OFFCURVE",
"295 754 CURVE",
"234 791 LINE",
"121 654 OFFCURVE",
"54 510 OFFCURVE",
"54 346 CURVE SMOOTH",
"54 182 OFFCURVE",
"121 38 OFFCURVE",
"234 -99 CURVE"
);
}
);
width = 312;
}
);
leftKerningGroup = parenleft.case;
rightKerningGroup = parenleft.case;
userData = {
KernOnSpecialSpacing = {
R = parenthesis;
};
};
},
{
color = 9;
glyphname = parenright.case;
lastChange = "2025-01-07 21:15:10 +0000";
layers = (
{
layerId = "B62D1C5F-C6EB-4CFF-8AD4-79D05BEF2DD6";
paths = (
{
closed = 1;
nodes = (
"191 38 OFFCURVE",
"258 182 OFFCURVE",
"258 346 CURVE SMOOTH",
"258 510 OFFCURVE",
"191 654 OFFCURVE",
"78 791 CURVE",
"17 754 LINE",
"111 618 OFFCURVE",
"150 482 OFFCURVE",
"150 346 CURVE SMOOTH",
"150 210 OFFCURVE",
"111 74 OFFCURVE",
"17 -62 CURVE",
"78 -99 LINE"
);
}
);
width = 312;
}
);
leftKerningGroup = parenright.case;
rightKerningGroup = parenright;
userData = {
KernOnSpecialSpacing = {
L = parenthesis;
};
};
},
{
color = 9;
glyphname = braceleft.case;
lastChange = "2025-01-07 21:15:10 +0000";
layers = (
{
layerId = "B62D1C5F-C6EB-4CFF-8AD4-79D05BEF2DD6";
paths = (
{
closed = 1;
nodes = (
"382 -89 LINE",
"382 3 LINE",
"231 3 LINE",
"231 249 LINE SMOOTH",
"231 303 OFFCURVE",
"212 328 OFFCURVE",
"165 346 CURVE",
"212 364 OFFCURVE",
"231 389 OFFCURVE",
"231 443 CURVE SMOOTH",
"231 689 LINE",
"382 689 LINE",
"382 781 LINE",
"219 781 LINE SMOOTH",
"165 781 OFFCURVE",
"135 756 OFFCURVE",
"135 701 CURVE SMOOTH",
"135 398 LINE",
"43 398 LINE",
"43 294 LINE",
"135 294 LINE",
"135 -9 LINE SMOOTH",
"135 -64 OFFCURVE",
"165 -89 OFFCURVE",
"219 -89 CURVE SMOOTH"
);
}
);
width = 405;
}
);
rightMetricsKey = T;
},
{
color = 9;
glyphname = braceright.case;
lastChange = "2025-01-07 21:15:10 +0000";
layers = (
{
layerId = "B62D1C5F-C6EB-4CFF-8AD4-79D05BEF2DD6";
paths = (
{
closed = 1;
nodes = (
"186 -89 LINE SMOOTH",
"240 -89 OFFCURVE",
"270 -64 OFFCURVE",
"270 -9 CURVE SMOOTH",
"270 294 LINE",
"362 294 LINE",
"362 398 LINE",
"270 398 LINE",
"270 701 LINE SMOOTH",
"270 756 OFFCURVE",
"240 781 OFFCURVE",
"186 781 CURVE SMOOTH",
"23 781 LINE",
"23 689 LINE",
"174 689 LINE",
"174 443 LINE SMOOTH",
"174 389 OFFCURVE",
"193 364 OFFCURVE",
"240 346 CURVE",
"193 328 OFFCURVE",
"174 303 OFFCURVE",
"174 249 CURVE SMOOTH",
"174 3 LINE",
"23 3 LINE",
"23 -89 LINE"
);
}
);
width = 405;
}
);
leftKerningGroup = bracketright.case;
leftMetricsKey = T;
},
{
color = 9;
glyphname = bracketleft.case;
lastChange = "2025-01-07 21:15:10 +0000";
layers = (
{
layerId = "B62D1C5F-C6EB-4CFF-8AD4-79D05BEF2DD6";
paths = (
{
closed = 1;
nodes = (
"370 -89 LINE",
"370 3 LINE",
"154 3 LINE",
"154 689 LINE",
"370 689 LINE",
"370 781 LINE",
"58 781 LINE",
"58 -89 LINE"
);
}
);
width = 393;
}
);
leftKerningGroup = bracketleft;
leftMetricsKey = H;
rightKerningGroup = bracketleft.case;
rightMetricsKey = T;
},
{
color = 9;
glyphname = bracketright.case;
lastChange = "2025-01-07 21:15:10 +0000";
layers = (
{
layerId = "B62D1C5F-C6EB-4CFF-8AD4-79D05BEF2DD6";
paths = (
{
closed = 1;
nodes = (
"335 -89 LINE",
"335 781 LINE",
"23 781 LINE",
"23 689 LINE",
"239 689 LINE",
"239 3 LINE",
"23 3 LINE",
"23 -89 LINE"
);
}
);
width = 393;
}
);
leftKerningGroup = bracketright.case;
leftMetricsKey = T;
rightKerningGroup = exclam;
rightMetricsKey = H;
},
{
glyphname = hyphen;
lastChange = "2025-01-08 15:33:08 +0000";
layers = (
{
layerId = "B62D1C5F-C6EB-4CFF-8AD4-79D05BEF2DD6";
paths = (
{
closed = 1;
nodes = (
"412 223 LINE",
"412 309 LINE",
"80 309 LINE",
"80 223 LINE"
);
}
);
width = 492;
}
);
leftKerningGroup = hyphen;
rightKerningGroup = hyphen;
unicode = 002D;
userData = {
KernOnSpecialSpacing = {
L = hyphen;
R = hyphen;
};
};
},
{
glyphname = endash;
lastChange = "2025-01-07 21:15:10 +0000";
layers = (
{
layerId = "B62D1C5F-C6EB-4CFF-8AD4-79D05BEF2DD6";
paths = (
{
closed = 1;
nodes = (
"562 223 LINE",
"562 309 LINE",
"80 309 LINE",
"80 223 LINE"
);
}
);
width = 642;
}
);
leftKerningGroup = emdash;
leftMetricsKey = hyphen;
rightKerningGroup = endash;
rightMetricsKey = hyphen;
unicode = 2013;
},
{
glyphname = emdash;
lastChange = "2025-01-07 21:15:10 +0000";
layers = (
{
layerId = "B62D1C5F-C6EB-4CFF-8AD4-79D05BEF2DD6";
paths = (
{
closed = 1;
nodes = (
"722 223 LINE",
"722 309 LINE",
"80 309 LINE",
"80 223 LINE"
);
}
);
width = 802;
}
);
leftKerningGroup = emdash;
leftMetricsKey = hyphen;
rightKerningGroup = endash;
rightMetricsKey = hyphen;
unicode = 2014;
},
{
glyphname = underscore;
lastChange = "2025-01-07 21:15:10 +0000";
layers = (
{
layerId = "B62D1C5F-C6EB-4CFF-8AD4-79D05BEF2DD6";
paths = (
{
closed = 1;
nodes = (
"352 -86 LINE",
"352 0 LINE",
"20 0 LINE",
"20 -86 LINE"
);
}
);
width = 372;
}
);
leftKerningGroup = underscore;
rightKerningGroup = underscore;
unicode = 005F;
userData = {
KernOnSpecialSpacing = {
L = underscore;
R = underscore;
};
};
},
{
color = 9;
glyphname = hyphen.case;
lastChange = "2025-01-08 16:49:53 +0000";
layers = (
{
layerId = "B62D1C5F-C6EB-4CFF-8AD4-79D05BEF2DD6";
paths = (
{
closed = 1;
nodes = (
"412 303 LINE",
"412 389 LINE",
"80 389 LINE",
"80 303 LINE"
);
}
);
width = 492;
}
);
leftKerningGroup = hyphen;
rightKerningGroup = hyphen;
userData = {
KernOnSpecialSpacing = {
L = hyphen;
R = hyphen;
};
};
},
{
color = 9;
glyphname = endash.case;
lastChange = "2025-01-08 16:49:53 +0000";
layers = (
{
layerId = "B62D1C5F-C6EB-4CFF-8AD4-79D05BEF2DD6";
paths = (
{
closed = 1;
nodes = (
"562 303 LINE",
"562 389 LINE",
"80 389 LINE",
"80 303 LINE"
);
}
);
width = 642;
}
);
leftKerningGroup = hyphen;
leftMetricsKey = hyphen;
rightKerningGroup = hyphen;
rightMetricsKey = hyphen;
},
{
color = 9;
glyphname = emdash.case;
lastChange = "2025-01-08 16:49:53 +0000";
layers = (
{
layerId = "B62D1C5F-C6EB-4CFF-8AD4-79D05BEF2DD6";
paths = (
{
closed = 1;
nodes = (
"722 303 LINE",
"722 389 LINE",
"80 389 LINE",
"80 303 LINE"
);
}
);
width = 802;
}
);
leftKerningGroup = hyphen;
leftMetricsKey = hyphen;
rightKerningGroup = hyphen;
rightMetricsKey = hyphen;
},
{
glyphname = guillemetleft;
lastChange = "2025-01-07 21:15:10 +0000";
layers = (
{
layerId = "B62D1C5F-C6EB-4CFF-8AD4-79D05BEF2DD6";
paths = (
{
closed = 1;
nodes = (
"532 106 LINE",
"389 259 LINE",
"532 412 LINE",
"468 471 LINE",
"270 259 LINE",
"468 47 LINE"
);
},
{
closed = 1;
nodes = (
"302 106 LINE",
"159 259 LINE",
"302 412 LINE",
"238 471 LINE",
"40 259 LINE",
"238 47 LINE"
);
}
);
width = 562;
}
);
leftKerningGroup = guillemetleft;
rightKerningGroup = guillemetleft;
unicode = 00AB;
userData = {
KernOnSpecialSpacing = {
L = quotes;
R = quotes;
};
};
},
{
glyphname = guilsinglleft;
lastChange = "2025-01-07 21:15:10 +0000";
layers = (
{
layerId = "B62D1C5F-C6EB-4CFF-8AD4-79D05BEF2DD6";
paths = (
{
closed = 1;
nodes = (
"302 106 LINE",
"159 259 LINE",
"302 412 LINE",
"238 471 LINE",
"40 259 LINE",
"238 47 LINE"
);
}
);
width = 332;
}
);
leftKerningGroup = guillemetleft;
rightKerningGroup = guillemetleft;
unicode = 2039;
userData = {
KernOnSpecialSpacing = {
L = quotes;
R = quotes;
};
};
},
{
glyphname = quotedbl;
lastChange = "2025-01-07 21:15:10 +0000";
layers = (
{
layerId = "B62D1C5F-C6EB-4CFF-8AD4-79D05BEF2DD6";
paths = (
{
closed = 1;
nodes = (
"50 415 LINE",
"141 415 LINE",
"141 691 LINE",
"50 691 LINE"
);
},
{
closed = 1;
nodes = (
"249 415 LINE",
"340 415 LINE",
"340 691 LINE",
"249 691 LINE"
);
}
);
width = 390;
}
);
leftKerningGroup = quotedbl;
rightKerningGroup = quotedbl;
unicode = 0022;
userData = {
KernOnSpecialSpacing = {
L = quotes;
R = quotes;
};
};
},
{
glyphname = quotesingle;
lastChange = "2025-01-07 21:15:10 +0000";
layers = (
{
layerId = "B62D1C5F-C6EB-4CFF-8AD4-79D05BEF2DD6";
paths = (
{
closed = 1;
nodes = (
"50 415 LINE",
"141 415 LINE",
"141 691 LINE",
"50 691 LINE"
);
}
);
width = 191;
}
);
leftKerningGroup = quotedbl;
rightKerningGroup = quotedbl;
unicode = 0027;
userData = {
KernOnSpecialSpacing = {
L = quotes;
R = quotes;
};
};
},
{
glyphname = .notdef;
lastChange = "2025-01-08 16:30:32 +0000";
layers = (
{
background = {
paths = (
{
closed = 1;
nodes = (
"932 210 LINE",
"1073 210 LINE",
"1073 272 LINE",
"952 272 LINE",
"967 321 LINE SMOOTH",
"983 372 OFFCURVE",
"958 391 OFFCURVE",
"908 404 CURVE",
"1053 422 OFFCURVE",
"1094 437 OFFCURVE",
"1094 478 CURVE SMOOTH",
"1094 528 OFFCURVE",
"1035 546 OFFCURVE",
"957 569 CURVE",
"1086 594 OFFCURVE",
"1116 611 OFFCURVE",
"1116 650 CURVE SMOOTH",
"1116 694 OFFCURVE",
"1073 712 OFFCURVE",
"1005 737 CURVE SMOOTH",
"799 813 LINE",
"773 756 LINE",
"1054 650 LINE",
"923 626 OFFCURVE",
"874 617 OFFCURVE",
"874 572 CURVE SMOOTH",
"874 530 OFFCURVE",
"915 515 OFFCURVE",
"1032 480 CURVE",
"904 463 OFFCURVE",
"846 455 OFFCURVE",
"846 402 CURVE SMOOTH",
"846 369 OFFCURVE",
"869 352 OFFCURVE",
"908 338 CURVE",
"887 272 LINE",
"782 272 LINE",
"782 210 LINE",
"867 210 LINE",
"751 -154 LINE",
"811 -174 LINE"
);
},
{
closed = 1;
nodes = (
"346 306 LINE",
"242 320 OFFCURVE",
"194 421 OFFCURVE",
"230 541 CURVE",
"177 556 LINE",
"135 406 OFFCURVE",
"198 277 OFFCURVE",
"332 255 CURVE"
);
},
{
closed = 1;
nodes = (
"433 -17 LINE",
"630 210 LINE",
"621 210 LINE",
"588 -4 LINE",
"641 -16 LINE",
"735 97 LINE",
"1074 97 LINE",
"1074 153 LINE",
"717 153 LINE",
"626 44 LINE",
"642 40 LINE",
"677 266 LINE",
"612 266 LINE",
"415 39 LINE",
"430 39 LINE",
"496 213 LINE",
"428 213 LINE",
"355 158 OFFCURVE",
"305 137 OFFCURVE",
"218 132 CURVE",
"220 76 LINE",
"309 81 OFFCURVE",
"367 103 OFFCURVE",
"440 157 CURVE",
"424 157 LINE",
"358 -17 LINE"
);
},
{
closed = 1;
nodes = (
"649 303 OFFCURVE",
"681 305 OFFCURVE",
"714 309 CURVE",
"708 373 LINE",
"677 369 OFFCURVE",
"646 367 OFFCURVE",
"617 367 CURVE SMOOTH",
"462 367 OFFCURVE",
"361 419 OFFCURVE",
"361 492 CURVE SMOOTH",
"361 553 OFFCURVE",
"410 590 OFFCURVE",
"495 590 CURVE SMOOTH",
"568 590 OFFCURVE",
"655 563 OFFCURVE",
"747 511 CURVE",
"769 573 LINE",
"671 625 OFFCURVE",
"576 654 OFFCURVE",
"495 654 CURVE SMOOTH",
"376 654 OFFCURVE",
"297 590 OFFCURVE",
"297 492 CURVE SMOOTH",
"297 377 OFFCURVE",
"426 303 OFFCURVE",
"617 303 CURVE SMOOTH"
);
},
{
closed = 1;
nodes = (
"480 171 LINE",
"702 737 LINE",
"640 761 LINE",
"408 171 LINE"
);
},
{
closed = 1;
nodes = (
"1244 612 LINE",
"1238 708 OFFCURVE",
"1197 792 OFFCURVE",
"1135 840 CURVE",
"1092 798 LINE",
"1146 761 OFFCURVE",
"1181 689 OFFCURVE",
"1184 605 CURVE"
);
},
{
closed = 1;
nodes = (
"80 422 LINE",
"88 341 OFFCURVE",
"125 271 OFFCURVE",
"180 232 CURVE",
"215 269 LINE",
"168 298 OFFCURVE",
"136 359 OFFCURVE",
"131 430 CURVE"
);
}
);
};
layerId = "B62D1C5F-C6EB-4CFF-8AD4-79D05BEF2DD6";
paths = (
{
closed = 1;
nodes = (
"433 -17 LINE",
"619 197 LINE",
"588 -4 LINE",
"641 -16 LINE",
"735 97 LINE",
"1074 97 LINE",
"1074 153 LINE",
"717 153 LINE",
"646 68 LINE",
"677 266 LINE",
"612 266 LINE",
"442 70 LINE",
"482 176 LINE",
"702 737 LINE",
"640 761 LINE",
"423 209 LINE",
"353 157 OFFCURVE",
"303 137 OFFCURVE",
"218 132 CURVE",
"220 76 LINE",
"300 80 OFFCURVE",
"355 99 OFFCURVE",
"418 141 CURVE",
"358 -17 LINE"
);
},
{
closed = 1;
nodes = (
"215 269 LINE",
"168 298 OFFCURVE",
"136 359 OFFCURVE",
"131 430 CURVE",
"80 422 LINE",
"88 341 OFFCURVE",
"125 271 OFFCURVE",
"180 232 CURVE"
);
},
{
closed = 1;
nodes = (
"346 306 LINE",
"242 320 OFFCURVE",
"194 421 OFFCURVE",
"230 541 CURVE",
"177 556 LINE",
"135 406 OFFCURVE",
"198 277 OFFCURVE",
"332 255 CURVE"
);
},
{
closed = 1;
nodes = (
"649 303 OFFCURVE",
"681 305 OFFCURVE",
"714 309 CURVE",
"708 373 LINE",
"677 369 OFFCURVE",
"646 367 OFFCURVE",
"617 367 CURVE SMOOTH",
"462 367 OFFCURVE",
"361 419 OFFCURVE",
"361 492 CURVE SMOOTH",
"361 553 OFFCURVE",
"410 590 OFFCURVE",
"495 590 CURVE SMOOTH",
"568 590 OFFCURVE",
"655 563 OFFCURVE",
"747 511 CURVE",
"769 573 LINE",
"671 625 OFFCURVE",
"576 654 OFFCURVE",
"495 654 CURVE SMOOTH",
"376 654 OFFCURVE",
"297 590 OFFCURVE",
"297 492 CURVE SMOOTH",
"297 377 OFFCURVE",
"426 303 OFFCURVE",
"617 303 CURVE SMOOTH"
);
},
{
closed = 1;
nodes = (
"932 210 LINE",
"1073 210 LINE",
"1073 272 LINE",
"952 272 LINE",
"967 321 LINE SMOOTH",
"983 372 OFFCURVE",
"958 391 OFFCURVE",
"908 404 CURVE",
"1053 422 OFFCURVE",
"1094 437 OFFCURVE",
"1094 478 CURVE SMOOTH",
"1094 528 OFFCURVE",
"1035 546 OFFCURVE",
"957 569 CURVE",
"1086 594 OFFCURVE",
"1116 611 OFFCURVE",
"1116 650 CURVE SMOOTH",
"1116 694 OFFCURVE",
"1073 712 OFFCURVE",
"1005 737 CURVE SMOOTH",
"799 813 LINE",
"773 756 LINE",
"1054 650 LINE",
"923 626 OFFCURVE",
"874 617 OFFCURVE",
"874 572 CURVE SMOOTH",
"874 530 OFFCURVE",
"915 515 OFFCURVE",
"1032 480 CURVE",
"904 463 OFFCURVE",
"846 455 OFFCURVE",
"846 402 CURVE SMOOTH",
"846 369 OFFCURVE",
"869 352 OFFCURVE",
"908 338 CURVE",
"887 272 LINE",
"782 272 LINE",
"782 210 LINE",
"867 210 LINE",
"751 -154 LINE",
"811 -174 LINE"
);
},
{
closed = 1;
nodes = (
"1244 612 LINE",
"1238 708 OFFCURVE",
"1197 792 OFFCURVE",
"1135 840 CURVE",
"1092 798 LINE",
"1146 761 OFFCURVE",
"1181 689 OFFCURVE",
"1184 605 CURVE"
);
}
);
width = 1324;
}
);
},
{
glyphname = cent;
lastChange = "2025-01-07 21:32:37 +0000";
layers = (
{
components = (
{
name = c;
transform = "{1, 0, 0, 1, -5, 96}";
}
);
layerId = "B62D1C5F-C6EB-4CFF-8AD4-79D05BEF2DD6";
paths = (
{
closed = 1;
nodes = (
"336 0 LINE",
"336 691 LINE",
"258 691 LINE",
"258 0 LINE"
);
}
);
width = 576;
}
);
leftMetricsKey = C;
rightMetricsKey = C;
unicode = 00A2;
userData = {
KernOnSpecialSpacing = {
L = symbols;
R = symbols;
};
};
},
{
glyphname = currency;
lastChange = "2025-01-07 21:33:18 +0000";
layers = (
{
layerId = "B62D1C5F-C6EB-4CFF-8AD4-79D05BEF2DD6";
paths = (
{
closed = 1;
nodes = (
"56 56 LINE",
"173 173 LINE",
"206 153 OFFCURVE",
"246 142 OFFCURVE",
"289 142 CURVE SMOOTH",
"332 142 OFFCURVE",
"371 153 OFFCURVE",
"404 173 CURVE",
"521 56 LINE",
"578 113 LINE",
"463 228 LINE",
"486 260 OFFCURVE",
"499 300 OFFCURVE",
"499 346 CURVE SMOOTH",
"499 392 OFFCURVE",
"486 432 OFFCURVE",
"464 464 CURVE",
"578 578 LINE",
"521 635 LINE",
"405 519 LINE",
"372 539 OFFCURVE",
"332 550 OFFCURVE",
"289 550 CURVE SMOOTH",
"246 550 OFFCURVE",
"206 539 OFFCURVE",
"172 519 CURVE",
"56 635 LINE",
"-1 578 LINE",
"114 463 LINE",
"92 431 OFFCURVE",
"79 392 OFFCURVE",
"79 346 CURVE SMOOTH",
"79 300 OFFCURVE",
"92 260 OFFCURVE",
"114 228 CURVE",
"-1 113 LINE"
);
},
{
closed = 1;
nodes = (
"170 419 OFFCURVE",
"213 468 OFFCURVE",
"289 468 CURVE SMOOTH",
"360 468 OFFCURVE",
"408 423 OFFCURVE",
"408 346 CURVE SMOOTH",
"408 273 OFFCURVE",
"365 224 OFFCURVE",
"289 224 CURVE SMOOTH",
"218 224 OFFCURVE",
"170 269 OFFCURVE",
"170 346 CURVE SMOOTH"
);
}
);
width = 577;
}
);
leftMetricsKey = X;
rightMetricsKey = X;
unicode = 00A4;
},
{
glyphname = dollar;
lastChange = "2025-01-07 21:33:00 +0000";
layers = (
{
background = {
paths = (
{
closed = 1;
nodes = (
"428 -6 OFFCURVE",
"531 79 OFFCURVE",
"531 204 CURVE SMOOTH",
"531 317 OFFCURVE",
"452 371 OFFCURVE",
"364 391 CURVE SMOOTH",
"256 415 LINE SMOOTH",
"201 427 OFFCURVE",
"166 461 OFFCURVE",
"166 511 CURVE SMOOTH",
"168 575 OFFCURVE",
"217 610 OFFCURVE",
"293 610 CURVE SMOOTH",
"374 610 OFFCURVE",
"425 570 OFFCURVE",
"436 496 CURVE",
"530 510 LINE",
"514 628 OFFCURVE",
"426 697 OFFCURVE",
"298 697 CURVE SMOOTH",
"164 697 OFFCURVE",
"68 621 OFFCURVE",
"68 510 CURVE SMOOTH",
"68 509 LINE SMOOTH",
"68 413 OFFCURVE",
"129 351 OFFCURVE",
"239 326 CURVE SMOOTH",
"346 302 LINE SMOOTH",
"399 290 OFFCURVE",
"432 254 OFFCURVE",
"432 200 CURVE SMOOTH",
"432 124 OFFCURVE",
"375 81 OFFCURVE",
"284 81 CURVE SMOOTH",
"195 81 OFFCURVE",
"143 123 OFFCURVE",
"129 215 CURVE",
"32 202 LINE",
"50 70 OFFCURVE",
"143 -6 OFFCURVE",
"282 -6 CURVE SMOOTH"
);
},
{
closed = 1;
nodes = (
"250 -109 LINE",
"332 -109 LINE",
"332 52 LINE",
"250 52 LINE"
);
},
{
closed = 1;
nodes = (
"332 800 LINE",
"250 800 LINE",
"250 618 LINE",
"332 618 LINE"
);
},
{
closed = 1;
nodes = (
"328 635 LINE",
"254 635 LINE",
"254 35 LINE",
"328 35 LINE"
);
}
);
};
layerId = "B62D1C5F-C6EB-4CFF-8AD4-79D05BEF2DD6";
paths = (
{
closed = 1;
nodes = (
"429 -6 OFFCURVE",
"530 73 OFFCURVE",
"530 194 CURVE SMOOTH",
"530 326 OFFCURVE",
"431 373 OFFCURVE",
"340 394 CURVE SMOOTH",
"250 415 LINE SMOOTH",
"193 428 OFFCURVE",
"160 461 OFFCURVE",
"160 511 CURVE SMOOTH",
"160 571 OFFCURVE",
"201 610 OFFCURVE",
"288 610 CURVE SMOOTH",
"374 610 OFFCURVE",
"418 571 OFFCURVE",
"429 496 CURVE",
"526 510 LINE",
"506 628 OFFCURVE",
"423 697 OFFCURVE",
"293 697 CURVE SMOOTH",
"158 697 OFFCURVE",
"64 620 OFFCURVE",
"64 509 CURVE SMOOTH",
"64 508 LINE SMOOTH",
"64 412 OFFCURVE",
"119 353 OFFCURVE",
"234 326 CURVE SMOOTH",
"337 302 LINE SMOOTH",
"391 289 OFFCURVE",
"432 253 OFFCURVE",
"432 198 CURVE SMOOTH",
"432 127 OFFCURVE",
"384 81 OFFCURVE",
"284 81 CURVE SMOOTH",
"195 81 OFFCURVE",
"146 123 OFFCURVE",
"132 215 CURVE",
"34 201 LINE",
"51 69 OFFCURVE",
"143 -6 OFFCURVE",
"284 -6 CURVE SMOOTH"
);
},
{
closed = 1;
nodes = (
"332 -109 LINE",
"332 52 LINE",
"250 52 LINE",
"250 -109 LINE"
);
},
{
closed = 1;
nodes = (
"329 35 LINE",
"329 635 LINE",
"253 635 LINE",
"253 35 LINE"
);
},
{
closed = 1;
nodes = (
"332 618 LINE",
"332 800 LINE",
"250 800 LINE",
"250 618 LINE"
);
}
);
width = 566;
}
);
leftMetricsKey = S;
rightMetricsKey = S;
unicode = 0024;
userData = {
KernOnSpecialSpacing = {
L = symbols;
R = symbols;
};
};
},
{
glyphname = euro;
lastChange = "2025-01-07 21:33:04 +0000";
layers = (
{
anchors = (
{
name = bottom;
position = "{399, 0}";
},
{
name = top;
position = "{399, 691}";
}
);
layerId = "B62D1C5F-C6EB-4CFF-8AD4-79D05BEF2DD6";
paths = (
{
closed = 1;
nodes = (
"579 -6 OFFCURVE",
"703 78 OFFCURVE",
"747 211 CURVE",
"652 244 LINE",
"620 140 OFFCURVE",
"536 82 OFFCURVE",
"421 82 CURVE SMOOTH",
"273 82 OFFCURVE",
"188 176 OFFCURVE",
"188 342 CURVE SMOOTH",
"188 514 OFFCURVE",
"274 609 OFFCURVE",
"425 609 CURVE SMOOTH",
"546 609 OFFCURVE",
"625 548 OFFCURVE",
"645 440 CURVE",
"741 455 LINE",
"713 606 OFFCURVE",
"594 697 OFFCURVE",
"425 697 CURVE SMOOTH",
"219 697 OFFCURVE",
"90 564 OFFCURVE",
"90 346 CURVE SMOOTH",
"90 128 OFFCURVE",
"217 -6 OFFCURVE",
"420 -6 CURVE SMOOTH"
);
},
{
closed = 1;
nodes = (
"473 385 LINE",
"473 459 LINE",
"23 459 LINE",
"23 385 LINE"
);
},
{
closed = 1;
nodes = (
"473 225 LINE",
"473 299 LINE",
"23 299 LINE",
"23 225 LINE"
);
}
);
width = 787;
}
);
leftMetricsKey = T;
rightMetricsKey = C;
unicode = 20AC;
userData = {
KernOnSpecialSpacing = {
L = symbols;
R = symbols;
};
};
},
{
glyphname = sterling;
lastChange = "2025-01-07 21:33:08 +0000";
layers = (
{
layerId = "B62D1C5F-C6EB-4CFF-8AD4-79D05BEF2DD6";
paths = (
{
closed = 1;
nodes = (
"531 0 LINE",
"531 85 LINE",
"180 85 LINE",
"246 118 OFFCURVE",
"276 175 OFFCURVE",
"276 237 CURVE SMOOTH",
"276 357 OFFCURVE",
"176 385 OFFCURVE",
"176 493 CURVE SMOOTH",
"176 567 OFFCURVE",
"227 612 OFFCURVE",
"297 612 CURVE SMOOTH",
"366 612 OFFCURVE",
"405 573 OFFCURVE",
"414 515 CURVE",
"509 529 LINE",
"494 637 OFFCURVE",
"410 697 OFFCURVE",
"302 697 CURVE SMOOTH",
"173 697 OFFCURVE",
"81 615 OFFCURVE",
"81 492 CURVE SMOOTH",
"81 350 OFFCURVE",
"187 314 OFFCURVE",
"187 214 CURVE SMOOTH",
"187 174 OFFCURVE",
"149 98 OFFCURVE",
"34 85 CURVE",
"34 0 LINE"
);
},
{
closed = 1;
nodes = (
"444 273 LINE",
"444 357 LINE",
"34 357 LINE",
"34 273 LINE"
);
}
);
width = 567;
}
);
leftMetricsKey = S;
rightMetricsKey = S;
unicode = 00A3;
userData = {
KernOnSpecialSpacing = {
L = symbols;
R = symbols;
};
};
},
{
glyphname = yen;
lastChange = "2025-01-07 21:33:12 +0000";
layers = (
{
layerId = "B62D1C5F-C6EB-4CFF-8AD4-79D05BEF2DD6";
paths = (
{
closed = 1;
nodes = (
"364 -2 LINE",
"364 124 LINE",
"568 124 LINE",
"568 208 LINE",
"364 208 LINE",
"364 296 LINE",
"568 296 LINE",
"568 380 LINE",
"423 380 LINE",
"619 691 LINE",
"506 691 LINE",
"315 381 LINE",
"124 691 LINE",
"11 691 LINE",
"207 380 LINE",
"62 380 LINE",
"62 296 LINE",
"266 296 LINE",
"266 208 LINE",
"62 208 LINE",
"62 124 LINE",
"266 124 LINE",
"266 -2 LINE"
);
}
);
width = 630;
}
);
leftMetricsKey = Y;
rightMetricsKey = Y;
unicode = 00A5;
userData = {
KernOnSpecialSpacing = {
L = symbols;
R = symbols;
};
};
},
{
glyphname = plus;
lastChange = "2025-01-07 21:15:10 +0000";
layers = (
{
layerId = "B62D1C5F-C6EB-4CFF-8AD4-79D05BEF2DD6";
paths = (
{
closed = 1;
nodes = (
"335 558 LINE",
"251 558 LINE",
"251 112 LINE",
"335 112 LINE"
);
},
{
closed = 1;
nodes = (
"516 296 LINE",
"516 374 LINE",
"70 374 LINE",
"70 296 LINE"
);
}
);
width = 586;
}
);
leftKerningGroup = plus;
rightKerningGroup = plus;
unicode = 002B;
userData = {
KernOnSpecialSpacing = {
L = math;
R = math;
};
};
},
{
glyphname = minus;
lastChange = "2025-01-07 21:15:10 +0000";
layers = (
{
layerId = "B62D1C5F-C6EB-4CFF-8AD4-79D05BEF2DD6";
paths = (
{
closed = 1;
nodes = (
"476 294 LINE",
"476 376 LINE",
"70 376 LINE",
"70 294 LINE"
);
}
);
width = 546;
}
);
leftKerningGroup = plus;
rightKerningGroup = plus;
unicode = 2212;
userData = {
KernOnSpecialSpacing = {
L = math;
R = math;
};
};
},
{
glyphname = multiply;
lastChange = "2025-01-07 21:15:10 +0000";
layers = (
{
layerId = "B62D1C5F-C6EB-4CFF-8AD4-79D05BEF2DD6";
paths = (
{
closed = 1;
nodes = (
"439 483 LINE",
"380 542 LINE",
"25 187 LINE",
"84 128 LINE"
);
},
{
closed = 1;
nodes = (
"439 187 LINE",
"84 542 LINE",
"25 483 LINE",
"380 128 LINE"
);
}
);
width = 464;
}
);
unicode = 00D7;
userData = {
KernOnSpecialSpacing = {
L = math;
R = math;
};
};
},
{
glyphname = divide;
lastChange = "2025-01-07 21:15:10 +0000";
layers = (
{
layerId = "B62D1C5F-C6EB-4CFF-8AD4-79D05BEF2DD6";
paths = (
{
closed = 1;
nodes = (
"476 294 LINE",
"476 376 LINE",
"70 376 LINE",
"70 294 LINE"
);
},
{
closed = 1;
nodes = (
"312 99 OFFCURVE",
"340 127 OFFCURVE",
"340 164 CURVE SMOOTH",
"340 201 OFFCURVE",
"312 229 OFFCURVE",
"273 229 CURVE SMOOTH",
"234 229 OFFCURVE",
"206 201 OFFCURVE",
"206 164 CURVE SMOOTH",
"206 127 OFFCURVE",
"234 99 OFFCURVE",
"273 99 CURVE SMOOTH"
);
},
{
closed = 1;
nodes = (
"312 441 OFFCURVE",
"340 469 OFFCURVE",
"340 506 CURVE SMOOTH",
"340 543 OFFCURVE",
"312 571 OFFCURVE",
"273 571 CURVE SMOOTH",
"234 571 OFFCURVE",
"206 543 OFFCURVE",
"206 506 CURVE SMOOTH",
"206 469 OFFCURVE",
"234 441 OFFCURVE",
"273 441 CURVE SMOOTH"
);
}
);
width = 546;
}
);
leftKerningGroup = plus;
rightKerningGroup = plus;
unicode = 00F7;
userData = {
KernOnSpecialSpacing = {
L = math;
R = math;
};
};
},
{
glyphname = equal;
lastChange = "2025-01-07 21:15:10 +0000";
layers = (
{
layerId = "B62D1C5F-C6EB-4CFF-8AD4-79D05BEF2DD6";
paths = (
{
closed = 1;
nodes = (
"476 189 LINE",
"476 271 LINE",
"70 271 LINE",
"70 189 LINE"
);
},
{
closed = 1;
nodes = (
"476 399 LINE",
"476 481 LINE",
"70 481 LINE",
"70 399 LINE"
);
}
);
width = 546;
}
);
leftKerningGroup = equal;
rightKerningGroup = equal;
unicode = 003D;
userData = {
KernOnSpecialSpacing = {
L = math;
R = math;
};
};
},
{
glyphname = notequal;
lastChange = "2025-01-07 21:15:10 +0000";
layers = (
{
layerId = "B62D1C5F-C6EB-4CFF-8AD4-79D05BEF2DD6";
paths = (
{
closed = 1;
nodes = (
"476 189 LINE",
"476 271 LINE",
"70 271 LINE",
"70 189 LINE"
);
},
{
closed = 1;
nodes = (
"476 399 LINE",
"476 481 LINE",
"70 481 LINE",
"70 399 LINE"
);
},
{
closed = 1;
nodes = (
"219 84 LINE",
"419 586 LINE",
"329 586 LINE",
"128 84 LINE"
);
}
);
width = 546;
}
);
unicode = 2260;
},
{
glyphname = greater;
lastChange = "2025-01-07 21:15:10 +0000";
layers = (
{
layerId = "B62D1C5F-C6EB-4CFF-8AD4-79D05BEF2DD6";
paths = (
{
closed = 1;
nodes = (
"476 269 LINE",
"476 351 LINE",
"70 521 LINE",
"70 427 LINE",
"358 310 LINE",
"70 193 LINE",
"70 99 LINE"
);
}
);
width = 546;
}
);
leftKerningGroup = greater;
rightKerningGroup = greater;
unicode = 003E;
userData = {
KernOnSpecialSpacing = {
L = math;
R = math;
};
};
},
{
glyphname = less;
lastChange = "2025-01-07 21:15:10 +0000";
layers = (
{
layerId = "B62D1C5F-C6EB-4CFF-8AD4-79D05BEF2DD6";
paths = (
{
closed = 1;
nodes = (
"476 193 LINE",
"188 310 LINE",
"476 427 LINE",
"476 521 LINE",
"70 351 LINE",
"70 269 LINE",
"476 99 LINE"
);
}
);
width = 546;
}
);
leftKerningGroup = less;
rightKerningGroup = less;
unicode = 003C;
userData = {
KernOnSpecialSpacing = {
L = math;
R = math;
};
};
},
{
glyphname = greaterequal;
lastChange = "2025-01-07 21:15:10 +0000";
layers = (
{
layerId = "B62D1C5F-C6EB-4CFF-8AD4-79D05BEF2DD6";
paths = (
{
closed = 1;
nodes = (
"498 297 LINE",
"498 383 LINE",
"60 551 LINE",
"60 457 LINE",
"433 323 LINE",
"433 357 LINE",
"60 223 LINE",
"60 129 LINE"
);
},
{
closed = 1;
nodes = (
"498 0 LINE",
"498 82 LINE",
"60 82 LINE",
"60 0 LINE"
);
}
);
width = 558;
}
);
unicode = 2265;
},
{
glyphname = lessequal;
lastChange = "2025-01-07 21:15:10 +0000";
layers = (
{
layerId = "B62D1C5F-C6EB-4CFF-8AD4-79D05BEF2DD6";
paths = (
{
closed = 1;
nodes = (
"498 223 LINE",
"125 357 LINE",
"125 323 LINE",
"498 457 LINE",
"498 551 LINE",
"60 383 LINE",
"60 297 LINE",
"498 129 LINE"
);
},
{
closed = 1;
nodes = (
"498 82 LINE",
"60 82 LINE",
"60 0 LINE",
"498 0 LINE"
);
}
);
width = 558;
}
);
unicode = 2264;
},
{
glyphname = plusminus;
lastChange = "2025-01-07 21:15:10 +0000";
layers = (
{
layerId = "B62D1C5F-C6EB-4CFF-8AD4-79D05BEF2DD6";
paths = (
{
closed = 1;
nodes = (
"331 528 LINE",
"247 528 LINE",
"247 142 LINE",
"331 142 LINE"
);
},
{
closed = 1;
nodes = (
"518 296 LINE",
"518 374 LINE",
"60 374 LINE",
"60 296 LINE"
);
},
{
closed = 1;
nodes = (
"518 82 LINE",
"60 82 LINE",
"60 0 LINE",
"518 0 LINE"
);
}
);
width = 578;
}
);
unicode = 00B1;
userData = {
KernOnSpecialSpacing = {
L = math;
R = math;
};
};
},
{
glyphname = approxequal;
lastChange = "2025-01-07 21:15:10 +0000";
layers = (
{
layerId = "B62D1C5F-C6EB-4CFF-8AD4-79D05BEF2DD6";
paths = (
{
closed = 1;
nodes = (
"347 350 OFFCURVE",
"386 385 OFFCURVE",
"386 440 CURVE SMOOTH",
"386 535 LINE",
"312 535 LINE",
"312 443 LINE SMOOTH",
"312 431 OFFCURVE",
"304 423 OFFCURVE",
"292 423 CURVE SMOOTH",
"284 423 OFFCURVE",
"276 429 OFFCURVE",
"266 441 CURVE SMOOTH",
"224 495 LINE SMOOTH",
"201 524 OFFCURVE",
"176 538 OFFCURVE",
"146 538 CURVE SMOOTH",
"88 538 OFFCURVE",
"50 503 OFFCURVE",
"50 448 CURVE SMOOTH",
"50 353 LINE",
"123 353 LINE",
"123 445 LINE SMOOTH",
"123 457 OFFCURVE",
"131 465 OFFCURVE",
"143 465 CURVE SMOOTH",
"151 465 OFFCURVE",
"159 459 OFFCURVE",
"169 447 CURVE SMOOTH",
"211 393 LINE SMOOTH",
"234 364 OFFCURVE",
"259 350 OFFCURVE",
"290 350 CURVE SMOOTH"
);
},
{
closed = 1;
nodes = (
"347 130 OFFCURVE",
"386 165 OFFCURVE",
"386 220 CURVE SMOOTH",
"386 315 LINE",
"312 315 LINE",
"312 223 LINE SMOOTH",
"312 211 OFFCURVE",
"304 203 OFFCURVE",
"292 203 CURVE SMOOTH",
"284 203 OFFCURVE",
"276 209 OFFCURVE",
"266 221 CURVE SMOOTH",
"224 275 LINE SMOOTH",
"201 304 OFFCURVE",
"176 318 OFFCURVE",
"146 318 CURVE SMOOTH",
"88 318 OFFCURVE",
"50 283 OFFCURVE",
"50 228 CURVE SMOOTH",
"50 133 LINE",
"123 133 LINE",
"123 225 LINE SMOOTH",
"123 237 OFFCURVE",
"131 245 OFFCURVE",
"143 245 CURVE SMOOTH",
"151 245 OFFCURVE",
"159 239 OFFCURVE",
"169 227 CURVE SMOOTH",
"211 173 LINE SMOOTH",
"234 144 OFFCURVE",
"259 130 OFFCURVE",
"290 130 CURVE SMOOTH"
);
}
);
width = 436;
}
);
unicode = 2248;
userData = {
KernOnSpecialSpacing = {
L = math;
R = math;
};
};
},
{
glyphname = asciitilde;
lastChange = "2025-01-07 21:15:10 +0000";
layers = (
{
layerId = "B62D1C5F-C6EB-4CFF-8AD4-79D05BEF2DD6";
paths = (
{
closed = 1;
nodes = (
"347 240 OFFCURVE",
"386 275 OFFCURVE",
"386 330 CURVE SMOOTH",
"386 425 LINE",
"312 425 LINE",
"312 333 LINE SMOOTH",
"312 321 OFFCURVE",
"304 313 OFFCURVE",
"292 313 CURVE SMOOTH",
"284 313 OFFCURVE",
"276 319 OFFCURVE",
"266 331 CURVE SMOOTH",
"224 385 LINE SMOOTH",
"202 415 OFFCURVE",
"176 428 OFFCURVE",
"146 428 CURVE SMOOTH",
"88 428 OFFCURVE",
"50 393 OFFCURVE",
"50 338 CURVE SMOOTH",
"50 243 LINE",
"123 243 LINE",
"123 335 LINE SMOOTH",
"123 347 OFFCURVE",
"131 355 OFFCURVE",
"143 355 CURVE SMOOTH",
"151 355 OFFCURVE",
"159 349 OFFCURVE",
"169 337 CURVE SMOOTH",
"211 283 LINE SMOOTH",
"233 253 OFFCURVE",
"259 240 OFFCURVE",
"290 240 CURVE SMOOTH"
);
}
);
width = 436;
}
);
leftKerningGroup = asciitilde;
rightKerningGroup = asciitilde;
unicode = 007E;
userData = {
KernOnSpecialSpacing = {
L = math;
R = math;
};
};
},
{
glyphname = logicalnot;
lastChange = "2025-01-07 21:15:10 +0000";
layers = (
{
layerId = "B62D1C5F-C6EB-4CFF-8AD4-79D05BEF2DD6";
paths = (
{
closed = 1;
nodes = (
"476 294 LINE",
"476 376 LINE",
"70 376 LINE",
"70 294 LINE"
);
},
{
closed = 1;
nodes = (
"476 376 LINE",
"392 376 LINE",
"392 104 LINE",
"476 104 LINE"
);
}
);
width = 600;
}
);
leftKerningGroup = plus;
rightKerningGroup = logicalnot;
unicode = 00AC;
},
{
glyphname = asciicircum;
lastChange = "2025-01-07 21:15:10 +0000";
layers = (
{
layerId = "B62D1C5F-C6EB-4CFF-8AD4-79D05BEF2DD6";
paths = (
{
closed = 1;
nodes = (
"143 435 LINE",
"235 613 LINE",
"207 613 LINE",
"299 435 LINE",
"392 435 LINE",
"258 691 LINE",
"184 691 LINE",
"50 435 LINE"
);
}
);
width = 442;
}
);
leftKerningGroup = asciicircum;
rightKerningGroup = asciicircum;
unicode = 005E;
userData = {
KernOnSpecialSpacing = {
L = math;
R = math;
};
};
},
{
glyphname = emptyset;
lastChange = "2025-01-07 21:15:10 +0000";
layers = (
{
anchors = (
{
name = bottom;
position = "{401, 0}";
},
{
name = center;
position = "{401, 346}";
},
{
name = ogonek;
position = "{698, 10}";
},
{
name = top;
position = "{401, 691}";
},
{
name = topleft;
position = "{50, 691}";
},
{
name = topright;
position = "{752, 691}";
}
);
layerId = "B62D1C5F-C6EB-4CFF-8AD4-79D05BEF2DD6";
paths = (
{
closed = 1;
nodes = (
"44 138 OFFCURVE",
"191 0 OFFCURVE",
"401 0 CURVE SMOOTH",
"611 0 OFFCURVE",
"758 138 OFFCURVE",
"758 346 CURVE SMOOTH",
"758 553 OFFCURVE",
"611 691 OFFCURVE",
"401 691 CURVE SMOOTH",
"191 691 OFFCURVE",
"44 553 OFFCURVE",
"44 346 CURVE SMOOTH"
);
},
{
closed = 1;
nodes = (
"138 503 OFFCURVE",
"233 608 OFFCURVE",
"401 608 CURVE SMOOTH",
"559 608 OFFCURVE",
"664 514 OFFCURVE",
"664 346 CURVE SMOOTH",
"664 188 OFFCURVE",
"569 83 OFFCURVE",
"401 83 CURVE SMOOTH",
"243 83 OFFCURVE",
"138 178 OFFCURVE",
"138 346 CURVE SMOOTH"
);
},
{
closed = 1;
nodes = (
"133 125 LINE",
"184 74 LINE",
"668 557 LINE",
"617 608 LINE"
);
}
);
width = 802;
}
);
unicode = 2205;
},
{
glyphname = infinity;
lastChange = "2025-01-07 21:15:10 +0000";
layers = (
{
layerId = "B62D1C5F-C6EB-4CFF-8AD4-79D05BEF2DD6";
paths = (
{
closed = 1;
nodes = (
"312 83 OFFCURVE",
"382 120 OFFCURVE",
"454 202 CURVE",
"525 120 OFFCURVE",
"596 83 OFFCURVE",
"672 83 CURVE SMOOTH",
"785 83 OFFCURVE",
"867 161 OFFCURVE",
"867 270 CURVE SMOOTH",
"867 378 OFFCURVE",
"785 457 OFFCURVE",
"672 457 CURVE SMOOTH",
"595 457 OFFCURVE",
"525 420 OFFCURVE",
"454 338 CURVE",
"382 420 OFFCURVE",
"311 457 OFFCURVE",
"235 457 CURVE SMOOTH",
"122 457 OFFCURVE",
"40 378 OFFCURVE",
"40 270 CURVE SMOOTH",
"40 161 OFFCURVE",
"122 83 OFFCURVE",
"235 83 CURVE SMOOTH"
);
},
{
closed = 1;
nodes = (
"174 168 OFFCURVE",
"133 208 OFFCURVE",
"133 270 CURVE SMOOTH",
"133 332 OFFCURVE",
"174 372 OFFCURVE",
"235 372 CURVE SMOOTH",
"292 372 OFFCURVE",
"336 347 OFFCURVE",
"401 270 CURVE",
"336 193 OFFCURVE",
"292 168 OFFCURVE",
"235 168 CURVE SMOOTH"
);
},
{
closed = 1;
nodes = (
"615 168 OFFCURVE",
"571 193 OFFCURVE",
"506 270 CURVE",
"571 347 OFFCURVE",
"615 372 OFFCURVE",
"672 372 CURVE SMOOTH",
"733 372 OFFCURVE",
"774 332 OFFCURVE",
"774 270 CURVE SMOOTH",
"774 208 OFFCURVE",
"733 168 OFFCURVE",
"672 168 CURVE SMOOTH"
);
}
);
width = 907;
}
);
unicode = 221E;
},
{
glyphname = integral;
lastChange = "2025-01-07 21:15:10 +0000";
layers = (
{
layerId = "B62D1C5F-C6EB-4CFF-8AD4-79D05BEF2DD6";
paths = (
{
closed = 1;
nodes = (
"156 -106 LINE SMOOTH",
"210 -106 OFFCURVE",
"232 -81 OFFCURVE",
"240 -26 CURVE SMOOTH",
"330 606 LINE",
"454 606 LINE",
"454 691 LINE",
"323 691 LINE SMOOTH",
"269 691 OFFCURVE",
"247 666 OFFCURVE",
"239 611 CURVE SMOOTH",
"149 -21 LINE",
"25 -21 LINE",
"25 -106 LINE"
);
}
);
width = 479;
}
);
unicode = 222B;
},
{
glyphname = product;
lastChange = "2025-01-07 21:15:10 +0000";
layers = (
{
layerId = "B62D1C5F-C6EB-4CFF-8AD4-79D05BEF2DD6";
paths = (
{
closed = 1;
nodes = (
"221 -106 LINE",
"221 651 LINE",
"125 651 LINE",
"125 -106 LINE"
);
},
{
closed = 1;
nodes = (
"577 604 LINE",
"577 691 LINE",
"25 691 LINE",
"25 604 LINE"
);
},
{
closed = 1;
nodes = (
"477 -106 LINE",
"477 651 LINE",
"381 651 LINE",
"381 -106 LINE"
);
}
);
width = 602;
}
);
unicode = 220F;
},
{
glyphname = summation;
lastChange = "2025-01-07 21:15:10 +0000";
layers = (
{
layerId = "B62D1C5F-C6EB-4CFF-8AD4-79D05BEF2DD6";
paths = (
{
closed = 1;
nodes = (
"491 -106 LINE",
"491 -19 LINE",
"150 -19 LINE",
"313 292 LINE",
"150 604 LINE",
"491 604 LINE",
"491 691 LINE",
"45 691 LINE",
"45 610 LINE",
"210 292 LINE",
"45 -25 LINE",
"45 -106 LINE"
);
}
);
width = 536;
}
);
unicode = 2211;
},
{
glyphname = radical;
lastChange = "2025-01-07 21:15:10 +0000";
layers = (
{
layerId = "B62D1C5F-C6EB-4CFF-8AD4-79D05BEF2DD6";
paths = (
{
closed = 1;
nodes = (
"221 -106 LINE",
"446 700 LINE",
"355 720 LINE",
"165 28 LINE",
"104 265 LINE",
"25 265 LINE",
"125 -106 LINE"
);
}
);
width = 463;
}
);
rightKerningGroup = radical;
unicode = 221A;
},
{
glyphname = partialdiff;
lastChange = "2025-01-08 14:32:20 +0000";
layers = (
{
layerId = "B62D1C5F-C6EB-4CFF-8AD4-79D05BEF2DD6";
paths = (
{
closed = 1;
nodes = (
"424 -6 OFFCURVE",
"525 85 OFFCURVE",
"525 221 CURVE SMOOTH",
"525 309 OFFCURVE",
"486 368 OFFCURVE",
"444 438 CURVE SMOOTH",
"292 691 LINE",
"179 691 LINE",
"355 410 LINE",
"366 431 LINE",
"350 443 OFFCURVE",
"317 449 OFFCURVE",
"279 449 CURVE SMOOTH",
"153 449 OFFCURVE",
"45 358 OFFCURVE",
"45 222 CURVE SMOOTH",
"45 86 OFFCURVE",
"142 -6 OFFCURVE",
"285 -6 CURVE SMOOTH"
);
},
{
closed = 1;
nodes = (
"198 81 OFFCURVE",
"143 138 OFFCURVE",
"143 223 CURVE SMOOTH",
"143 309 OFFCURVE",
"200 365 OFFCURVE",
"286 365 CURVE SMOOTH",
"371 365 OFFCURVE",
"428 309 OFFCURVE",
"428 224 CURVE SMOOTH",
"428 138 OFFCURVE",
"371 81 OFFCURVE",
"285 81 CURVE SMOOTH"
);
}
);
width = 570;
}
);
leftMetricsKey = o;
rightMetricsKey = o;
unicode = 2202;
},
{
glyphname = percent;
lastChange = "2025-01-07 21:15:10 +0000";
layers = (
{
background = {
paths = (
{
closed = 1;
nodes = (
"121 537 LINE SMOOTH",
"121 587 OFFCURVE",
"151 617 OFFCURVE",
"194 617 CURVE SMOOTH",
"237 617 OFFCURVE",
"266 585 OFFCURVE",
"266 537 CURVE SMOOTH",
"266 463 LINE SMOOTH",
"266 413 OFFCURVE",
"235 383 OFFCURVE",
"194 383 CURVE SMOOTH",
"149 383 OFFCURVE",
"121 415 OFFCURVE",
"121 463 CURVE SMOOTH"
);
},
{
closed = 1;
nodes = (
"502 55 OFFCURVE",
"569 -6 OFFCURVE",
"655 -6 CURVE SMOOTH",
"741 -6 OFFCURVE",
"807 56 OFFCURVE",
"807 146 CURVE SMOOTH",
"807 224 LINE SMOOTH",
"807 314 OFFCURVE",
"741 376 OFFCURVE",
"655 376 CURVE SMOOTH",
"569 376 OFFCURVE",
"502 315 OFFCURVE",
"502 224 CURVE SMOOTH",
"502 146 LINE SMOOTH"
);
},
{
closed = 1;
nodes = (
"582 222 LINE SMOOTH",
"582 270 OFFCURVE",
"610 302 OFFCURVE",
"655 302 CURVE SMOOTH",
"696 302 OFFCURVE",
"727 272 OFFCURVE",
"727 222 CURVE SMOOTH",
"727 148 LINE SMOOTH",
"727 98 OFFCURVE",
"696 68 OFFCURVE",
"655 68 CURVE SMOOTH",
"610 68 OFFCURVE",
"582 100 OFFCURVE",
"582 148 CURVE SMOOTH"
);
},
{
closed = 1;
nodes = (
"208 691 LINE SMOOTH",
"108 691 OFFCURVE",
"41 630 OFFCURVE",
"41 539 CURVE SMOOTH",
"41 461 LINE SMOOTH",
"41 370 OFFCURVE",
"108 309 OFFCURVE",
"194 309 CURVE SMOOTH",
"280 309 OFFCURVE",
"346 371 OFFCURVE",
"346 461 CURVE SMOOTH",
"346 539 LINE SMOOTH",
"346 573 OFFCURVE",
"337 602 OFFCURVE",
"323 622 CURVE",
"351 620 OFFCURVE",
"387 620 OFFCURVE",
"441 620 CURVE SMOOTH",
"545 620 LINE",
"174 0 LINE",
"267 0 LINE",
"633 613 LINE",
"633 691 LINE"
);
}
);
};
layerId = "B62D1C5F-C6EB-4CFF-8AD4-79D05BEF2DD6";
paths = (
{
closed = 1;
nodes = (
"268 0 LINE",
"680 691 LINE",
"587 691 LINE",
"175 0 LINE"
);
},
{
closed = 1;
nodes = (
"281 315 OFFCURVE",
"347 377 OFFCURVE",
"347 467 CURVE SMOOTH",
"347 545 LINE SMOOTH",
"347 635 OFFCURVE",
"281 697 OFFCURVE",
"195 697 CURVE SMOOTH",
"109 697 OFFCURVE",
"42 636 OFFCURVE",
"42 545 CURVE SMOOTH",
"42 467 LINE SMOOTH",
"42 376 OFFCURVE",
"109 315 OFFCURVE",
"195 315 CURVE SMOOTH"
);
},
{
closed = 1;
nodes = (
"150 389 OFFCURVE",
"122 421 OFFCURVE",
"122 469 CURVE SMOOTH",
"122 543 LINE SMOOTH",
"122 591 OFFCURVE",
"150 623 OFFCURVE",
"195 623 CURVE SMOOTH",
"236 623 OFFCURVE",
"267 593 OFFCURVE",
"267 543 CURVE SMOOTH",
"267 469 LINE SMOOTH",
"267 419 OFFCURVE",
"236 389 OFFCURVE",
"195 389 CURVE SMOOTH"
);
},
{
closed = 1;
nodes = (
"742 -6 OFFCURVE",
"808 56 OFFCURVE",
"808 146 CURVE SMOOTH",
"808 224 LINE SMOOTH",
"808 314 OFFCURVE",
"742 376 OFFCURVE",
"656 376 CURVE SMOOTH",
"570 376 OFFCURVE",
"503 315 OFFCURVE",
"503 224 CURVE SMOOTH",
"503 146 LINE SMOOTH",
"503 55 OFFCURVE",
"570 -6 OFFCURVE",
"656 -6 CURVE SMOOTH"
);
},
{
closed = 1;
nodes = (
"611 68 OFFCURVE",
"583 100 OFFCURVE",
"583 148 CURVE SMOOTH",
"583 222 LINE SMOOTH",
"583 270 OFFCURVE",
"611 302 OFFCURVE",
"656 302 CURVE SMOOTH",
"697 302 OFFCURVE",
"728 272 OFFCURVE",
"728 222 CURVE SMOOTH",
"728 148 LINE SMOOTH",
"728 98 OFFCURVE",
"697 68 OFFCURVE",
"656 68 CURVE SMOOTH"
);
}
);
width = 850;
}
);
rightKerningGroup = percent;
unicode = 0025;
userData = {
KernOnSpecialSpacing = {
L = "spaced-off";
};
};
},
{
glyphname = perthousand;
lastChange = "2025-01-07 21:15:10 +0000";
layers = (
{
background = {
paths = (
{
closed = 1;
nodes = (
"121 537 LINE SMOOTH",
"121 587 OFFCURVE",
"151 617 OFFCURVE",
"194 617 CURVE SMOOTH",
"237 617 OFFCURVE",
"266 585 OFFCURVE",
"266 537 CURVE SMOOTH",
"266 463 LINE SMOOTH",
"266 413 OFFCURVE",
"235 383 OFFCURVE",
"194 383 CURVE SMOOTH",
"149 383 OFFCURVE",
"121 415 OFFCURVE",
"121 463 CURVE SMOOTH"
);
},
{
closed = 1;
nodes = (
"502 55 OFFCURVE",
"569 -6 OFFCURVE",
"655 -6 CURVE SMOOTH",
"741 -6 OFFCURVE",
"807 56 OFFCURVE",
"807 146 CURVE SMOOTH",
"807 224 LINE SMOOTH",
"807 314 OFFCURVE",
"741 376 OFFCURVE",
"655 376 CURVE SMOOTH",
"569 376 OFFCURVE",
"502 315 OFFCURVE",
"502 224 CURVE SMOOTH",
"502 146 LINE SMOOTH"
);
},
{
closed = 1;
nodes = (
"582 222 LINE SMOOTH",
"582 270 OFFCURVE",
"610 302 OFFCURVE",
"655 302 CURVE SMOOTH",
"696 302 OFFCURVE",
"727 272 OFFCURVE",
"727 222 CURVE SMOOTH",
"727 148 LINE SMOOTH",
"727 98 OFFCURVE",
"696 68 OFFCURVE",
"655 68 CURVE SMOOTH",
"610 68 OFFCURVE",
"582 100 OFFCURVE",
"582 148 CURVE SMOOTH"
);
},
{
closed = 1;
nodes = (
"208 691 LINE SMOOTH",
"108 691 OFFCURVE",
"41 630 OFFCURVE",
"41 539 CURVE SMOOTH",
"41 461 LINE SMOOTH",
"41 370 OFFCURVE",
"108 309 OFFCURVE",
"194 309 CURVE SMOOTH",
"280 309 OFFCURVE",
"346 371 OFFCURVE",
"346 461 CURVE SMOOTH",
"346 539 LINE SMOOTH",
"346 573 OFFCURVE",
"337 602 OFFCURVE",
"323 622 CURVE",
"351 620 OFFCURVE",
"387 620 OFFCURVE",
"441 620 CURVE SMOOTH",
"545 620 LINE",
"174 0 LINE",
"267 0 LINE",
"633 613 LINE",
"633 691 LINE"
);
},
{
closed = 1;
nodes = (
"858 55 OFFCURVE",
"925 -6 OFFCURVE",
"1011 -6 CURVE SMOOTH",
"1097 -6 OFFCURVE",
"1163 56 OFFCURVE",
"1163 146 CURVE SMOOTH",
"1163 224 LINE SMOOTH",
"1163 314 OFFCURVE",
"1097 376 OFFCURVE",
"1011 376 CURVE SMOOTH",
"925 376 OFFCURVE",
"858 315 OFFCURVE",
"858 224 CURVE SMOOTH",
"858 146 LINE SMOOTH"
);
},
{
closed = 1;
nodes = (
"938 222 LINE SMOOTH",
"938 270 OFFCURVE",
"966 302 OFFCURVE",
"1011 302 CURVE SMOOTH",
"1052 302 OFFCURVE",
"1083 272 OFFCURVE",
"1083 222 CURVE SMOOTH",
"1083 148 LINE SMOOTH",
"1083 98 OFFCURVE",
"1052 68 OFFCURVE",
"1011 68 CURVE SMOOTH",
"966 68 OFFCURVE",
"938 100 OFFCURVE",
"938 148 CURVE SMOOTH"
);
}
);
};
layerId = "B62D1C5F-C6EB-4CFF-8AD4-79D05BEF2DD6";
paths = (
{
closed = 1;
nodes = (
"268 0 LINE",
"680 691 LINE",
"587 691 LINE",
"175 0 LINE"
);
},
{
closed = 1;
nodes = (
"281 315 OFFCURVE",
"347 377 OFFCURVE",
"347 467 CURVE SMOOTH",
"347 545 LINE SMOOTH",
"347 635 OFFCURVE",
"281 697 OFFCURVE",
"195 697 CURVE SMOOTH",
"109 697 OFFCURVE",
"42 636 OFFCURVE",
"42 545 CURVE SMOOTH",
"42 467 LINE SMOOTH",
"42 376 OFFCURVE",
"109 315 OFFCURVE",
"195 315 CURVE SMOOTH"
);
},
{
closed = 1;
nodes = (
"150 389 OFFCURVE",
"122 421 OFFCURVE",
"122 469 CURVE SMOOTH",
"122 543 LINE SMOOTH",
"122 591 OFFCURVE",
"150 623 OFFCURVE",
"195 623 CURVE SMOOTH",
"236 623 OFFCURVE",
"267 593 OFFCURVE",
"267 543 CURVE SMOOTH",
"267 469 LINE SMOOTH",
"267 419 OFFCURVE",
"236 389 OFFCURVE",
"195 389 CURVE SMOOTH"
);
},
{
closed = 1;
nodes = (
"742 -6 OFFCURVE",
"808 56 OFFCURVE",
"808 146 CURVE SMOOTH",
"808 224 LINE SMOOTH",
"808 314 OFFCURVE",
"742 376 OFFCURVE",
"656 376 CURVE SMOOTH",
"570 376 OFFCURVE",
"503 315 OFFCURVE",
"503 224 CURVE SMOOTH",
"503 146 LINE SMOOTH",
"503 55 OFFCURVE",
"570 -6 OFFCURVE",
"656 -6 CURVE SMOOTH"
);
},
{
closed = 1;
nodes = (
"611 68 OFFCURVE",
"583 100 OFFCURVE",
"583 148 CURVE SMOOTH",
"583 222 LINE SMOOTH",
"583 270 OFFCURVE",
"611 302 OFFCURVE",
"656 302 CURVE SMOOTH",
"697 302 OFFCURVE",
"728 272 OFFCURVE",
"728 222 CURVE SMOOTH",
"728 148 LINE SMOOTH",
"728 98 OFFCURVE",
"697 68 OFFCURVE",
"656 68 CURVE SMOOTH"
);
},
{
closed = 1;
nodes = (
"1097 -6 OFFCURVE",
"1163 56 OFFCURVE",
"1163 146 CURVE SMOOTH",
"1163 224 LINE SMOOTH",
"1163 314 OFFCURVE",
"1097 376 OFFCURVE",
"1011 376 CURVE SMOOTH",
"925 376 OFFCURVE",
"858 315 OFFCURVE",
"858 224 CURVE SMOOTH",
"858 146 LINE SMOOTH",
"858 55 OFFCURVE",
"925 -6 OFFCURVE",
"1011 -6 CURVE SMOOTH"
);
},
{
closed = 1;
nodes = (
"966 68 OFFCURVE",
"938 100 OFFCURVE",
"938 148 CURVE SMOOTH",
"938 222 LINE SMOOTH",
"938 270 OFFCURVE",
"966 302 OFFCURVE",
"1011 302 CURVE SMOOTH",
"1052 302 OFFCURVE",
"1083 272 OFFCURVE",
"1083 222 CURVE SMOOTH",
"1083 148 LINE SMOOTH",
"1083 98 OFFCURVE",
"1052 68 OFFCURVE",
"1011 68 CURVE SMOOTH"
);
}
);
width = 1205;
}
);
leftMetricsKey = percent;
rightKerningGroup = percent;
rightMetricsKey = percent;
unicode = 2030;
},
{
glyphname = upArrow;
lastChange = "2025-01-08 15:38:20 +0000";
layers = (
{
layerId = "B62D1C5F-C6EB-4CFF-8AD4-79D05BEF2DD6";
paths = (
{
closed = 1;
nodes = (
"364 0 LINE",
"364 403 LINE",
"548 403 LINE",
"316 636 LINE",
"83 403 LINE",
"268 403 LINE",
"268 0 LINE"
);
}
);
width = 631;
}
);
unicode = 2191;
},
{
glyphname = northEastArrow;
lastChange = "2025-01-08 15:41:23 +0000";
layers = (
{
layerId = "B62D1C5F-C6EB-4CFF-8AD4-79D05BEF2DD6";
paths = (
{
closed = 1;
nodes = (
"420 310 LINE",
"552 178 LINE",
"552 507 LINE",
"223 507 LINE",
"355 375 LINE",
"70 90 LINE",
"135 25 LINE"
);
}
);
width = 642;
}
);
unicode = 2197;
},
{
glyphname = rightArrow;
lastChange = "2025-01-08 15:39:21 +0000";
layers = (
{
layerId = "B62D1C5F-C6EB-4CFF-8AD4-79D05BEF2DD6";
paths = (
{
closed = 1;
nodes = (
"713 266 LINE",
"483 478 LINE",
"483 309 LINE",
"80 309 LINE",
"80 223 LINE",
"483 223 LINE",
"483 54 LINE"
);
}
);
width = 793;
}
);
unicode = 2192;
},
{
glyphname = southEastArrow;
lastChange = "2025-01-08 15:41:14 +0000";
layers = (
{
layerId = "B62D1C5F-C6EB-4CFF-8AD4-79D05BEF2DD6";
paths = (
{
closed = 1;
nodes = (
"552 40 LINE",
"552 369 LINE",
"420 237 LINE",
"135 522 LINE",
"70 457 LINE",
"355 172 LINE",
"223 40 LINE"
);
}
);
width = 642;
}
);
unicode = 2198;
},
{
glyphname = downArrow;
lastChange = "2025-01-08 15:39:09 +0000";
layers = (
{
layerId = "B62D1C5F-C6EB-4CFF-8AD4-79D05BEF2DD6";
paths = (
{
closed = 1;
nodes = (
"548 228 LINE",
"364 228 LINE",
"364 631 LINE",
"268 631 LINE",
"268 228 LINE",
"83 228 LINE",
"316 -5 LINE"
);
}
);
width = 631;
}
);
unicode = 2193;
},
{
glyphname = southWestArrow;
lastChange = "2025-01-08 15:41:08 +0000";
layers = (
{
layerId = "B62D1C5F-C6EB-4CFF-8AD4-79D05BEF2DD6";
paths = (
{
closed = 1;
nodes = (
"419 25 LINE",
"287 157 LINE",
"572 442 LINE",
"507 507 LINE",
"222 222 LINE",
"90 354 LINE",
"90 25 LINE"
);
}
);
width = 642;
}
);
unicode = 2199;
},
{
glyphname = leftArrow;
lastChange = "2025-01-08 15:41:28 +0000";
layers = (
{
background = {
paths = (
{
closed = 1;
nodes = (
"342 106 LINE",
"199 259 LINE",
"342 412 LINE",
"278 471 LINE",
"80 259 LINE",
"278 47 LINE"
);
},
{
closed = 1;
nodes = (
"613 216 LINE",
"613 302 LINE",
"180 302 LINE",
"180 216 LINE"
);
}
);
};
layerId = "B62D1C5F-C6EB-4CFF-8AD4-79D05BEF2DD6";
paths = (
{
closed = 1;
nodes = (
"310 223 LINE",
"713 223 LINE",
"713 309 LINE",
"310 309 LINE",
"310 478 LINE",
"80 266 LINE",
"310 54 LINE"
);
}
);
width = 793;
}
);
leftMetricsKey = hyphen;
rightMetricsKey = hyphen;
unicode = 2190;
},
{
glyphname = northWestArrow;
lastChange = "2025-01-08 15:41:01 +0000";
layers = (
{
layerId = "B62D1C5F-C6EB-4CFF-8AD4-79D05BEF2DD6";
paths = (
{
closed = 1;
nodes = (
"572 90 LINE",
"287 375 LINE",
"419 507 LINE",
"90 507 LINE",
"90 178 LINE",
"222 310 LINE",
"507 25 LINE"
);
}
);
width = 642;
}
);
unicode = 2196;
},
{
glyphname = lozenge;
lastChange = "2025-01-08 15:42:38 +0000";
layers = (
{
background = {
paths = (
{
closed = 1;
nodes = (
"250 -3 LINE",
"332 -3 LINE",
"502 344 LINE",
"332 691 LINE",
"250 691 LINE",
"80 344 LINE"
);
},
{
closed = 1;
nodes = (
"291 590 LINE",
"408 344 LINE",
"291 98 LINE",
"174 344 LINE"
);
}
);
};
layerId = "B62D1C5F-C6EB-4CFF-8AD4-79D05BEF2DD6";
paths = (
{
closed = 1;
nodes = (
"342 0 LINE",
"512 346 LINE",
"342 691 LINE",
"240 691 LINE",
"70 346 LINE",
"240 0 LINE"
);
},
{
closed = 1;
nodes = (
"172 346 LINE",
"291 590 LINE",
"410 346 LINE",
"291 101 LINE"
);
}
);
width = 582;
}
);
unicode = 25CA;
},
{
glyphname = whiteFrowningFace;
lastChange = "2025-01-08 16:40:23 +0000";
layers = (
{
layerId = "B62D1C5F-C6EB-4CFF-8AD4-79D05BEF2DD6";
paths = (
{
closed = 1;
nodes = (
"609 -4 OFFCURVE",
"760 143 OFFCURVE",
"760 346 CURVE SMOOTH",
"760 549 OFFCURVE",
"609 696 OFFCURVE",
"405 696 CURVE SMOOTH",
"201 696 OFFCURVE",
"50 549 OFFCURVE",
"50 346 CURVE SMOOTH",
"50 143 OFFCURVE",
"201 -4 OFFCURVE",
"405 -4 CURVE SMOOTH"
);
},
{
closed = 1;
nodes = (
"292 258 OFFCURVE",
"342 291 OFFCURVE",
"405 291 CURVE SMOOTH",
"468 291 OFFCURVE",
"518 258 OFFCURVE",
"539 199 CURVE",
"604 218 LINE",
"574 310 OFFCURVE",
"501 363 OFFCURVE",
"405 363 CURVE SMOOTH",
"309 363 OFFCURVE",
"236 310 OFFCURVE",
"206 218 CURVE",
"271 199 LINE"
);
},
{
closed = 1;
nodes = (
"239 72 OFFCURVE",
"126 183 OFFCURVE",
"126 346 CURVE SMOOTH",
"126 509 OFFCURVE",
"239 620 OFFCURVE",
"405 620 CURVE SMOOTH",
"571 620 OFFCURVE",
"684 509 OFFCURVE",
"684 346 CURVE SMOOTH",
"684 183 OFFCURVE",
"571 72 OFFCURVE",
"405 72 CURVE SMOOTH"
);
},
{
closed = 1;
nodes = (
"330 400 OFFCURVE",
"357 427 OFFCURVE",
"357 462 CURVE SMOOTH",
"357 495 OFFCURVE",
"330 523 OFFCURVE",
"296 523 CURVE SMOOTH",
"262 523 OFFCURVE",
"234 495 OFFCURVE",
"234 462 CURVE SMOOTH",
"234 427 OFFCURVE",
"262 400 OFFCURVE",
"296 400 CURVE SMOOTH"
);
},
{
closed = 1;
nodes = (
"550 400 OFFCURVE",
"577 427 OFFCURVE",
"577 462 CURVE SMOOTH",
"577 495 OFFCURVE",
"550 523 OFFCURVE",
"516 523 CURVE SMOOTH",
"482 523 OFFCURVE",
"454 495 OFFCURVE",
"454 462 CURVE SMOOTH",
"454 427 OFFCURVE",
"482 400 OFFCURVE",
"516 400 CURVE SMOOTH"
);
}
);
width = 810;
}
);
leftMetricsKey = copyright;
rightMetricsKey = copyright;
unicode = 2639;
},
{
glyphname = whiteSmilingFace;
lastChange = "2025-01-08 16:36:40 +0000";
layers = (
{
layerId = "B62D1C5F-C6EB-4CFF-8AD4-79D05BEF2DD6";
paths = (
{
closed = 1;
nodes = (
"609 -4 OFFCURVE",
"760 143 OFFCURVE",
"760 346 CURVE SMOOTH",
"760 549 OFFCURVE",
"609 696 OFFCURVE",
"405 696 CURVE SMOOTH",
"201 696 OFFCURVE",
"50 549 OFFCURVE",
"50 346 CURVE SMOOTH",
"50 143 OFFCURVE",
"201 -4 OFFCURVE",
"405 -4 CURVE SMOOTH"
);
},
{
closed = 1;
nodes = (
"539 122 OFFCURVE",
"634 218 OFFCURVE",
"634 353 CURVE",
"560 353 LINE",
"560 259 OFFCURVE",
"499 196 OFFCURVE",
"406 196 CURVE SMOOTH",
"312 196 OFFCURVE",
"251 259 OFFCURVE",
"251 353 CURVE",
"177 353 LINE",
"177 216 OFFCURVE",
"272 122 OFFCURVE",
"406 122 CURVE SMOOTH"
);
},
{
closed = 1;
nodes = (
"239 72 OFFCURVE",
"126 183 OFFCURVE",
"126 346 CURVE SMOOTH",
"126 509 OFFCURVE",
"239 620 OFFCURVE",
"405 620 CURVE SMOOTH",
"571 620 OFFCURVE",
"684 509 OFFCURVE",
"684 346 CURVE SMOOTH",
"684 183 OFFCURVE",
"571 72 OFFCURVE",
"405 72 CURVE SMOOTH"
);
},
{
closed = 1;
nodes = (
"329 400 OFFCURVE",
"356 427 OFFCURVE",
"356 462 CURVE SMOOTH",
"356 495 OFFCURVE",
"329 523 OFFCURVE",
"295 523 CURVE SMOOTH",
"261 523 OFFCURVE",
"233 495 OFFCURVE",
"233 462 CURVE SMOOTH",
"233 427 OFFCURVE",
"261 400 OFFCURVE",
"295 400 CURVE SMOOTH"
);
},
{
closed = 1;
nodes = (
"549 400 OFFCURVE",
"576 427 OFFCURVE",
"576 462 CURVE SMOOTH",
"576 495 OFFCURVE",
"549 523 OFFCURVE",
"515 523 CURVE SMOOTH",
"481 523 OFFCURVE",
"453 495 OFFCURVE",
"453 462 CURVE SMOOTH",
"453 427 OFFCURVE",
"481 400 OFFCURVE",
"515 400 CURVE SMOOTH"
);
}
);
width = 810;
}
);
leftMetricsKey = copyright;
rightMetricsKey = copyright;
unicode = 263A;
},
{
glyphname = at;
lastChange = "2025-01-07 21:38:48 +0000";
layers = (
{
background = {
paths = (
{
closed = 1;
nodes = (
"544 -54 OFFCURVE",
"646 -27 OFFCURVE",
"717 29 CURVE",
"683 82 LINE",
"628 42 OFFCURVE",
"553 13 OFFCURVE",
"462 13 CURVE SMOOTH",
"275 13 OFFCURVE",
"152 135 OFFCURVE",
"152 321 CURVE SMOOTH",
"152 509 OFFCURVE",
"278 634 OFFCURVE",
"464 634 CURVE SMOOTH",
"636 634 OFFCURVE",
"748 527 OFFCURVE",
"748 365 CURVE SMOOTH",
"748 266 OFFCURVE",
"706 204 OFFCURVE",
"650 204 CURVE SMOOTH",
"621 204 OFFCURVE",
"602 222 OFFCURVE",
"602 258 CURVE SMOOTH",
"602 396 LINE SMOOTH",
"602 480 OFFCURVE",
"546 530 OFFCURVE",
"452 530 CURVE SMOOTH",
"366 530 OFFCURVE",
"307 486 OFFCURVE",
"292 410 CURVE",
"366 394 LINE",
"372 434 OFFCURVE",
"397 459 OFFCURVE",
"450 459 CURVE SMOOTH",
"493 459 OFFCURVE",
"521 440 OFFCURVE",
"521 394 CURVE SMOOTH",
"521 369 LINE",
"422 356 LINE SMOOTH",
"344 346 OFFCURVE",
"286 306 OFFCURVE",
"286 233 CURVE SMOOTH",
"286 165 OFFCURVE",
"333 120 OFFCURVE",
"412 120 CURVE SMOOTH",
"463 120 OFFCURVE",
"512 144 OFFCURVE",
"539 179 CURVE",
"559 153 OFFCURVE",
"594 141 OFFCURVE",
"634 141 CURVE SMOOTH",
"742 141 OFFCURVE",
"820 229 OFFCURVE",
"820 370 CURVE SMOOTH",
"820 568 OFFCURVE",
"668 702 OFFCURVE",
"464 702 CURVE SMOOTH",
"242 702 OFFCURVE",
"80 543 OFFCURVE",
"80 321 CURVE SMOOTH",
"80 103 OFFCURVE",
"236 -54 OFFCURVE",
"454 -54 CURVE SMOOTH"
);
},
{
closed = 1;
nodes = (
"393 188 OFFCURVE",
"371 206 OFFCURVE",
"371 238 CURVE SMOOTH",
"371 275 OFFCURVE",
"401 290 OFFCURVE",
"441 295 CURVE SMOOTH",
"521 305 LINE",
"521 231 LINE",
"501 205 OFFCURVE",
"468 188 OFFCURVE",
"431 188 CURVE SMOOTH"
);
}
);
};
layerId = "B62D1C5F-C6EB-4CFF-8AD4-79D05BEF2DD6";
paths = (
{
closed = 1;
nodes = (
"544 -32 OFFCURVE",
"646 -5 OFFCURVE",
"717 51 CURVE",
"677 114 LINE",
"622 77 OFFCURVE",
"550 50 OFFCURVE",
"462 50 CURVE SMOOTH",
"281 50 OFFCURVE",
"167 163 OFFCURVE",
"167 342 CURVE SMOOTH",
"167 524 OFFCURVE",
"284 641 OFFCURVE",
"460 641 CURVE SMOOTH",
"625 641 OFFCURVE",
"733 539 OFFCURVE",
"733 379 CURVE SMOOTH",
"733 291 OFFCURVE",
"700 237 OFFCURVE",
"650 237 CURVE SMOOTH",
"621 237 OFFCURVE",
"602 255 OFFCURVE",
"602 291 CURVE SMOOTH",
"602 418 LINE SMOOTH",
"602 502 OFFCURVE",
"546 552 OFFCURVE",
"452 552 CURVE SMOOTH",
"366 552 OFFCURVE",
"307 508 OFFCURVE",
"292 432 CURVE",
"366 416 LINE",
"372 456 OFFCURVE",
"398 481 OFFCURVE",
"449 481 CURVE SMOOTH",
"493 481 OFFCURVE",
"521 462 OFFCURVE",
"521 416 CURVE SMOOTH",
"521 253 LINE",
"501 227 OFFCURVE",
"468 210 OFFCURVE",
"431 210 CURVE SMOOTH",
"393 210 OFFCURVE",
"371 228 OFFCURVE",
"371 260 CURVE SMOOTH",
"371 297 OFFCURVE",
"401 312 OFFCURVE",
"441 317 CURVE SMOOTH",
"537 329 LINE",
"537 393 LINE",
"422 378 LINE SMOOTH",
"344 368 OFFCURVE",
"286 328 OFFCURVE",
"286 254 CURVE SMOOTH",
"286 187 OFFCURVE",
"334 142 OFFCURVE",
"409 142 CURVE SMOOTH",
"465 142 OFFCURVE",
"514 167 OFFCURVE",
"542 204 CURVE",
"562 176 OFFCURVE",
"600 164 OFFCURVE",
"640 164 CURVE SMOOTH",
"746 164 OFFCURVE",
"820 251 OFFCURVE",
"820 390 CURVE SMOOTH",
"820 590 OFFCURVE",
"665 724 OFFCURVE",
"463 724 CURVE SMOOTH",
"242 724 OFFCURVE",
"80 565 OFFCURVE",
"80 343 CURVE SMOOTH",
"80 125 OFFCURVE",
"236 -32 OFFCURVE",
"454 -32 CURVE SMOOTH"
);
}
);
width = 900;
}
);
leftKerningGroup = at;
rightKerningGroup = at;
unicode = 0040;
userData = {
KernOnSpecialSpacing = {
L = symbols;
R = symbols;
};
};
},
